<svg width="346" height="346" viewBox="0 0 346 346" fill="none" xmlns="http://www.w3.org/2000/svg">
<path d="M346 264.62H0V264.793H346V264.62Z" fill="#EBEBEB"/>
<path d="M59.2215 271.207H36.3025V271.38H59.2215V271.207Z" fill="#EBEBEB"/>
<path d="M150.78 269.332H118.429V269.505H150.78V269.332Z" fill="#EBEBEB"/>
<path d="M91.3373 276.558H78.0579V276.731H91.3373V276.558Z" fill="#EBEBEB"/>
<path d="M237.038 273.554H216.132V273.727H237.038V273.554Z" fill="#EBEBEB"/>
<path d="M256.566 273.554H243.197V273.727H256.566V273.554Z" fill="#EBEBEB"/>
<path d="M311.338 276.474H270.814V276.647H311.338V276.474Z" fill="#EBEBEB"/>
<path d="M164.004 233.757H30.3856C29.3388 233.755 28.3356 233.338 27.596 232.597C26.8565 231.857 26.4412 230.853 26.4412 229.806V41.9763C26.4503 40.9355 26.8696 39.9404 27.6082 39.2071C28.3467 38.4737 29.3448 38.0614 30.3856 38.0596H164.004C165.052 38.0596 166.057 38.4759 166.798 39.2169C167.539 39.9579 167.955 40.9629 167.955 42.0109V229.806C167.955 230.854 167.539 231.859 166.798 232.6C166.057 233.341 165.052 233.757 164.004 233.757ZM30.3856 38.198C29.3847 38.1998 28.4254 38.5987 27.7184 39.3071C27.0113 40.0154 26.6142 40.9754 26.6142 41.9763V229.806C26.6142 230.807 27.0113 231.767 27.7184 232.475C28.4254 233.183 29.3847 233.582 30.3856 233.584H164.004C165.005 233.582 165.965 233.184 166.673 232.475C167.382 231.767 167.78 230.807 167.782 229.806V41.9763C167.78 40.9748 167.382 40.0148 166.673 39.3066C165.965 38.5985 165.005 38.1998 164.004 38.198H30.3856Z" fill="#EBEBEB"/>
<path d="M313.691 233.757H180.065C179.018 233.755 178.014 233.338 177.273 232.598C176.533 231.857 176.116 230.853 176.114 229.806V41.9763C176.125 40.9349 176.546 39.9398 177.285 39.2066C178.025 38.4735 179.024 38.0613 180.065 38.0596H313.691C314.73 38.0632 315.726 38.4763 316.463 39.2095C317.2 39.9426 317.619 40.9367 317.628 41.9763V229.806C317.628 230.851 317.214 231.854 316.476 232.595C315.738 233.336 314.736 233.753 313.691 233.757ZM180.065 38.198C179.064 38.1998 178.104 38.5985 177.396 39.3066C176.687 40.0148 176.289 40.9748 176.287 41.9763V229.806C176.289 230.807 176.687 231.767 177.396 232.475C178.104 233.184 179.064 233.582 180.065 233.584H313.691C314.692 233.582 315.652 233.184 316.36 232.475C317.068 231.767 317.467 230.807 317.469 229.806V41.9763C317.467 40.9748 317.068 40.0148 316.36 39.3066C315.652 38.5985 314.692 38.1998 313.691 38.198H180.065Z" fill="#EBEBEB"/>
<path d="M61.9413 169.691L226.589 169.691V66.6595L61.9413 66.6595V169.691Z" fill="#F0F0F0"/>
<path d="M223.364 164.848V71.5039L65.159 71.5039V164.848H223.364Z" fill="#FAFAFA"/>
<path d="M202.541 164.848L186.307 71.5039H174.342L190.57 164.848H202.541Z" fill="white"/>
<path d="M187.809 164.848L171.581 71.5039H166.232L182.46 164.848H187.809Z" fill="white"/>
<path d="M161.623 164.848L145.396 71.5039H133.431L149.659 164.848H161.623Z" fill="white"/>
<path d="M131.459 164.848L115.225 71.5039H109.876L126.103 164.848H131.459Z" fill="white"/>
<path d="M181.795 164.848V71.5039H180.979V164.848H181.795Z" fill="#E0E0E0"/>
<path d="M223.364 164.855V71.5107H222.547V164.855H223.364Z" fill="#E0E0E0"/>
<path d="M185.02 164.848V71.5039H181.796V164.848H185.02Z" fill="#F0F0F0"/>
<path d="M141.86 164.848V71.5039H141.043V164.848H141.86Z" fill="#E0E0E0"/>
<path d="M145.078 164.848V71.5039H141.853V164.848H145.078Z" fill="#F0F0F0"/>
<path d="M101.897 164.848V71.5039H101.08V164.848H101.897Z" fill="#E0E0E0"/>
<path d="M105.122 164.855V71.5107H101.897V164.855H105.122Z" fill="#F0F0F0"/>
<path d="M61.9341 169.692L61.9341 66.6602H61.1175L61.1175 169.692H61.9341Z" fill="#E0E0E0"/>
<path d="M45.2083 59.5877H233.896C234.181 59.5877 234.455 59.4749 234.657 59.2739C234.859 59.073 234.974 58.8002 234.976 58.5151C234.976 58.2288 234.862 57.9542 234.659 57.7517C234.457 57.5493 234.182 57.4355 233.896 57.4355H45.2083C44.9232 57.4374 44.6504 57.5519 44.4495 57.7542C44.2485 57.9564 44.1357 58.23 44.1357 58.5151C44.1376 58.799 44.2511 59.0707 44.4519 59.2715C44.6527 59.4723 44.9244 59.5859 45.2083 59.5877Z" fill="#3D3D3D"/>
<g opacity="0.6">
<path d="M159.665 243.354H231.259L231.259 55.3578H159.665L159.665 243.354Z" fill="#F5F5F5"/>
<path d="M203.199 244.891H209.198L207.517 56.8955H204.832L203.199 244.891Z" fill="#E6E6E6"/>
<path d="M216.437 244.891H219.336L218.52 56.8955H217.226L216.437 244.891Z" fill="#E6E6E6"/>
<path d="M185.802 244.891H188.694L187.885 56.8955H186.591L185.802 244.891Z" fill="#E6E6E6"/>
<path d="M171.062 244.891H173.955L173.145 56.8955H171.851L171.062 244.891Z" fill="#E6E6E6"/>
</g>
<g opacity="0.6">
<path d="M48.9035 243.354H84.7007L84.7007 55.3578H48.9035L48.9035 243.354Z" fill="#F5F5F5"/>
<path d="M70.6738 244.891H73.6702L72.8329 56.8955H71.4904L70.6738 244.891Z" fill="#E6E6E6"/>
<path d="M77.2896 244.891H78.7358L78.3345 56.8955H77.684L77.2896 244.891Z" fill="#E6E6E6"/>
<path d="M61.9756 244.891H63.4219L63.0136 56.8955H62.37L61.9756 244.891Z" fill="#E6E6E6"/>
<path d="M54.6057 244.891H56.052L55.6437 56.8955H54.9932L54.6057 244.891Z" fill="#E6E6E6"/>
</g>
<path d="M297.373 84.4238H249.881V143.701H297.373V84.4238Z" fill="#E6E6E6"/>
<path d="M299.463 84.4238H250.594V143.701H299.463V84.4238Z" fill="#D8D8D8"/>
<path d="M295.719 139.492V88.6299H254.345V139.492H295.719Z" fill="#FAFAFA"/>
<path d="M295.719 139.492V88.6299H295.332V139.492H295.719Z" fill="#E6E6E6"/>
<path d="M288.717 110.719C291.052 108.384 291.052 104.598 288.717 102.264C286.382 99.9286 282.597 99.9286 280.262 102.264C277.927 104.598 277.927 108.384 280.262 110.719C282.597 113.054 286.382 113.054 288.717 110.719Z" fill="#E2E1E1"/>
<path d="M283.532 124.052C288.277 119.307 288.277 111.613 283.532 106.868C278.786 102.122 271.093 102.122 266.347 106.868C261.602 111.613 261.602 119.307 266.347 124.052C271.093 128.798 278.786 128.798 283.532 124.052Z" fill="white"/>
<path d="M271.778 107.857C272.537 104.643 270.546 101.423 267.332 100.664C264.119 99.9056 260.899 101.896 260.14 105.11C259.381 108.323 261.372 111.544 264.586 112.302C267.799 113.061 271.019 111.07 271.778 107.857Z" fill="#E2E1E1"/>
<path d="M248.469 194.009H241.979V260.178H248.469V194.009Z" fill="#D3D3D3"/>
<path d="M309.476 190.049H240.401V194.007H309.476V190.049Z" fill="#D3D3D3"/>
<path d="M305.248 260.178H244.622V264.62H305.248V260.178Z" fill="#F0F0F0"/>
<path d="M307.899 194.009H248.47V260.178H307.899V194.009Z" fill="#E9E9E9"/>
<path d="M253.881 221.682H302.48V201.378H253.881V221.682Z" fill="#B5B5B5"/>
<path d="M253.881 251.541H302.48V231.238H253.881V251.541Z" fill="#B5B5B5"/>
<path d="M283.72 200.181H272.641C271.945 200.181 271.382 200.745 271.382 201.44V202.077C271.382 202.772 271.945 203.336 272.641 203.336H283.72C284.416 203.336 284.979 202.772 284.979 202.077V201.44C284.979 200.745 284.416 200.181 283.72 200.181Z" fill="#FAFAFA"/>
<path d="M283.72 230.049H272.641C271.945 230.049 271.382 230.613 271.382 231.308V231.945C271.382 232.64 271.945 233.204 272.641 233.204H283.72C284.416 233.204 284.979 232.64 284.979 231.945V231.308C284.979 230.613 284.416 230.049 283.72 230.049Z" fill="#FAFAFA"/>
<path d="M132.567 264.42C140.7 263.1 146.223 255.437 144.903 247.303C143.583 239.17 135.919 233.647 127.786 234.967C119.652 236.287 114.129 243.951 115.449 252.084C116.77 260.218 124.433 265.741 132.567 264.42Z" fill="#EBEBEB"/>
<path d="M110.241 264.375C120.392 262.727 127.286 253.162 125.638 243.01C123.99 232.859 114.425 225.965 104.273 227.613C94.1218 229.261 87.2282 238.826 88.876 248.978C90.5239 259.129 100.089 266.023 110.241 264.375Z" fill="#F5F5F5"/>
<path d="M173 295.872C247.101 295.872 307.172 292.365 307.172 288.039C307.172 283.712 247.101 280.205 173 280.205C98.8989 280.205 38.8281 283.712 38.8281 288.039C38.8281 292.365 98.8989 295.872 173 295.872Z" fill="#D4D4D4"/>
<path d="M87.6138 136.698C83.0397 136.698 80.8876 132.096 80.7976 131.902C80.7193 131.687 80.7249 131.45 80.8131 131.238C80.9014 131.027 81.066 130.856 81.2742 130.76C81.4824 130.665 81.719 130.651 81.9371 130.721C82.1552 130.792 82.3388 130.942 82.4515 131.141C82.4515 131.203 84.2715 134.975 87.7522 134.878C87.981 134.891 88.1966 134.989 88.3563 135.154C88.5159 135.318 88.6079 135.537 88.614 135.766C88.6201 135.995 88.5398 136.218 88.3892 136.39C88.2385 136.563 88.0285 136.673 87.8007 136.698H87.6138Z" fill="#ACF75F"/>
<path d="M147.396 72.7919C146.998 72.7936 146.6 72.7682 146.206 72.7157C146.087 72.698 145.974 72.6572 145.872 72.5956C145.769 72.534 145.68 72.4529 145.609 72.3568C145.538 72.2608 145.487 72.1516 145.458 72.0357C145.429 71.9198 145.423 71.7993 145.441 71.6812C145.459 71.5631 145.5 71.4496 145.561 71.3472C145.623 71.2448 145.704 71.1556 145.8 71.0846C145.896 71.0136 146.005 70.9622 146.121 70.9334C146.237 70.9045 146.357 70.8988 146.476 70.9165C146.517 70.9165 150.683 71.5047 152.51 68.536C152.572 68.4343 152.654 68.3457 152.75 68.2755C152.847 68.2053 152.956 68.1548 153.072 68.1268C153.188 68.0989 153.308 68.0941 153.426 68.1126C153.544 68.1312 153.657 68.1728 153.759 68.235C153.861 68.2973 153.949 68.379 154.019 68.4754C154.09 68.5719 154.14 68.6812 154.168 68.7972C154.196 68.9132 154.201 69.0336 154.182 69.1514C154.164 69.2693 154.122 69.3823 154.06 69.4841C152.24 72.3628 149.091 72.7919 147.396 72.7919Z" fill="#ACF75F"/>
<path opacity="0.6" d="M147.396 72.7919C146.998 72.7936 146.6 72.7682 146.206 72.7157C146.087 72.698 145.974 72.6572 145.872 72.5956C145.769 72.534 145.68 72.4529 145.609 72.3568C145.538 72.2608 145.487 72.1516 145.458 72.0357C145.429 71.9198 145.423 71.7993 145.441 71.6812C145.459 71.5631 145.5 71.4496 145.561 71.3472C145.623 71.2448 145.704 71.1556 145.8 71.0846C145.896 71.0136 146.005 70.9622 146.121 70.9334C146.237 70.9045 146.357 70.8988 146.476 70.9165C146.517 70.9165 150.683 71.5047 152.51 68.536C152.572 68.4343 152.654 68.3457 152.75 68.2755C152.847 68.2053 152.956 68.1548 153.072 68.1268C153.188 68.0989 153.308 68.0941 153.426 68.1126C153.544 68.1312 153.657 68.1728 153.759 68.235C153.861 68.2973 153.949 68.379 154.019 68.4754C154.09 68.5719 154.14 68.6812 154.168 68.7972C154.196 68.9132 154.201 69.0336 154.182 69.1514C154.164 69.2693 154.122 69.3823 154.06 69.4841C152.24 72.3628 149.091 72.7919 147.396 72.7919Z" fill="white"/>
<path d="M44.7031 107.448C42.9474 107.388 41.2424 106.844 39.7761 105.877C39.6726 105.811 39.5837 105.724 39.5148 105.622C39.4459 105.521 39.3983 105.406 39.3751 105.285C39.3518 105.165 39.3533 105.041 39.3794 104.92C39.4056 104.8 39.4559 104.687 39.5273 104.587C39.5986 104.487 39.6896 104.403 39.7946 104.339C39.8996 104.275 40.0165 104.233 40.1381 104.216C40.2597 104.199 40.3836 104.206 40.5022 104.239C40.6208 104.271 40.7316 104.327 40.8279 104.403C40.8625 104.403 44.3502 106.763 47.2912 104.887C47.3919 104.814 47.5066 104.762 47.6281 104.735C47.7496 104.708 47.8754 104.705 47.9978 104.728C48.1202 104.752 48.2365 104.799 48.3397 104.869C48.4429 104.939 48.5308 105.029 48.5979 105.134C48.665 105.239 48.71 105.356 48.73 105.479C48.75 105.602 48.7447 105.728 48.7143 105.849C48.684 105.969 48.6292 106.083 48.5535 106.182C48.4777 106.28 48.3826 106.363 48.2738 106.423C47.2078 107.103 45.9674 107.459 44.7031 107.448Z" fill="#ACF75F"/>
<path opacity="0.6" d="M44.7031 107.448C42.9474 107.388 41.2424 106.844 39.7761 105.877C39.6726 105.811 39.5837 105.724 39.5148 105.622C39.4459 105.521 39.3983 105.406 39.3751 105.285C39.3518 105.165 39.3533 105.041 39.3794 104.92C39.4056 104.8 39.4559 104.687 39.5273 104.587C39.5986 104.487 39.6896 104.403 39.7946 104.339C39.8996 104.275 40.0165 104.233 40.1381 104.216C40.2597 104.199 40.3836 104.206 40.5022 104.239C40.6208 104.271 40.7316 104.327 40.8279 104.403C40.8625 104.403 44.3502 106.763 47.2912 104.887C47.3919 104.814 47.5066 104.762 47.6281 104.735C47.7496 104.708 47.8754 104.705 47.9978 104.728C48.1202 104.752 48.2365 104.799 48.3397 104.869C48.4429 104.939 48.5308 105.029 48.5979 105.134C48.665 105.239 48.71 105.356 48.73 105.479C48.75 105.602 48.7447 105.728 48.7143 105.849C48.684 105.969 48.6292 106.083 48.5535 106.182C48.4777 106.28 48.3826 106.363 48.2738 106.423C47.2078 107.103 45.9674 107.459 44.7031 107.448Z" fill="white"/>
<path d="M282.08 83.1787C280.327 83.1314 278.62 82.6049 277.146 81.6563C276.947 81.5195 276.812 81.3097 276.768 81.0728C276.725 80.836 276.777 80.5916 276.914 80.3934C277.05 80.1952 277.26 80.0594 277.497 80.0159C277.734 79.9724 277.978 80.0248 278.177 80.1615C278.211 80.1615 281.706 82.5143 284.647 80.6459C284.747 80.5819 284.859 80.5382 284.977 80.5175C285.094 80.4967 285.214 80.4992 285.33 80.5249C285.447 80.5506 285.557 80.599 285.654 80.6673C285.752 80.7355 285.835 80.8223 285.899 80.9227C285.963 81.0232 286.007 81.1352 286.028 81.2525C286.049 81.3698 286.046 81.49 286.02 81.6063C285.995 81.7226 285.946 81.8327 285.878 81.9304C285.81 82.028 285.723 82.1112 285.623 82.1753C284.564 82.8462 283.333 83.1948 282.08 83.1787Z" fill="#ACF75F"/>
<path opacity="0.6" d="M282.08 83.1787C280.327 83.1314 278.62 82.6049 277.146 81.6563C276.947 81.5195 276.812 81.3097 276.768 81.0728C276.725 80.836 276.777 80.5916 276.914 80.3934C277.05 80.1952 277.26 80.0594 277.497 80.0159C277.734 79.9724 277.978 80.0248 278.177 80.1615C278.211 80.1615 281.706 82.5143 284.647 80.6459C284.747 80.5819 284.859 80.5382 284.977 80.5175C285.094 80.4967 285.214 80.4992 285.33 80.5249C285.447 80.5506 285.557 80.599 285.654 80.6673C285.752 80.7355 285.835 80.8223 285.899 80.9227C285.963 81.0232 286.007 81.1352 286.028 81.2525C286.049 81.3698 286.046 81.49 286.02 81.6063C285.995 81.7226 285.946 81.8327 285.878 81.9304C285.81 82.028 285.723 82.1112 285.623 82.1753C284.564 82.8462 283.333 83.1948 282.08 83.1787Z" fill="white"/>
<path d="M170.792 154.656C166.55 154.656 164.239 150.545 164.135 150.358C164.019 150.147 163.991 149.898 164.058 149.667C164.124 149.435 164.281 149.24 164.492 149.123C164.703 149.006 164.951 148.979 165.183 149.045C165.415 149.112 165.61 149.268 165.727 149.479C165.727 149.535 167.803 153.161 171.263 152.808C171.494 152.8 171.72 152.88 171.894 153.032C172.069 153.184 172.179 153.397 172.203 153.627C172.227 153.857 172.162 154.088 172.022 154.273C171.882 154.457 171.678 154.582 171.45 154.621C171.242 154.642 171.014 154.656 170.792 154.656Z" fill="#ACF75F"/>
<path opacity="0.6" d="M170.792 154.656C166.55 154.656 164.239 150.545 164.135 150.358C164.019 150.147 163.991 149.898 164.058 149.667C164.124 149.435 164.281 149.24 164.492 149.123C164.703 149.006 164.951 148.979 165.183 149.045C165.415 149.112 165.61 149.268 165.727 149.479C165.727 149.535 167.803 153.161 171.263 152.808C171.494 152.8 171.72 152.88 171.894 153.032C172.069 153.184 172.179 153.397 172.203 153.627C172.227 153.857 172.162 154.088 172.022 154.273C171.882 154.457 171.678 154.582 171.45 154.621C171.242 154.642 171.014 154.656 170.792 154.656Z" fill="white"/>
<path d="M54.6677 173.139C54.4473 173.137 54.2351 173.055 54.0709 172.908C53.9067 172.761 53.8016 172.559 53.7753 172.341C53.749 172.122 53.8033 171.901 53.9281 171.719C54.0528 171.538 54.2395 171.408 54.4531 171.354C54.4947 171.354 58.5567 170.281 59.1103 166.835C59.1294 166.717 59.1715 166.604 59.2341 166.503C59.2968 166.401 59.3788 166.313 59.4755 166.244C59.5722 166.174 59.6817 166.124 59.7978 166.097C59.9138 166.069 60.0341 166.065 60.1518 166.084C60.2694 166.103 60.3822 166.145 60.4836 166.208C60.5851 166.27 60.6731 166.352 60.7429 166.449C60.8126 166.546 60.8626 166.655 60.89 166.771C60.9174 166.887 60.9217 167.008 60.9026 167.125C60.1621 171.769 55.1036 173.063 54.8891 173.118C54.8161 173.132 54.742 173.139 54.6677 173.139Z" fill="#ACF75F"/>
<path opacity="0.6" d="M54.6677 173.139C54.4473 173.137 54.2351 173.055 54.0709 172.908C53.9067 172.761 53.8016 172.559 53.7753 172.341C53.749 172.122 53.8033 171.901 53.9281 171.719C54.0528 171.538 54.2395 171.408 54.4531 171.354C54.4947 171.354 58.5567 170.281 59.1103 166.835C59.1294 166.717 59.1715 166.604 59.2341 166.503C59.2968 166.401 59.3788 166.313 59.4755 166.244C59.5722 166.174 59.6817 166.124 59.7978 166.097C59.9138 166.069 60.0341 166.065 60.1518 166.084C60.2694 166.103 60.3822 166.145 60.4836 166.208C60.5851 166.27 60.6731 166.352 60.7429 166.449C60.8126 166.546 60.8626 166.655 60.89 166.771C60.9174 166.887 60.9217 167.008 60.9026 167.125C60.1621 171.769 55.1036 173.063 54.8891 173.118C54.8161 173.132 54.742 173.139 54.6677 173.139Z" fill="black"/>
<path d="M256.731 110.063C256.505 110.071 256.284 109.994 256.112 109.847C255.94 109.699 255.829 109.493 255.801 109.268C255.773 109.044 255.83 108.816 255.962 108.632C256.093 108.447 256.289 108.318 256.51 108.271C256.552 108.271 260.614 107.205 261.167 103.759C261.179 103.634 261.216 103.513 261.276 103.403C261.336 103.294 261.418 103.197 261.517 103.12C261.616 103.044 261.73 102.988 261.851 102.957C261.972 102.926 262.099 102.92 262.223 102.94C262.346 102.96 262.464 103.006 262.57 103.073C262.675 103.141 262.766 103.229 262.836 103.333C262.905 103.437 262.953 103.555 262.975 103.678C262.998 103.801 262.995 103.928 262.966 104.05C262.219 108.693 257.161 109.987 256.946 110.036C256.876 110.055 256.804 110.064 256.731 110.063Z" fill="#ACF75F"/>
<path opacity="0.6" d="M256.731 110.063C256.505 110.071 256.284 109.994 256.112 109.847C255.94 109.699 255.829 109.493 255.801 109.268C255.773 109.044 255.83 108.816 255.962 108.632C256.093 108.447 256.289 108.318 256.51 108.271C256.552 108.271 260.614 107.205 261.167 103.759C261.179 103.634 261.216 103.513 261.276 103.403C261.336 103.294 261.418 103.197 261.517 103.12C261.616 103.044 261.73 102.988 261.851 102.957C261.972 102.926 262.099 102.92 262.223 102.94C262.346 102.96 262.464 103.006 262.57 103.073C262.675 103.141 262.766 103.229 262.836 103.333C262.905 103.437 262.953 103.555 262.975 103.678C262.998 103.801 262.995 103.928 262.966 104.05C262.219 108.693 257.161 109.987 256.946 110.036C256.876 110.055 256.804 110.064 256.731 110.063Z" fill="black"/>
<path d="M293.913 144.566H293.761C293.539 144.524 288.405 143.583 287.346 139.03C287.318 138.913 287.314 138.791 287.334 138.672C287.354 138.554 287.398 138.44 287.462 138.338C287.527 138.236 287.611 138.148 287.71 138.079C287.808 138.011 287.92 137.962 288.038 137.937C288.155 137.91 288.276 137.907 288.395 137.927C288.513 137.948 288.626 137.991 288.728 138.056C288.83 138.12 288.918 138.204 288.987 138.302C289.056 138.4 289.105 138.511 289.131 138.629C289.92 142.019 294.044 142.781 294.086 142.781C294.304 142.827 294.497 142.952 294.63 143.131C294.762 143.311 294.824 143.532 294.805 143.754C294.785 143.976 294.685 144.183 294.523 144.337C294.362 144.49 294.149 144.579 293.927 144.587L293.913 144.566Z" fill="#ACF75F"/>
<path d="M277.692 177.928C276.108 177.953 274.566 177.411 273.347 176.399C273.245 176.326 273.159 176.233 273.095 176.126C273.031 176.019 272.99 175.899 272.974 175.775C272.959 175.651 272.969 175.525 273.004 175.405C273.039 175.285 273.099 175.174 273.179 175.078C273.26 174.983 273.359 174.905 273.471 174.849C273.583 174.794 273.706 174.762 273.83 174.756C273.955 174.75 274.08 174.77 274.197 174.815C274.314 174.859 274.42 174.927 274.509 175.015C277.187 177.243 280.945 175.375 280.986 175.354C281.201 175.244 281.451 175.224 281.68 175.298C281.91 175.372 282.101 175.534 282.211 175.749C282.321 175.963 282.342 176.213 282.268 176.443C282.194 176.672 282.031 176.863 281.817 176.973C280.527 177.587 279.12 177.913 277.692 177.928Z" fill="#ACF75F"/>
<path d="M235.28 64.3564C235.122 64.3576 234.967 64.317 234.83 64.2387C234.643 64.1349 230.124 61.5192 230.678 56.8482C230.705 56.6087 230.827 56.3899 231.016 56.24C231.205 56.0901 231.445 56.0214 231.685 56.0489C231.924 56.0764 232.143 56.198 232.293 56.3868C232.443 56.5756 232.511 56.8163 232.484 57.0558C232.09 60.5158 235.716 62.6402 235.75 62.661C235.926 62.7605 236.064 62.9162 236.142 63.1032C236.219 63.2901 236.232 63.4976 236.178 63.6926C236.124 63.8876 236.006 64.0589 235.843 64.1792C235.68 64.2995 235.482 64.3619 235.28 64.3564Z" fill="#ACF75F"/>
<path d="M54.5225 68.0459C54.4035 68.0509 54.2846 68.0324 54.1727 67.9915C54.0608 67.9506 53.9581 67.888 53.8704 67.8073C53.7827 67.7267 53.7117 67.6296 53.6615 67.5215C53.6113 67.4134 53.5829 67.2965 53.5779 67.1775C53.5729 67.0584 53.5914 66.9396 53.6324 66.8277C53.6733 66.7158 53.7359 66.613 53.8165 66.5253C53.8972 66.4376 53.9943 66.3667 54.1024 66.3165C54.2105 66.2663 54.3274 66.2379 54.4464 66.2329C57.9064 65.9284 59.2904 61.9563 59.2904 61.9148C59.3708 61.694 59.5338 61.513 59.745 61.41C59.9562 61.3071 60.1992 61.2901 60.4227 61.3628C60.6462 61.4355 60.8327 61.5922 60.9429 61.7997C61.0531 62.0073 61.0784 62.2495 61.0135 62.4753C60.9512 62.6899 59.2904 67.6377 54.6056 68.0113L54.5225 68.0459Z" fill="#ACF75F"/>
<path d="M122.041 95.4254C119.584 96.5742 117.419 102.096 118.124 110.027C118.83 117.957 102.402 112.393 100.167 121.279C96.1326 137.361 123.183 147.028 134.712 137.361C141.846 131.382 148.552 111.674 147.569 100.92C146.517 89.3566 128.58 81.5993 122.041 95.4254Z" fill="#3D3D3D"/>
<path d="M147.998 115.716C148.302 115.627 148.745 115.495 149.126 115.37L150.316 114.969C151.112 114.692 151.901 114.388 152.683 114.063C154.241 113.423 155.761 112.695 157.236 111.883C160.127 110.34 162.728 108.308 164.924 105.876C166.882 103.551 168.287 100.382 169.388 97.1293C169.948 95.4962 170.419 93.8147 170.82 92.1054C171.221 90.3962 171.602 88.6454 171.893 86.9639L174.716 87.1369C174.721 90.8791 174.314 94.6106 173.505 98.2642C173.093 100.136 172.536 101.974 171.837 103.759C171.114 105.643 170.143 107.423 168.952 109.053C166.514 112.178 163.491 114.798 160.052 116.768C158.395 117.748 156.675 118.617 154.904 119.37C154.018 119.744 153.126 120.062 152.212 120.401C151.762 120.56 151.306 120.713 150.828 120.851C150.351 120.99 149.928 121.121 149.361 121.259L147.998 115.716Z" fill="#7F3E3B"/>
<path d="M174.702 88.0846L175.878 83.8564L171.207 84.2163C171.207 84.2163 170.875 86.9843 172.488 88.652L174.702 88.0846Z" fill="#7F3E3B"/>
<path d="M176.577 78.9355L172.315 80.0497L171.208 84.2155L175.879 83.8557L176.577 78.9355Z" fill="#7F3E3B"/>
<path d="M142.711 116.795C144.863 114.837 150.323 113.335 150.323 113.335L156.309 122.331C156.309 122.331 149.479 126.891 146.579 125.832C143.562 124.781 140.704 118.615 142.711 116.795Z" fill="#ACF75F"/>
<path d="M122.996 244.751L126.726 248.847L137.431 241.222L133.701 237.125L122.996 244.751Z" fill="#7F3E3B"/>
<path d="M101.945 260.938L106.948 263.422L114.304 252.634L109.301 250.149L101.945 260.938Z" fill="#7F3E3B"/>
<path d="M107.744 262.806L103.883 257.858C103.818 257.772 103.724 257.712 103.618 257.691C103.512 257.669 103.402 257.687 103.308 257.74L98.9558 260.232C98.8481 260.297 98.7556 260.385 98.6843 260.49C98.6131 260.594 98.5648 260.712 98.5425 260.836C98.5203 260.96 98.5247 261.088 98.5553 261.21C98.586 261.333 98.6423 261.447 98.7205 261.546C100.105 263.249 100.845 264.003 102.547 266.183C103.585 267.518 105.703 270.632 107.142 272.48C108.582 274.328 110.491 273.006 110.055 272.106C108.104 268.072 107.979 265.678 108.049 263.754C108.063 263.412 107.955 263.076 107.744 262.806Z" fill="#3D3D3D"/>
<path d="M127.84 248.924L125.293 242.807C125.249 242.697 125.168 242.606 125.066 242.547C124.963 242.488 124.843 242.465 124.726 242.482L119.328 243.174C119.2 243.187 119.077 243.231 118.968 243.302C118.86 243.373 118.77 243.468 118.706 243.58C118.642 243.692 118.605 243.818 118.599 243.947C118.593 244.076 118.618 244.205 118.671 244.323C119.598 246.447 120.159 247.437 121.28 250.128C121.972 251.782 123.577 256.128 124.525 258.432C125.473 260.737 127.909 260.19 127.729 259.18C126.92 254.654 127.196 251.734 127.868 249.955C127.931 249.79 127.962 249.614 127.957 249.437C127.952 249.26 127.912 249.086 127.84 248.924Z" fill="#3D3D3D"/>
<path opacity="0.2" d="M137.424 241.222L131.909 245.152L127.736 241.374L133.694 237.125L137.424 241.222Z" fill="black"/>
<path opacity="0.2" d="M109.301 250.149L114.304 252.634L110.505 258.197L105.502 255.706L109.301 250.149Z" fill="black"/>
<path d="M150.247 117.494C150.247 117.494 150.413 117.245 147.382 150.308L124.753 151.893C124.49 142.662 125.182 136.143 120.871 117.175C124.051 116.535 127.272 116.128 130.511 115.958C133.94 115.729 137.381 115.747 140.808 116.013C145.23 116.435 150.247 117.494 150.247 117.494Z" fill="#ACF75F"/>
<path d="M122.574 122.656C120.892 121.881 119.418 121.051 117.889 120.172C116.36 119.293 114.913 118.352 113.474 117.356C110.544 115.367 107.821 113.09 105.343 110.56L104.43 109.571L104.194 109.322C104.059 109.167 103.932 109.005 103.814 108.837C103.6 108.532 103.414 108.208 103.26 107.868C102.802 106.787 102.567 105.624 102.568 104.45C102.584 102.581 102.835 100.721 103.315 98.914C104.194 95.5329 105.414 92.2498 106.955 89.1152L109.599 90.1394C109.191 91.7102 108.803 93.3434 108.457 94.9419C108.111 96.5404 107.82 98.1528 107.627 99.7305C107.402 101.214 107.342 102.718 107.447 104.215C107.481 104.733 107.613 105.24 107.834 105.709C107.834 105.758 107.903 105.813 107.924 105.82L108.139 106.021L108.99 106.83C111.365 108.982 113.911 110.937 116.602 112.678C117.951 113.571 119.37 114.387 120.754 115.211C122.138 116.034 123.626 116.816 124.975 117.501L122.574 122.656Z" fill="#7F3E3B"/>
<path d="M129.777 118.441C127.21 114.864 122.165 114.919 122.165 114.919L116.083 123.915C116.083 123.915 122.871 128.538 125.771 127.506C128.843 126.413 131.362 120.642 129.777 118.441Z" fill="#ACF75F"/>
<path d="M140.808 116.012L130.511 115.957C128.933 116.594 128.02 120.697 138.469 124.171C145.714 120.054 141.86 116.393 140.808 116.012Z" fill="white"/>
<path d="M131.59 104.367C132.22 107.682 132.836 113.758 130.511 115.958C130.511 115.958 131.41 119.328 138.469 124.172C143.417 119.211 140.808 116.014 140.808 116.014C137.119 115.107 137.23 112.367 137.887 109.786L131.59 104.367Z" fill="#7F3E3B"/>
<path d="M152.932 137.279H152.821C152.456 137.249 152.118 137.076 151.881 136.797C151.643 136.518 151.526 136.156 151.555 135.791C151.804 132.705 149.479 130.373 146.808 127.667C143.742 124.574 140.261 121.065 140.123 115.606C140.114 115.238 140.251 114.883 140.504 114.617C140.757 114.351 141.105 114.196 141.472 114.187C141.839 114.178 142.195 114.315 142.461 114.568C142.727 114.821 142.882 115.169 142.891 115.536C143.002 119.896 145.936 122.858 148.773 125.723C151.61 128.587 154.662 131.66 154.309 136.013C154.28 136.358 154.122 136.679 153.867 136.914C153.612 137.148 153.278 137.279 152.932 137.279Z" fill="#3D3D3D"/>
<path d="M132.705 144.281C132.593 144.281 132.481 144.267 132.373 144.24C132.017 144.152 131.71 143.926 131.521 143.612C131.331 143.298 131.274 142.921 131.362 142.565C132.698 137.14 130.947 132.877 129.092 128.393C127.432 124.366 125.715 120.2 126.546 115.328C126.618 114.975 126.824 114.664 127.121 114.461C127.418 114.258 127.783 114.179 128.138 114.24C128.492 114.301 128.809 114.498 129.021 114.789C129.233 115.08 129.323 115.442 129.272 115.799C128.58 119.881 130.068 123.508 131.646 127.341C133.501 131.832 135.597 136.925 134.047 143.257C133.968 143.552 133.793 143.813 133.55 143.998C133.307 144.183 133.01 144.283 132.705 144.281Z" fill="#3D3D3D"/>
<path opacity="0.2" d="M136.587 108.644L133.819 108.969C133.953 109.714 134.22 110.429 134.607 111.079C135.154 111.903 136.372 112.263 137.576 112.297C137.575 111.441 137.691 110.589 137.922 109.765L136.587 108.644Z" fill="black"/>
<path d="M125.466 101.031C127.494 106.193 128.234 108.421 131.77 110.262C137.085 113.03 142.981 109.425 142.538 103.764C142.143 98.6642 138.898 91.0798 133.064 90.6508C131.78 90.5507 130.491 90.7804 129.32 91.3183C128.149 91.8561 127.135 92.6842 126.373 93.724C125.612 94.7638 125.129 95.9808 124.971 97.2595C124.812 98.5383 124.983 99.8364 125.466 101.031Z" fill="#7F3E3B"/>
<path d="M131.023 89.9047C134.96 92.3267 131.59 106.575 124.926 105.821C118.262 105.066 125.203 86.3271 131.023 89.9047Z" fill="#3D3D3D"/>
<path d="M130.878 89.9586C127.909 91.9308 129.937 95.3632 139.943 93.3287C139.943 93.3218 135.805 86.6786 130.878 89.9586Z" fill="#3D3D3D"/>
<path d="M126.186 106.048C126.623 107.026 127.429 107.792 128.428 108.179C129.763 108.678 130.545 107.487 130.282 106.193C130.04 105.01 129.057 103.315 127.673 103.384C127.371 103.404 127.078 103.5 126.822 103.662C126.566 103.824 126.355 104.048 126.207 104.312C126.059 104.577 125.98 104.874 125.976 105.178C125.972 105.481 126.044 105.78 126.186 106.048Z" fill="#7F3E3B"/>
<path d="M147.396 150.308C147.396 150.308 159.506 189.842 160.482 206.851C161.492 224.545 135.217 245.541 135.217 245.541L128.677 238.365C128.677 238.365 150.025 220.234 147.098 207.1C143.05 188.997 130.788 151.47 130.788 151.47L147.396 150.308Z" fill="#3D3D3D"/>
<path opacity="0.2" d="M139.846 163.249C138.739 159.789 136.276 162.114 135.417 165.781C137.127 171.317 139.106 177.794 140.988 184.278C141.715 178.535 142.012 170.03 139.846 163.249Z" fill="black"/>
<path d="M126.906 238.019L135.203 246.579L138.746 244.621L129.978 235.078L126.906 238.019Z" fill="#ACF75F"/>
<path d="M141.41 150.731C141.41 150.731 137.95 189.483 134.49 211.067C131.687 228.505 112.65 256.988 112.65 256.988L105.675 253.743C105.675 253.743 118.47 223.246 120.463 211.392C126.857 173.45 118.221 162.502 124.76 151.88L141.41 150.731Z" fill="#3D3D3D"/>
<path d="M105.184 253.818L113.052 257.68L115.633 254.476L106.429 250.137L105.184 253.818Z" fill="#ACF75F"/>
<path d="M124.324 150.592L123.446 152.668C123.376 152.827 123.57 152.98 123.833 152.959L147.569 151.298C147.769 151.298 147.935 151.173 147.935 151.042L147.998 148.966C147.998 148.828 147.818 148.724 147.596 148.738L124.677 150.343C124.601 150.346 124.526 150.371 124.464 150.415C124.401 150.459 124.353 150.521 124.324 150.592Z" fill="white"/>
<path d="M127.577 152.93L126.968 152.972C126.843 152.972 126.746 152.923 126.746 152.847L126.85 150.197C126.85 150.121 126.961 150.045 127.078 150.038L127.694 149.996C127.819 149.996 127.916 150.045 127.909 150.121L127.805 152.771C127.805 152.861 127.701 152.93 127.577 152.93Z" fill="#3D3D3D"/>
<path d="M145.86 151.658L145.244 151.699C145.119 151.699 145.022 151.651 145.029 151.575L145.133 148.924C145.133 148.848 145.237 148.779 145.361 148.765L145.97 148.724C146.095 148.724 146.192 148.772 146.192 148.848L146.088 151.505C146.081 151.582 146.012 151.651 145.86 151.658Z" fill="#3D3D3D"/>
<path d="M136.718 152.301L136.102 152.343C135.985 152.343 135.888 152.294 135.888 152.218L135.992 149.561C135.992 149.485 136.096 149.416 136.22 149.409L136.836 149.367C136.954 149.367 137.051 149.416 137.051 149.492L136.947 152.142C136.947 152.239 136.843 152.287 136.718 152.301Z" fill="#3D3D3D"/>
<path d="M133.805 99.0933C133.473 99.204 133.334 99.7023 133.5 100.214L134.711 99.8268C134.545 99.3147 134.137 98.9549 133.805 99.0933Z" fill="#3D3D3D"/>
<path d="M139.092 97.4187C138.753 97.5294 138.615 98.0346 138.781 98.5467L139.999 98.1522C139.784 97.6401 139.39 97.3149 139.092 97.4187Z" fill="#3D3D3D"/>
<path d="M138.919 97.4944L140.033 96.7471C140.033 96.7471 139.715 97.9096 138.919 97.4944Z" fill="#3D3D3D"/>
<path d="M137.708 99.5088C138.403 100.363 139.214 101.118 140.116 101.751C139.949 101.978 139.734 102.166 139.486 102.301C139.239 102.436 138.965 102.515 138.683 102.533L137.708 99.5088Z" fill="#630F0F"/>
<path d="M137.791 104.685C137.811 104.667 137.826 104.644 137.833 104.618C137.841 104.592 137.84 104.565 137.832 104.539C137.821 104.506 137.798 104.479 137.766 104.463C137.735 104.448 137.699 104.445 137.666 104.456C137.137 104.64 136.572 104.696 136.017 104.622C135.462 104.547 134.932 104.344 134.469 104.027C134.457 104.015 134.442 104.005 134.426 103.998C134.41 103.992 134.393 103.988 134.376 103.988C134.358 103.988 134.341 103.992 134.325 103.998C134.309 104.005 134.295 104.015 134.282 104.027C134.269 104.039 134.259 104.053 134.251 104.069C134.244 104.086 134.24 104.103 134.24 104.121C134.24 104.138 134.244 104.156 134.251 104.172C134.259 104.188 134.269 104.202 134.282 104.214C134.777 104.568 135.35 104.798 135.953 104.882C136.555 104.966 137.169 104.903 137.742 104.698L137.791 104.685Z" fill="#3D3D3D"/>
<path d="M132.054 98.7828C132.089 98.7536 132.116 98.7153 132.131 98.6721C132.226 98.35 132.398 98.0558 132.631 97.8148C132.865 97.5737 133.154 97.393 133.473 97.2881C133.507 97.2799 133.538 97.2652 133.566 97.2448C133.594 97.2244 133.618 97.1986 133.636 97.1691C133.654 97.1395 133.666 97.1067 133.671 97.0725C133.676 97.0383 133.675 97.0034 133.667 96.9698C133.659 96.9362 133.644 96.9045 133.623 96.8765C133.603 96.8486 133.577 96.825 133.548 96.807C133.518 96.789 133.485 96.777 133.451 96.7717C133.417 96.7664 133.382 96.7678 133.348 96.776C132.947 96.9024 132.582 97.1228 132.284 97.4189C131.985 97.715 131.762 98.0783 131.632 98.4783C131.61 98.5444 131.616 98.6165 131.647 98.6788C131.678 98.741 131.732 98.7884 131.798 98.8105C131.84 98.8296 131.885 98.8372 131.93 98.8323C131.975 98.8274 132.018 98.8103 132.054 98.7828Z" fill="#3D3D3D"/>
<path d="M140.344 95.3645C140.359 95.3567 140.371 95.3446 140.378 95.3299C140.401 95.3028 140.417 95.2715 140.427 95.2379C140.437 95.2043 140.44 95.1691 140.436 95.1343C140.432 95.0995 140.422 95.0658 140.405 95.0352C140.388 95.0046 140.365 94.9778 140.337 94.9562C140.013 94.6884 139.63 94.5016 139.22 94.4113C138.81 94.3211 138.384 94.3299 137.977 94.4372C137.944 94.4481 137.913 94.4656 137.886 94.4887C137.86 94.5118 137.838 94.54 137.822 94.5716C137.807 94.6032 137.798 94.6376 137.796 94.6728C137.794 94.7079 137.799 94.7431 137.811 94.7763C137.835 94.8412 137.882 94.8946 137.944 94.9255C138.006 94.9564 138.077 94.9624 138.143 94.9423C138.465 94.8596 138.802 94.8554 139.126 94.93C139.45 95.0047 139.752 95.1561 140.005 95.3714C140.053 95.4104 140.114 95.4312 140.176 95.4299C140.238 95.4286 140.297 95.4055 140.344 95.3645Z" fill="#3D3D3D"/>
<path d="M112.623 91.1566C112.455 91.1562 112.29 91.1108 112.145 91.0252L91.0948 78.0571C90.9103 77.9212 90.7836 77.7208 90.7399 77.4958C90.6962 77.2709 90.7387 77.0377 90.8589 76.8425C90.9791 76.6474 91.1683 76.5046 91.3889 76.4424C91.6095 76.3803 91.8454 76.4033 92.0498 76.507L113.1 89.4751C113.27 89.578 113.401 89.7339 113.474 89.9186C113.547 90.1034 113.557 90.3068 113.502 90.4978C113.448 90.6887 113.333 90.8566 113.174 90.9756C113.015 91.0947 112.821 91.1582 112.623 91.1566Z" fill="#ACF75F"/>
<path d="M95.8627 79.4892C97.046 79.4408 98.2639 79.3854 98.4231 78.3197C98.5822 77.2541 97.4404 76.8458 96.3471 76.4444L96.0495 76.3337C96.0495 76.2299 96.0011 76.1261 95.9734 76.0292L96.2156 75.7593C96.9906 74.9013 97.8003 74.0155 97.1706 73.1713C96.5408 72.327 95.4613 72.8253 94.4026 73.3166L94.0773 73.4688C93.9874 73.4065 93.8974 73.3581 93.8005 73.3027C93.7036 73.2474 93.8005 73.0813 93.8005 72.9844C93.7452 71.808 93.6898 70.5901 92.631 70.4309C91.5723 70.2718 91.1571 71.4136 90.7557 72.5069C90.7211 72.5969 90.6865 72.7007 90.645 72.8045L90.3336 72.8806L90.0706 72.6453C89.2126 71.8634 88.3268 71.0607 87.4826 71.6835C86.6383 72.3063 87.1366 73.3927 87.6279 74.4515L87.7801 74.7767C87.7198 74.8635 87.6643 74.9536 87.614 75.0466H87.2957C86.1193 75.1019 84.8945 75.1573 84.7353 76.223C84.5761 77.2887 85.7249 77.6969 86.8113 78.0983L87.1089 78.209C87.1089 78.3128 87.1573 78.4166 87.185 78.5135C87.102 78.6104 87.0189 78.7073 86.9428 78.7834C86.1678 79.6415 85.365 80.5203 85.9878 81.3715C86.6106 82.2226 87.6971 81.7105 88.7558 81.2261L89.088 81.0739L89.3579 81.24C89.3579 81.3507 89.3579 81.4614 89.3579 81.5583C89.4132 82.7347 89.4686 83.9526 90.5274 84.1118C91.5861 84.2709 92.0082 83.1291 92.4096 82.0358C92.4096 81.9527 92.4788 81.8489 92.5134 81.7382C92.6187 81.7194 92.7227 81.694 92.8248 81.6621L93.0947 81.9043C93.9458 82.6793 94.8316 83.489 95.6828 82.8662C96.5339 82.2434 96.0218 81.1569 95.5305 80.0982C95.489 80.0082 95.4336 79.8906 95.3852 79.7729L95.5513 79.5031L95.8627 79.4892Z" fill="#ACF75F"/>
<path opacity="0.7" d="M95.8627 79.4892C97.046 79.4408 98.2639 79.3854 98.4231 78.3197C98.5822 77.2541 97.4404 76.8458 96.3471 76.4444L96.0495 76.3337C96.0495 76.2299 96.0011 76.1261 95.9734 76.0292L96.2156 75.7593C96.9906 74.9013 97.8003 74.0155 97.1706 73.1713C96.5408 72.327 95.4613 72.8253 94.4026 73.3166L94.0773 73.4688C93.9874 73.4065 93.8974 73.3581 93.8005 73.3027C93.7036 73.2474 93.8005 73.0813 93.8005 72.9844C93.7452 71.808 93.6898 70.5901 92.631 70.4309C91.5723 70.2718 91.1571 71.4136 90.7557 72.5069C90.7211 72.5969 90.6865 72.7007 90.645 72.8045L90.3336 72.8806L90.0706 72.6453C89.2126 71.8634 88.3268 71.0607 87.4826 71.6835C86.6383 72.3063 87.1366 73.3927 87.6279 74.4515L87.7801 74.7767C87.7198 74.8635 87.6643 74.9536 87.614 75.0466H87.2957C86.1193 75.1019 84.8945 75.1573 84.7353 76.223C84.5761 77.2887 85.7249 77.6969 86.8113 78.0983L87.1089 78.209C87.1089 78.3128 87.1573 78.4166 87.185 78.5135C87.102 78.6104 87.0189 78.7073 86.9428 78.7834C86.1678 79.6415 85.365 80.5203 85.9878 81.3715C86.6106 82.2226 87.6971 81.7105 88.7558 81.2261L89.088 81.0739L89.3579 81.24C89.3579 81.3507 89.3579 81.4614 89.3579 81.5583C89.4132 82.7347 89.4686 83.9526 90.5274 84.1118C91.5861 84.2709 92.0082 83.1291 92.4096 82.0358C92.4096 81.9527 92.4788 81.8489 92.5134 81.7382C92.6187 81.7194 92.7227 81.694 92.8248 81.6621L93.0947 81.9043C93.9458 82.6793 94.8316 83.489 95.6828 82.8662C96.5339 82.2434 96.0218 81.1569 95.5305 80.0982C95.489 80.0082 95.4336 79.8906 95.3852 79.7729L95.5513 79.5031L95.8627 79.4892Z" fill="white"/>
<path d="M106.34 91.3778L105.475 85.8418L111.121 88.6098C110.909 89.5418 110.427 90.391 109.737 91.0526C109.453 91.3759 109.084 91.6125 108.671 91.7349C108.259 91.8574 107.82 91.8607 107.405 91.7446L106.34 91.3778Z" fill="#7F3E3B"/>
<path d="M108.644 83.1289L111.537 85.6686L111.121 88.5749L105.475 85.8346L108.644 83.1289Z" fill="#7F3E3B"/>
<path d="M109.557 265.457C109.616 265.415 109.671 265.369 109.723 265.318C109.782 265.264 109.826 265.195 109.849 265.119C109.872 265.042 109.874 264.96 109.855 264.882C109.689 264.19 107.779 263.498 107.564 263.45C107.54 263.44 107.514 263.438 107.489 263.444C107.464 263.45 107.442 263.464 107.426 263.485C107.411 263.506 107.404 263.531 107.404 263.557C107.404 263.583 107.411 263.608 107.426 263.63C107.737 264.322 108.36 265.457 109.059 265.574C109.234 265.6 109.412 265.558 109.557 265.457ZM107.779 263.81C108.533 264.094 109.509 264.578 109.599 264.945C109.605 264.979 109.602 265.015 109.59 265.048C109.578 265.081 109.557 265.11 109.529 265.132C109.477 265.199 109.408 265.251 109.329 265.284C109.25 265.316 109.164 265.328 109.08 265.318C108.699 265.249 108.228 264.696 107.779 263.81Z" fill="#ACF75F"/>
<path d="M109.91 263.609C109.955 263.582 109.995 263.547 110.028 263.505C110.095 263.423 110.132 263.321 110.132 263.215C110.132 263.109 110.095 263.006 110.028 262.924C109.976 262.836 109.906 262.761 109.823 262.704C109.739 262.647 109.644 262.608 109.543 262.592C108.748 262.446 107.467 263.429 107.419 263.471C107.401 263.486 107.387 263.505 107.379 263.527C107.37 263.548 107.368 263.572 107.371 263.595C107.374 263.617 107.383 263.638 107.397 263.656C107.41 263.674 107.427 263.689 107.447 263.699C108.252 263.969 109.127 263.937 109.91 263.609ZM107.834 263.505C108.308 263.119 108.892 262.891 109.502 262.855C109.566 262.863 109.626 262.885 109.679 262.922C109.732 262.958 109.776 263.006 109.806 263.062C109.896 263.208 109.855 263.284 109.806 263.332C109.557 263.63 108.422 263.685 107.793 263.526L107.834 263.505Z" fill="#ACF75F"/>
<path d="M127.964 252.06C128.105 252.493 128.379 252.871 128.746 253.139C128.85 253.2 128.966 253.238 129.085 253.248C129.205 253.259 129.326 253.243 129.438 253.202C129.506 253.183 129.566 253.145 129.614 253.094C129.662 253.043 129.694 252.98 129.708 252.911C129.853 252.219 128.04 250.51 127.674 250.143C127.651 250.128 127.625 250.12 127.598 250.12C127.57 250.12 127.544 250.128 127.521 250.143C127.497 250.156 127.478 250.177 127.467 250.202C127.456 250.227 127.453 250.255 127.459 250.281C127.561 250.891 127.731 251.487 127.964 252.06ZM129.404 252.579C129.443 252.658 129.46 252.747 129.452 252.835C129.452 252.869 129.452 252.904 129.355 252.932C129.274 252.963 129.188 252.975 129.101 252.968C129.015 252.961 128.932 252.934 128.857 252.89C128.435 252.641 128.047 251.811 127.798 250.634C128.428 251.198 128.97 251.853 129.404 252.579Z" fill="#ACF75F"/>
<path d="M127.487 250.33C127.485 250.344 127.485 250.358 127.487 250.372C128.054 250.946 129.75 251.873 130.297 251.555C130.414 251.486 130.539 251.334 130.442 251.001C130.089 249.728 127.674 250.13 127.556 250.15C127.532 250.153 127.509 250.164 127.491 250.18C127.472 250.196 127.459 250.217 127.452 250.24C127.453 250.273 127.465 250.305 127.487 250.33ZM130.186 250.988L130.22 251.071C130.22 251.209 130.22 251.292 130.22 251.327C129.902 251.507 128.622 250.912 127.944 250.372C128.511 250.309 129.881 250.254 130.186 250.988Z" fill="#ACF75F"/>
<path d="M133.667 99.1693L134.781 98.415C134.781 98.415 134.462 99.5845 133.667 99.1693Z" fill="#3D3D3D"/>
<path d="M224.132 280.448L218.769 280.455L217.323 268.04L222.686 268.033L224.132 280.448Z" fill="#FFC3BD"/>
<path d="M270.295 257.406L266.233 260.914L257.037 252.451L261.092 248.942L270.295 257.406Z" fill="#FFC3BD"/>
<path d="M265.445 260.775L270.385 256.498C270.466 256.431 270.568 256.395 270.673 256.395C270.777 256.395 270.879 256.431 270.96 256.498L274.724 259.501C274.816 259.579 274.89 259.675 274.94 259.784C274.991 259.893 275.017 260.011 275.017 260.131C275.017 260.251 274.991 260.37 274.94 260.478C274.89 260.587 274.816 260.684 274.724 260.761C273.112 262.11 271.873 263.017 269.88 264.747C268.649 265.812 265.036 269.162 263.334 270.636C261.632 272.11 260.019 270.553 260.566 269.791C263.126 266.387 264.718 263.37 264.967 261.577C265.028 261.263 265.197 260.979 265.445 260.775Z" fill="#3D3D3D"/>
<path d="M218.803 279.833H224.665C224.771 279.834 224.874 279.87 224.957 279.937C225.04 280.003 225.098 280.096 225.121 280.2L226.187 284.968C226.213 285.083 226.213 285.202 226.186 285.317C226.16 285.432 226.108 285.539 226.034 285.631C225.96 285.723 225.866 285.797 225.76 285.847C225.653 285.898 225.537 285.923 225.419 285.923C223.301 285.888 220.25 285.77 217.592 285.77C214.492 285.77 212.672 285.853 209.032 285.86C206.832 285.86 206.216 283.639 207.136 283.438C211.33 282.511 213.89 282.504 217.516 280.262C217.897 280.002 218.343 279.853 218.803 279.833Z" fill="#3D3D3D"/>
<path d="M201.372 126.298C200.292 125.882 199.365 125.502 198.396 125.059C197.428 124.616 196.493 124.18 195.552 123.716C193.675 122.794 191.829 121.765 190.016 120.63C188.192 119.512 186.437 118.282 184.764 116.949C184.342 116.603 183.913 116.257 183.498 115.904L182.266 114.776C181.858 114.402 181.47 113.973 181.076 113.572C180.875 113.35 180.702 113.191 180.473 112.928C180.245 112.665 180.024 112.409 179.823 112.146C179.066 111.146 178.423 110.064 177.906 108.921C177.425 107.878 177.016 106.803 176.681 105.704C176.045 103.628 175.582 101.503 175.297 99.351C174.751 95.208 174.647 91.0186 174.986 86.8535H179.013C179.29 88.7288 179.581 90.701 179.961 92.5971C180.342 94.4932 180.743 96.3893 181.235 98.2161C181.699 100.001 182.287 101.751 182.992 103.455C183.578 104.961 184.403 106.363 185.435 107.607L185.774 107.953C185.878 108.063 186.086 108.229 186.238 108.368C186.57 108.652 186.875 108.949 187.227 109.219C187.919 109.773 188.611 110.319 189.386 110.845C190.881 111.883 192.459 112.873 194.106 113.8C195.753 114.727 197.434 115.606 199.144 116.437C200.002 116.859 200.867 117.274 201.732 117.661C202.597 118.049 203.503 118.457 204.278 118.789L201.372 126.298Z" fill="#FFC3BD"/>
<path d="M202.23 130.865C199.176 128.967 196.292 126.809 193.608 124.416L195.746 113.489C199.722 114.62 203.764 115.503 207.849 116.133C214.596 117.005 207.04 133.73 202.23 130.865Z" fill="#3D3D3D"/>
<path d="M179.152 87.7949L179.532 80.9648L173.858 82.7848C173.858 82.7848 172.536 87.6772 176.218 88.9644L179.152 87.7949Z" fill="#FFC3BD"/>
<path d="M178.847 77.291L174.163 79.2425L173.858 82.7855L179.533 80.9655L178.847 77.291Z" fill="#FFC3BD"/>
<path opacity="0.2" d="M217.329 268.04L218.07 274.441L223.433 274.434L222.692 268.033L217.329 268.04Z" fill="black"/>
<path opacity="0.2" d="M261.099 248.942L257.037 252.451L261.784 256.81L265.839 253.302L261.099 248.942Z" fill="black"/>
<path d="M228.47 115.912C228.482 115.532 228.419 115.154 228.284 114.798C228.149 114.443 227.945 114.118 227.684 113.842C227.423 113.566 227.11 113.345 226.762 113.19C226.415 113.036 226.041 112.952 225.661 112.943C210.354 112.659 200.396 116.95 199.711 117.227C199.455 117.33 199.23 117.496 199.057 117.711C198.884 117.925 198.768 118.18 198.721 118.451C198.085 122.285 196.279 138.353 205.129 163.501L233.501 159.439C233.121 155.252 227.834 136.042 228.47 115.912Z" fill="#3D3D3D"/>
<path d="M205.524 115.295C203.842 117.544 203.081 122.727 208.651 126.519C215.502 121.405 219.031 115.904 220.076 113.039C215.16 113.286 210.283 114.042 205.524 115.295Z" fill="white"/>
<path d="M204.25 117.4C203.883 117.4 203.531 117.254 203.272 116.995C203.012 116.735 202.866 116.383 202.866 116.016C202.866 114.874 203.856 113.892 204.693 113.248C207.503 111.172 212.997 109.587 219.917 111.587C220.257 111.699 220.541 111.939 220.708 112.256C220.875 112.573 220.913 112.942 220.813 113.286C220.714 113.63 220.485 113.922 220.175 114.101C219.864 114.279 219.497 114.331 219.149 114.244C211.122 111.926 206.174 115.22 205.641 116.168C205.604 116.51 205.44 116.825 205.183 117.052C204.926 117.28 204.594 117.404 204.25 117.4Z" fill="#ACF75F"/>
<path d="M215.751 99.8857C215.544 103.879 215.8 111.103 218.886 113.304C217.073 115.705 214.658 118.521 210.07 119.345C207.302 119.836 206.354 118.812 206.236 117.518C206.198 116.894 206.335 116.271 206.634 115.722C206.933 115.172 207.38 114.718 207.925 114.411C210.907 112.681 210.312 109.899 209.24 107.269L215.751 99.8857Z" fill="#FFC3BD"/>
<path d="M203.829 149.148C203.673 149.147 203.518 149.119 203.372 149.065C203.026 148.943 202.743 148.688 202.585 148.357C202.426 148.026 202.406 147.646 202.528 147.3C202.72 146.816 202.809 146.297 202.79 145.776C202.771 145.256 202.644 144.745 202.417 144.276L202.272 143.882C202.036 143.417 201.722 142.996 201.344 142.636C200.535 141.987 199.975 141.077 199.759 140.062C199.543 139.047 199.685 137.988 200.161 137.065C200.331 136.671 200.432 136.249 200.459 135.82C200.327 135.327 200.114 134.859 199.829 134.436C199.258 133.619 198.92 132.662 198.853 131.668C198.931 130.628 199.309 129.633 199.94 128.803C200.178 128.488 200.364 128.138 200.493 127.765C200.498 127.38 200.423 126.998 200.272 126.644C199.939 125.857 199.857 124.988 200.037 124.153C200.317 123.211 200.895 122.386 201.684 121.8C201.906 121.632 202.1 121.428 202.258 121.198C202.357 120.864 202.357 120.508 202.258 120.174C202.047 119.372 202.159 118.52 202.569 117.8C203.054 117.039 203.005 116.845 202.964 116.686C202.894 116.443 202.863 116.191 202.874 115.939C202.874 115.572 203.02 115.22 203.279 114.96C203.539 114.701 203.891 114.555 204.258 114.555C204.625 114.555 204.977 114.701 205.236 114.96C205.496 115.22 205.642 115.572 205.642 115.939V115.98C205.836 116.762 205.891 117.696 204.95 119.226C204.961 119.388 204.982 119.55 205.012 119.71C205.221 120.471 205.19 121.278 204.924 122.021C204.657 122.764 204.169 123.407 203.524 123.862C203.081 124.25 202.832 124.485 202.735 124.824C202.721 125.144 202.785 125.462 202.922 125.751C203.216 126.491 203.332 127.29 203.261 128.083C203.108 128.878 202.777 129.628 202.293 130.277C201.971 130.682 201.749 131.155 201.642 131.661C201.754 132.145 201.958 132.604 202.244 133.01C202.742 133.754 203.079 134.593 203.234 135.474C203.272 136.307 203.128 137.138 202.812 137.91C202.586 138.402 202.48 138.94 202.5 139.481C202.718 139.96 203.031 140.391 203.42 140.747C204.061 141.373 204.569 142.121 204.915 142.947L205.04 143.307C205.721 144.854 205.763 146.608 205.157 148.186C205.067 148.467 204.89 148.712 204.651 148.885C204.412 149.058 204.124 149.15 203.829 149.148Z" fill="#ACF75F"/>
<path d="M228.215 115.684C228.969 116.376 229.599 116.957 230.236 117.621C230.872 118.286 231.495 118.929 232.111 119.593C233.343 120.922 234.505 122.32 235.626 123.745C237.962 126.7 239.917 129.936 241.446 133.378C241.831 134.299 242.169 135.239 242.456 136.194C242.602 136.679 242.726 137.184 242.844 137.696L242.885 137.883L242.948 138.208C242.989 138.423 243.01 138.651 243.031 138.9C243.064 139.362 243.05 139.825 242.989 140.284C242.887 141.111 242.636 141.913 242.249 142.651C241.925 143.265 241.533 143.841 241.079 144.367C240.329 145.224 239.465 145.973 238.512 146.595C236.885 147.66 235.132 148.52 233.294 149.156C232.422 149.474 231.543 149.744 230.658 149.972C229.772 150.201 228.914 150.415 227.952 150.574L226.706 146.747C227.398 146.36 228.139 145.952 228.838 145.536C229.537 145.121 230.222 144.685 230.914 144.249C232.2 143.436 233.411 142.51 234.533 141.481C234.963 141.067 235.342 140.602 235.661 140.097C235.903 139.703 235.882 139.44 235.813 139.523C235.808 139.546 235.808 139.569 235.813 139.592L235.772 139.468C235.668 139.149 235.571 138.824 235.432 138.492C235.176 137.817 234.883 137.156 234.554 136.513C233.859 135.146 233.068 133.83 232.187 132.575C231.308 131.274 230.339 130.001 229.315 128.755C228.291 127.51 227.239 126.285 226.125 125.074C225.578 124.472 225.018 123.884 224.45 123.303C223.883 122.721 223.288 122.112 222.783 121.628L228.215 115.684Z" fill="#FFC3BD"/>
<path d="M226.429 113.061C229.557 113.524 234.463 121.365 234.463 121.365L226.498 132.042C226.498 132.042 222.249 127.994 221.011 124.43C218.672 117.593 220.284 112.161 226.429 113.061Z" fill="#3D3D3D"/>
<path d="M222.256 139.938C222.016 139.935 221.78 139.87 221.573 139.749C221.365 139.627 221.193 139.454 221.073 139.246C220.597 138.315 220.391 137.27 220.478 136.229C220.515 135.799 220.477 135.366 220.367 134.949C220.09 134.519 219.741 134.14 219.336 133.828C218.539 133.235 217.92 132.436 217.544 131.516C217.287 130.506 217.333 129.442 217.675 128.458C217.801 128.083 217.869 127.691 217.876 127.295C217.702 126.82 217.449 126.378 217.129 125.987C216.416 125.255 215.998 124.284 215.956 123.263C215.914 122.241 216.25 121.24 216.9 120.451C217.088 120.169 217.239 119.865 217.35 119.545C217.314 119.02 217.188 118.505 216.976 118.022C216.581 117.206 216.446 116.288 216.589 115.393C216.847 114.119 217.49 112.955 218.43 112.057L218.52 111.967C218.778 111.722 219.121 111.586 219.477 111.587C219.833 111.588 220.175 111.726 220.432 111.973C220.689 112.22 220.84 112.557 220.855 112.913C220.87 113.269 220.748 113.617 220.512 113.884L220.353 114.043C219.788 114.589 219.408 115.298 219.267 116.071C219.342 116.418 219.446 116.758 219.578 117.088C219.941 117.926 220.123 118.832 220.111 119.745C220.004 120.503 219.722 121.226 219.288 121.856C218.988 122.265 218.791 122.739 218.713 123.24C218.876 123.668 219.11 124.066 219.405 124.416C219.965 125.111 220.372 125.915 220.602 126.776C220.708 127.579 220.63 128.395 220.374 129.164C220.199 129.651 220.135 130.171 220.187 130.686C220.45 131.11 220.79 131.481 221.191 131.779C221.894 132.333 222.476 133.025 222.9 133.814C223.199 134.591 223.322 135.426 223.26 136.257C223.208 136.795 223.277 137.339 223.46 137.848C223.648 138.163 223.703 138.54 223.614 138.895C223.524 139.25 223.297 139.556 222.983 139.744C222.763 139.875 222.512 139.942 222.256 139.938Z" fill="#ACF75F"/>
<path opacity="0.2" d="M213.094 102.896L209.247 107.262C209.537 107.933 209.768 108.627 209.939 109.338C211.558 108.861 213.572 106.722 213.503 104.965C213.492 104.256 213.354 103.555 213.094 102.896Z" fill="black"/>
<path d="M205.005 88.528C203.295 91.5036 204.389 95.7387 204.389 95.7387C204.847 96.0368 205.377 96.2068 205.923 96.2312C206.47 96.2555 207.013 96.1333 207.496 95.8771L207.011 87.9883L205.005 88.528Z" fill="#3D3D3D"/>
<path d="M218.478 96.086C217.17 101.248 216.665 104.335 213.523 106.514C208.797 109.794 202.804 106.182 202.548 100.736C202.313 95.8299 204.493 88.2179 210.001 87.1107C211.213 86.8597 212.469 86.9229 213.649 87.2943C214.829 87.6657 215.895 88.3329 216.745 89.2325C217.594 90.1321 218.2 91.2341 218.503 92.4337C218.806 93.6333 218.798 94.8906 218.478 96.086Z" fill="#FFC3BD"/>
<path d="M203.407 102.092H203.22L191.491 99.6077C190.853 99.4728 190.295 99.0901 189.939 98.5438C189.584 97.9974 189.46 97.3322 189.594 96.6944C189.729 96.0566 190.112 95.4986 190.658 95.143C191.205 94.7874 191.87 94.6634 192.508 94.7983C192.624 94.823 192.734 94.8703 192.832 94.9376C192.929 95.005 193.013 95.0909 193.077 95.1906C193.141 95.2903 193.185 95.4018 193.206 95.5185C193.227 95.6353 193.225 95.755 193.2 95.8709C193.148 96.1044 193.007 96.3081 192.806 96.4377C192.605 96.5673 192.361 96.6123 192.127 96.5629C192.045 96.5429 191.959 96.5406 191.875 96.5561C191.792 96.5716 191.713 96.6046 191.643 96.6529C191.573 96.6983 191.512 96.7572 191.464 96.826C191.417 96.8949 191.383 96.9724 191.366 97.0542C191.336 97.2213 191.368 97.3937 191.456 97.5386C191.552 97.6765 191.694 97.7749 191.857 97.8154L203.587 100.3C203.805 100.347 203.998 100.473 204.128 100.654C204.259 100.835 204.319 101.058 204.296 101.279C204.272 101.501 204.168 101.707 204.003 101.857C203.838 102.007 203.623 102.091 203.4 102.092H203.407Z" fill="#ACF75F"/>
<path d="M203.358 102.301L201.939 101.997L202.389 99.9209L203.773 100.218C204.053 100.278 204.297 100.447 204.453 100.687C204.609 100.927 204.663 101.219 204.603 101.499C204.534 101.764 204.368 101.994 204.137 102.143C203.907 102.292 203.628 102.348 203.358 102.301Z" fill="white"/>
<path d="M215.274 93.2483C215.274 91.283 213.793 89.8506 208.852 90.2312C204.818 90.5357 202.853 88.6534 204.008 86.0307C207.275 87.7331 206.735 85.5048 212.963 85.2349C219.191 84.9651 220.997 87.3109 221.654 90.9578C225.467 96.6114 218.886 98.9573 218.886 98.9573L216.312 101.206C215.779 101.328 215.223 101.304 214.702 101.137C214.181 100.97 213.714 100.667 213.35 100.258C213.35 100.258 212.845 95.6703 215.274 93.2483Z" fill="#3D3D3D"/>
<path d="M208.659 84.2599L208.5 84.3429C208.352 84.4218 208.227 84.5383 208.138 84.6806C208.049 84.823 208 84.9862 207.994 85.1539C207.989 85.3215 208.027 85.4877 208.106 85.6357C208.185 85.7837 208.302 85.9082 208.444 85.9968L222.893 94.9305C223.029 95.0138 223.184 95.0618 223.343 95.0701C223.502 95.0783 223.661 95.0466 223.805 94.9778C223.948 94.909 224.073 94.8053 224.166 94.6762C224.26 94.5471 224.319 94.3966 224.34 94.2385C224.407 93.7923 224.342 93.336 224.153 92.9263C223.963 92.5167 223.658 92.1717 223.274 91.9342L210.956 84.3222C210.612 84.1123 210.219 83.9961 209.816 83.9852C209.413 83.9743 209.014 84.069 208.659 84.2599Z" fill="#ACF75F"/>
<path d="M211.26 85.2149L214.956 79.8034C215.061 79.6492 215.222 79.5411 215.405 79.5013C215.587 79.4614 215.778 79.4927 215.938 79.5889L226.138 85.6993C226.228 85.7515 226.305 85.8221 226.365 85.9065C226.425 85.9909 226.466 86.087 226.485 86.1886C226.505 86.2901 226.503 86.3947 226.479 86.4952C226.455 86.5958 226.409 86.6902 226.346 86.7719L221.924 92.6124L211.26 85.2149Z" fill="#ACF75F"/>
<path d="M211.26 85.2146L212.734 82.5781L224.125 90.1071L221.924 92.6121L211.26 85.2146Z" fill="#ACF75F"/>
<path opacity="0.6" d="M211.26 85.2146L212.734 82.5781L224.125 90.1071L221.924 92.6121L211.26 85.2146Z" fill="white"/>
<path d="M219.136 102.418C218.124 103.109 216.882 103.377 215.676 103.166C214.105 102.861 214.105 101.27 215.191 100.142C216.167 99.1245 218.167 98.0657 219.426 98.9445C220.686 99.8234 220.388 101.553 219.136 102.418Z" fill="#FFC3BD"/>
<path d="M216.056 273.21H225.135C225.135 273.21 223.71 240.922 221.751 224.328C221.156 219.276 221.8 212.356 221.862 204.626C221.945 194.89 222.395 184.281 222.838 175.957C223.308 167.189 223.703 160.871 223.703 160.871L205.129 163.521C205.129 163.521 203.289 209.491 206.174 225.601C209.178 242.333 216.056 273.21 216.056 273.21Z" fill="#ACF75F"/>
<path opacity="0.2" d="M221.862 204.606C221.945 194.87 222.395 184.261 222.838 175.937L220.07 172.234C216.651 178.635 219.025 195.679 221.862 204.606Z" fill="black"/>
<path d="M213.98 162.234C213.98 162.234 225.516 207.789 230.996 222.521C236.996 238.645 259.091 257.495 259.091 257.495L264.676 251.35C264.676 251.35 252.988 233.13 244.373 215.601C240.255 192.841 233.529 159.438 233.529 159.438L213.98 162.234Z" fill="#ACF75F"/>
<path d="M258.344 258.421L267.098 250.858L264.835 248.249L254.905 256.532L258.344 258.421Z" fill="#3D3D3D"/>
<path d="M214.914 273.419L225.737 273.405L225.73 269.91L213.641 269.744L214.914 273.419Z" fill="#3D3D3D"/>
<path d="M210.506 95.0756C210.16 94.9718 209.752 95.304 209.586 95.823L210.818 96.2174C210.984 95.6984 210.845 95.1863 210.506 95.0756Z" fill="#3D3D3D"/>
<path d="M205.109 94.0586C204.756 94.0586 204.417 94.46 204.417 95.0066L205.704 95.0897C205.725 94.543 205.469 94.114 205.109 94.0586Z" fill="#3D3D3D"/>
<path d="M206.97 95.6357C206.217 96.839 205.301 97.9333 204.251 98.8881C204.503 99.1502 204.81 99.354 205.149 99.4855C205.489 99.6169 205.853 99.6729 206.216 99.6493L206.97 95.6357Z" fill="#ED847E"/>
<path d="M212.264 94.522C212.307 94.5323 212.352 94.5323 212.395 94.522C212.459 94.5014 212.512 94.4564 212.543 94.3969C212.575 94.3373 212.581 94.268 212.561 94.2037C212.454 93.8153 212.254 93.4584 211.98 93.1633C211.705 92.8683 211.363 92.6436 210.984 92.5083C210.952 92.4978 210.918 92.494 210.885 92.4972C210.852 92.5003 210.819 92.5103 210.79 92.5266C210.761 92.5428 210.735 92.565 210.715 92.5916C210.695 92.6182 210.68 92.6488 210.672 92.6813C210.663 92.7131 210.66 92.7465 210.663 92.7795C210.667 92.8125 210.677 92.8444 210.693 92.8734C210.709 92.9024 210.731 92.9279 210.757 92.9484C210.783 92.9689 210.813 92.984 210.845 92.9927C211.146 93.1085 211.415 93.2945 211.629 93.5352C211.843 93.776 211.997 94.0645 212.077 94.3767C212.095 94.4136 212.121 94.4458 212.154 94.471C212.186 94.4961 212.224 94.5136 212.264 94.522Z" fill="#3D3D3D"/>
<path d="M203.51 93.3323C203.552 93.3393 203.594 93.336 203.634 93.3227C203.674 93.3095 203.71 93.2866 203.739 93.2562C203.947 93.0159 204.209 92.8281 204.504 92.7079C204.798 92.5876 205.117 92.5384 205.434 92.5642C205.501 92.5741 205.569 92.5571 205.624 92.5169C205.678 92.4767 205.714 92.4166 205.725 92.3496C205.735 92.2845 205.718 92.2181 205.679 92.1649C205.64 92.1117 205.582 92.0761 205.517 92.0659C205.116 92.0263 204.711 92.0835 204.336 92.2328C203.962 92.3822 203.629 92.6192 203.365 92.924C203.341 92.9473 203.321 92.9752 203.308 93.0061C203.295 93.037 203.288 93.0703 203.288 93.1039C203.288 93.1375 203.295 93.1708 203.308 93.2017C203.321 93.2327 203.341 93.2606 203.365 93.2838C203.408 93.313 203.458 93.3298 203.51 93.3323Z" fill="#3D3D3D"/>
<path d="M264.683 262.67C265.035 262.349 265.351 261.989 265.624 261.598C265.638 261.577 265.645 261.553 265.645 261.529C265.645 261.504 265.638 261.48 265.624 261.459C265.614 261.436 265.595 261.418 265.573 261.406C265.55 261.395 265.524 261.392 265.5 261.397C265.278 261.397 263.306 261.722 263.05 262.352C263.022 262.421 263.012 262.496 263.021 262.57C263.031 262.645 263.06 262.715 263.105 262.774C263.171 262.881 263.262 262.969 263.371 263.031C263.48 263.093 263.603 263.126 263.728 263.127C264.09 263.09 264.427 262.929 264.683 262.67ZM265.237 261.702C264.662 262.442 264.109 262.871 263.735 262.871C263.65 262.869 263.567 262.845 263.495 262.801C263.422 262.758 263.362 262.696 263.32 262.622C263.304 262.597 263.295 262.568 263.295 262.539C263.295 262.509 263.304 262.481 263.32 262.456C263.417 262.131 264.448 261.84 265.237 261.702Z" fill="#ACF75F"/>
<path d="M265.603 261.626C265.622 261.609 265.636 261.587 265.645 261.564C265.655 261.543 265.66 261.521 265.66 261.498C265.66 261.475 265.655 261.453 265.645 261.432C265.596 261.384 264.538 260.256 263.749 260.263C263.652 260.263 263.557 260.283 263.468 260.323C263.38 260.362 263.301 260.419 263.237 260.491C263.163 260.555 263.114 260.642 263.096 260.737C263.079 260.833 263.094 260.931 263.14 261.017C263.423 261.557 264.967 261.778 265.576 261.654L265.603 261.626ZM263.43 260.629C263.511 260.56 263.615 260.523 263.721 260.526C264.226 260.526 264.918 261.114 265.25 261.425C264.558 261.46 263.5 261.211 263.327 260.892C263.327 260.858 263.278 260.789 263.389 260.671L263.43 260.629Z" fill="#ACF75F"/>
<path d="M218.277 280.579C218.3 280.572 218.319 280.558 218.334 280.539C218.349 280.521 218.358 280.499 218.36 280.475C218.366 280.45 218.363 280.423 218.352 280.399C218.341 280.375 218.322 280.356 218.298 280.344C218.049 280.219 215.897 279.126 215.246 279.493C215.184 279.526 215.131 279.574 215.094 279.634C215.056 279.693 215.035 279.762 215.032 279.832C215.018 279.947 215.032 280.063 215.075 280.171C215.117 280.278 215.186 280.374 215.274 280.448C215.862 280.967 217.399 280.752 218.264 280.579H218.277ZM215.413 279.694C215.821 279.555 216.99 279.998 217.841 280.386C216.658 280.586 215.765 280.538 215.44 280.24C215.382 280.191 215.338 280.127 215.311 280.056C215.285 279.984 215.277 279.907 215.288 279.832C215.288 279.804 215.296 279.777 215.31 279.754C215.325 279.731 215.346 279.712 215.371 279.7L215.413 279.694Z" fill="#ACF75F"/>
<path d="M218.277 280.58H218.312C218.33 280.566 218.344 280.548 218.354 280.528C218.363 280.507 218.368 280.485 218.367 280.462C218.367 280.407 218.208 278.961 217.53 278.386C217.435 278.306 217.325 278.245 217.206 278.208C217.087 278.171 216.962 278.159 216.838 278.172C216.485 278.172 216.388 278.386 216.368 278.525C216.271 279.134 217.551 280.289 218.201 280.601C218.228 280.601 218.255 280.594 218.277 280.58ZM216.72 278.442H216.852C216.944 278.431 217.038 278.441 217.126 278.469C217.214 278.498 217.295 278.545 217.364 278.608C217.759 279.072 218.001 279.648 218.056 280.255C217.399 279.86 216.52 278.954 216.582 278.587C216.596 278.539 216.596 278.476 216.72 278.442Z" fill="#ACF75F"/>
<path d="M227.356 146.387L222.194 148.02L226.201 152.006C226.201 152.006 230.879 149.978 229.412 147.916L227.356 146.387Z" fill="#FFC3BD"/>
<path d="M220.07 152.575L223.744 154.803L226.201 152.007L222.194 148.021L220.07 152.575Z" fill="#FFC3BD"/>
</svg>
