<svg width="360" height="359" viewBox="0 0 360 359" fill="none" xmlns="http://www.w3.org/2000/svg">
<g clip-path="url(#clip0_45_4221)">
<path d="M319.802 250.683H190.052C188.937 250.681 187.868 250.237 187.079 249.448C186.291 248.659 185.847 247.59 185.845 246.475V57.44C185.849 56.326 186.293 55.2587 187.082 54.4716C187.87 53.6845 188.938 53.2416 190.052 53.2397H319.802C320.916 53.2416 321.984 53.6845 322.772 54.4716C323.561 55.2587 324.006 56.326 324.009 57.44V246.475C324.008 247.59 323.564 248.659 322.775 249.448C321.986 250.237 320.917 250.681 319.802 250.683ZM190.052 53.4192C189.521 53.4155 188.995 53.5166 188.504 53.7169C188.012 53.9172 187.565 54.2126 187.188 54.5863C186.811 54.9599 186.512 55.4044 186.307 55.8941C186.102 56.3839 185.996 56.9093 185.996 57.44V246.475C185.996 247.543 186.42 248.568 187.175 249.323C187.931 250.079 188.955 250.503 190.023 250.503H319.802C320.87 250.503 321.895 250.079 322.65 249.323C323.406 248.568 323.83 247.543 323.83 246.475V57.44C323.83 56.3718 323.406 55.3472 322.65 54.5918C321.895 53.8364 320.87 53.4121 319.802 53.4121L190.052 53.4192Z" fill="#E5E5E5"/>
<path d="M170.149 250.683H40.3703C39.255 250.681 38.1859 250.237 37.3973 249.448C36.6086 248.66 36.1647 247.591 36.1628 246.475V57.4404C36.1647 56.3251 36.6086 55.256 37.3973 54.4674C38.1859 53.6787 39.255 53.2348 40.3703 53.2329H170.149C171.264 53.2348 172.333 53.6787 173.122 54.4674C173.911 55.256 174.354 56.3251 174.356 57.4404V246.475C174.354 247.591 173.911 248.66 173.122 249.448C172.333 250.237 171.264 250.681 170.149 250.683ZM40.3703 53.4196C39.3033 53.4196 38.2798 53.843 37.5246 54.5968C36.7695 55.3507 36.3442 56.3733 36.3423 57.4404V246.475C36.3423 247.544 36.7667 248.568 37.5221 249.324C38.2775 250.079 39.302 250.503 40.3703 250.503H170.149C171.217 250.503 172.242 250.079 172.997 249.324C173.752 248.568 174.177 247.544 174.177 246.475V57.4404C174.177 56.3721 173.752 55.3476 172.997 54.5922C172.242 53.8368 171.217 53.4124 170.149 53.4124L40.3703 53.4196Z" fill="#E5E5E5"/>
<path d="M359.5 294.531H0.5V294.71H359.5V294.531Z" fill="#E5E5E5"/>
<path d="M62.9659 276.215C62.9659 276.215 56.1808 277.715 57.2219 272.984C58.263 268.252 58.1553 266.522 55.3982 264.368C52.6411 262.214 49.8624 261.158 51.9733 257.748C54.0842 254.337 50.0778 251.688 48.01 249.85C45.9421 248.012 48.2756 246.633 48.8213 243.165C49.367 239.697 45.6406 240.221 45.3462 235.849C45.0518 231.476 49.489 226.378 45.6765 220.369C45.6765 220.369 50.803 223.025 52.4831 227.692C54.1632 232.359 52.8062 235.964 55.8362 237.744C58.8661 239.525 60.7545 242.591 59.7277 245.736C58.701 248.88 60.1585 250.553 62.6428 252.851C65.1271 255.149 64.4593 256.06 64.1506 258.868C63.8419 261.675 64.4665 261.022 67.3026 264.849C70.1387 268.676 70.1459 274.951 62.9659 276.215Z" fill="#E5E5E5"/>
<path d="M63.9065 275.999C63.9026 275.976 63.9026 275.951 63.9065 275.928L50.2932 234.714C50.2788 234.673 50.2729 234.628 50.2759 234.584C50.279 234.54 50.2909 234.496 50.311 234.457C50.3311 234.417 50.359 234.382 50.3929 234.354C50.4269 234.325 50.4662 234.304 50.5086 234.291C50.5934 234.266 50.6844 234.276 50.7623 234.317C50.8401 234.359 50.8986 234.429 50.9251 234.513L64.5168 275.712C64.5208 275.746 64.5208 275.779 64.5168 275.813L63.9065 275.999Z" fill="#B7B7B7"/>
<path d="M75.172 276.128C75.172 276.128 81.9212 277.622 80.916 272.912C79.9108 268.202 79.9898 266.45 82.7326 264.296C85.4753 262.142 88.2396 261.101 86.1359 257.712C84.0322 254.323 88.0242 251.688 90.0777 249.864C92.1312 248.04 89.8192 246.662 89.2736 243.208C88.7279 239.755 92.4328 240.279 92.7271 235.935C93.0215 231.591 88.6058 226.515 92.3969 220.534C92.3969 220.534 87.2991 223.176 85.6261 227.821C83.9532 232.467 85.303 236.05 82.2946 237.816C79.2862 239.582 77.3978 242.634 78.4246 245.764C79.4513 248.895 77.9938 250.56 75.5526 252.844C73.1114 255.127 73.7432 256.032 74.052 258.825C74.3607 261.618 73.736 260.979 70.9143 264.777C68.0926 268.575 67.992 274.872 75.172 276.128Z" fill="#E5E5E5"/>
<path d="M73.5994 275.712C73.5961 275.679 73.5961 275.645 73.5994 275.612L87.105 234.614C87.133 234.531 87.192 234.462 87.2697 234.422C87.3474 234.382 87.4377 234.373 87.5215 234.398C87.5639 234.411 87.6032 234.433 87.6372 234.461C87.6711 234.49 87.699 234.525 87.7191 234.565C87.7392 234.604 87.7511 234.647 87.7542 234.691C87.7572 234.736 87.7513 234.78 87.7369 234.822L74.2313 275.82V275.892L73.5994 275.712Z" fill="#B7B7B7"/>
<path d="M67.6904 275.267C67.6904 275.267 59.9216 274.628 62.5711 269.889C65.2205 265.15 65.7303 263.262 63.4901 260.038C61.25 256.814 58.6293 254.754 62.0541 251.81C65.479 248.866 62.0541 244.694 60.4242 242.038C58.7944 239.381 61.7741 238.685 63.5188 235.152C65.2636 231.62 61.0848 230.938 62.2264 226.163C63.368 221.388 69.8085 217.396 67.7191 209.692C67.7191 209.692 72.3215 214.237 72.5728 219.794C72.8241 225.351 70.1747 228.762 72.8313 231.67C75.4879 234.578 76.4931 238.491 74.3463 241.521C72.1994 244.551 73.2046 246.827 75.0643 250.137C76.9239 253.447 75.9474 254.179 74.6837 257.087C73.42 259.995 74.3104 259.485 76.0766 264.54C77.8429 269.595 75.8397 276.322 67.6904 275.267Z" fill="#D4D4D4"/>
<path d="M68.7961 275.367C68.7922 275.336 68.7922 275.305 68.7961 275.274L67.9417 226.622C67.9398 226.522 67.9771 226.426 68.0455 226.353C68.114 226.281 68.2082 226.238 68.3079 226.234C68.3575 226.233 68.4069 226.242 68.453 226.261C68.4991 226.279 68.5411 226.306 68.5766 226.341C68.612 226.376 68.6401 226.417 68.6594 226.463C68.6786 226.509 68.6885 226.558 68.6884 226.608L69.55 275.259C69.5576 275.297 69.5576 275.336 69.55 275.374L68.7961 275.367Z" fill="#B7B7B7"/>
<path d="M88.8139 271.512H50.846C50.5955 271.515 50.3495 271.579 50.1288 271.697C49.9081 271.816 49.7193 271.986 49.5784 272.193C49.4375 272.4 49.3486 272.638 49.3193 272.887C49.29 273.136 49.3211 273.388 49.41 273.623L49.9701 275.116L50.3219 276.064L51.3415 278.771L51.7005 279.711L52.7487 282.497L53.1006 283.438L57.2865 294.531H82.4524L86.6311 283.438L86.983 282.497L88.0313 279.711L88.3903 278.771L89.4098 276.064L89.7616 275.116L90.3217 273.623C90.4129 273.383 90.4434 273.124 90.4105 272.869C90.3777 272.615 90.2824 272.372 90.1332 272.163C89.984 271.954 89.7854 271.786 89.5553 271.672C89.3251 271.558 89.0704 271.503 88.8139 271.512Z" fill="#9E9E9E"/>
<path d="M56.6908 140.556H79.3581C79.9529 140.556 80.4351 140.073 80.4351 139.479V134.359C80.4351 133.765 79.9529 133.282 79.3581 133.282H56.6908C56.096 133.282 55.6138 133.765 55.6138 134.359V139.479C55.6138 140.073 56.096 140.556 56.6908 140.556Z" fill="#D4D4D4"/>
<path d="M43.1491 149.839H65.8163C66.4111 149.839 66.8933 149.357 66.8933 148.762V143.643C66.8933 143.048 66.4111 142.566 65.8163 142.566H43.1491C42.5542 142.566 42.0721 143.048 42.0721 143.643V148.762C42.0721 149.357 42.5542 149.839 43.1491 149.839Z" fill="#D4D4D4"/>
<path d="M226.096 60.9224H203.428C202.834 60.9224 202.351 61.4046 202.351 61.9994V67.1187C202.351 67.7135 202.834 68.1957 203.428 68.1957H226.096C226.69 68.1957 227.173 67.7135 227.173 67.1187V61.9994C227.173 61.4046 226.69 60.9224 226.096 60.9224Z" fill="#D4D4D4"/>
<path d="M239.63 70.1987H216.963C216.368 70.1987 215.886 70.6809 215.886 71.2757V76.3951C215.886 76.9899 216.368 77.4721 216.963 77.4721H239.63C240.225 77.4721 240.707 76.9899 240.707 76.3951V71.2757C240.707 70.6809 240.225 70.1987 239.63 70.1987Z" fill="#D4D4D4"/>
<path d="M230.827 173.95H208.16C207.565 173.95 207.083 174.432 207.083 175.027V180.146C207.083 180.741 207.565 181.223 208.16 181.223H230.827C231.422 181.223 231.904 180.741 231.904 180.146V175.027C231.904 174.432 231.422 173.95 230.827 173.95Z" fill="#D4D4D4"/>
<path d="M257.903 173.95H235.236C234.641 173.95 234.159 174.432 234.159 175.027V180.146C234.159 180.741 234.641 181.223 235.236 181.223H257.903C258.498 181.223 258.98 180.741 258.98 180.146V175.027C258.98 174.432 258.498 173.95 257.903 173.95Z" fill="#D4D4D4"/>
<path d="M244.361 183.227H221.694C221.099 183.227 220.617 183.709 220.617 184.304V189.423C220.617 190.018 221.099 190.5 221.694 190.5H244.361C244.956 190.5 245.438 190.018 245.438 189.423V184.304C245.438 183.709 244.956 183.227 244.361 183.227Z" fill="#D4D4D4"/>
<path d="M314.546 68.8203H257.81V125.557H314.546V68.8203Z" fill="#9E9E9E"/>
<path d="M311.667 122.692V71.6997H260.674V122.692H311.667Z" fill="white"/>
<path d="M282.76 111.111C282.76 111.111 292.094 91.9116 311.674 91.5239V122.692H286.178L282.76 111.111Z" fill="#E5E5E5"/>
<path d="M260.682 105.718C260.682 105.718 269.097 101.303 277.655 104.548C288.425 108.612 294.636 122.692 294.636 122.692H260.682V105.718Z" fill="#D4D4D4"/>
<path d="M287.169 87.8618C287.169 89.6411 286.641 91.3805 285.653 92.86C284.664 94.3395 283.259 95.4926 281.615 96.1735C279.971 96.8544 278.162 97.0326 276.417 96.6855C274.672 96.3383 273.069 95.4815 271.811 94.2233C270.553 92.9651 269.696 91.3621 269.349 89.6169C269.002 87.8718 269.18 86.0629 269.861 84.4189C270.542 82.775 271.695 81.37 273.174 80.3814C274.654 79.3929 276.393 78.8652 278.172 78.8652C280.558 78.8652 282.847 79.8131 284.534 81.5003C286.221 83.1874 287.169 85.4757 287.169 87.8618Z" fill="#B5B5B5"/>
<path d="M168.778 69.1938H118.999V165.557H168.778V69.1938Z" fill="#9E9E9E"/>
<path d="M165.906 162.685V72.0659H121.871V162.685H165.906Z" fill="white"/>
<path d="M137.114 109.143C142.083 109.143 146.111 105.115 146.111 100.146C146.111 95.1778 142.083 91.1499 137.114 91.1499C132.145 91.1499 128.117 95.1778 128.117 100.146C128.117 105.115 132.145 109.143 137.114 109.143Z" fill="#B5B5B5"/>
<path d="M130.099 162.692C130.099 162.692 141.228 109.136 165.898 104.29V162.692H130.099Z" fill="#E5E5E5"/>
<path d="M121.842 130.884C121.842 130.884 127.514 125.42 136.504 128.687C153.391 134.833 162.818 162.692 162.818 162.692H121.842V130.884Z" fill="#D4D4D4"/>
<path d="M182.592 329.504C261.452 329.504 325.381 327.752 325.381 325.591C325.381 323.43 261.452 321.678 182.592 321.678C103.732 321.678 39.8032 323.43 39.8032 325.591C39.8032 327.752 103.732 329.504 182.592 329.504Z" fill="#D4D4D4"/>
<path d="M308.185 199.188H242.33V322.741H308.185V199.188Z" fill="#ACF75F"/>
<path d="M242.329 236.89H238.617V240.602H242.329V236.89Z" fill="#3D3D3D"/>
<path d="M242.329 205.793H238.617V209.505H242.329V205.793Z" fill="#3D3D3D"/>
<path opacity="0.2" d="M299.762 240.602H242.33V241.241H299.762V240.602Z" fill="#3D3D3D"/>
<path d="M299.763 199.188H299.124V322.741H299.763V199.188Z" fill="#3D3D3D"/>
<path d="M308.185 171.207V199.209H299.762V179.629C299.762 178.523 299.98 177.428 300.404 176.406C300.827 175.384 301.447 174.456 302.229 173.674C303.011 172.892 303.94 172.271 304.962 171.848C305.983 171.425 307.079 171.207 308.185 171.207Z" fill="#ACF75F"/>
<path opacity="0.5" d="M308.185 171.207V199.209H299.762V179.629C299.762 178.523 299.98 177.428 300.404 176.406C300.827 175.384 301.447 174.456 302.229 173.674C303.011 172.892 303.94 172.271 304.962 171.848C305.983 171.425 307.079 171.207 308.185 171.207Z" fill="#B5B5B5"/>
<path d="M268.027 197.048H249.388V199.188H268.027V197.048Z" fill="#3D3D3D"/>
<path d="M294.593 197.048H275.954V199.188H294.593V197.048Z" fill="#3D3D3D"/>
<path d="M258.743 322.741H250.824V325.592H258.743V322.741Z" fill="#3D3D3D"/>
<path d="M297.515 322.741H289.596V325.592H297.515V322.741Z" fill="#3D3D3D"/>
<path d="M82.7182 198.707H120.054C120.261 198.707 120.465 198.658 120.649 198.564C120.833 198.47 120.993 198.334 121.114 198.166C121.235 197.999 121.315 197.805 121.347 197.6C121.378 197.396 121.361 197.187 121.296 196.991L113.161 172.32C113.076 172.058 112.909 171.83 112.686 171.667C112.463 171.505 112.195 171.417 111.919 171.416H74.6192C74.4124 171.415 74.2085 171.464 74.0243 171.558C73.84 171.652 73.6808 171.789 73.5595 171.956C73.4382 172.124 73.3585 172.317 73.3267 172.522C73.295 172.726 73.3123 172.935 73.377 173.132L81.4761 197.809C81.5641 198.069 81.7311 198.296 81.9537 198.456C82.1763 198.617 82.4436 198.705 82.7182 198.707Z" fill="#3D3D3D"/>
<path opacity="0.6" d="M98.2055 186.343C98.4639 188.044 97.4875 189.416 96.0945 189.416C94.7016 189.416 93.3015 188.044 93.0359 186.343C92.7702 184.641 93.7539 183.277 95.1468 183.277C96.5397 183.277 97.9398 184.648 98.2055 186.343Z" fill="white"/>
<path d="M133.33 198.168L134.12 200.545C134.17 200.711 134.181 200.886 134.151 201.057C134.122 201.228 134.053 201.39 133.949 201.53C133.846 201.669 133.712 201.783 133.557 201.861C133.402 201.939 133.231 201.98 133.057 201.981H83.6301C83.3963 201.982 83.1682 201.908 82.9785 201.772C82.7889 201.635 82.6475 201.442 82.5746 201.219L81.5479 198.168H133.33Z" fill="#3D3D3D"/>
<g opacity="0.3">
<path opacity="0.4" d="M133.33 198.168L134.12 200.545C134.17 200.711 134.181 200.886 134.151 201.057C134.122 201.228 134.053 201.39 133.949 201.53C133.846 201.669 133.712 201.783 133.557 201.861C133.402 201.939 133.231 201.98 133.057 201.981H83.6301C83.3963 201.982 83.1682 201.908 82.9785 201.772C82.7889 201.635 82.6475 201.442 82.5746 201.219L81.5479 198.168H133.33Z" fill="#B5B5B5"/>
</g>
<path d="M151.596 201.995H60.3167V209.505H151.596V201.995Z" fill="#ACF75F"/>
<path d="M107.848 209.505H104.071V322.741H107.848V209.505Z" fill="#3D3D3D"/>
<path d="M132.368 325.556H79.5664C80.4788 324.075 81.7547 322.853 83.2728 322.005C84.7909 321.156 86.5008 320.711 88.2398 320.709H123.68C125.422 320.71 127.135 321.157 128.656 322.006C130.176 322.856 131.454 324.08 132.368 325.563V325.556Z" fill="#ACF75F"/>
<path d="M114.619 107.169H48.4768V114.055H114.619V107.169Z" fill="#ACF75F"/>
<path d="M53.7542 114.054L56.7841 120.882H61.2501V114.054H53.7542Z" fill="#ACF75F"/>
<path d="M53.7542 114.054L56.7841 120.882H61.2501V114.054H53.7542Z" fill="#ACF75F"/>
<path opacity="0.3" d="M53.7542 114.054L56.7841 120.882H61.2501V114.054H53.7542Z" fill="#3D3D3D"/>
<path d="M109.342 114.054L106.312 120.882H101.846V114.054H109.342Z" fill="#ACF75F"/>
<path opacity="0.3" d="M109.342 114.054L106.312 120.882H101.846V114.054H109.342Z" fill="#3D3D3D"/>
<path d="M68.983 90.0229V77.1779C68.9898 77.1329 68.9869 77.0869 68.9743 77.0432C68.9618 76.9995 68.9399 76.959 68.9102 76.9245C68.8806 76.89 68.8438 76.8623 68.8025 76.8433C68.7611 76.8243 68.7162 76.8145 68.6707 76.8145C68.6252 76.8145 68.5802 76.8243 68.5388 76.8433C68.4975 76.8623 68.4607 76.89 68.4311 76.9245C68.4014 76.959 68.3796 76.9995 68.367 77.0432C68.3544 77.0869 68.3515 77.1329 68.3583 77.1779V90.0229H68.983Z" fill="#ACF75F"/>
<g opacity="0.3">
<path d="M68.983 90.0229V77.1779C68.9898 77.1329 68.9869 77.0869 68.9743 77.0432C68.9618 76.9995 68.9399 76.959 68.9102 76.9245C68.8806 76.89 68.8438 76.8623 68.8025 76.8433C68.7611 76.8243 68.7162 76.8145 68.6707 76.8145C68.6252 76.8145 68.5802 76.8243 68.5388 76.8433C68.4975 76.8623 68.4607 76.89 68.4311 76.9245C68.4014 76.959 68.3796 76.9995 68.367 77.0432C68.3544 77.0869 68.3515 77.1329 68.3583 77.1779V90.0229H68.983Z" fill="#3D3D3D"/>
</g>
<path d="M63.4687 104.785L63.7846 105.948L63.8492 106.192L64.1149 107.161H73.2263L73.492 106.192L73.5566 105.948L73.8725 104.785L73.9371 104.533L77.0604 92.9663L77.125 92.7221L77.441 91.559L77.5056 91.3077L77.8502 90.0225H59.491L59.8356 91.3077L59.9002 91.559L60.2161 92.7221L60.2808 92.9663L63.4041 104.533L63.4687 104.785Z" fill="#3D3D3D"/>
<path d="M67.561 81.6009C67.735 81.6447 67.9182 81.6345 68.0862 81.5717C68.2542 81.5088 68.3991 81.3963 68.5016 81.2491C68.5752 81.152 68.6245 81.0388 68.6452 80.9188C68.6566 80.8547 68.6566 80.789 68.6452 80.7249C68.6455 80.5183 68.5745 80.318 68.4442 80.1577C67.2523 78.7217 61.2642 71.7786 58.4353 74.6794C55.0678 78.1904 64.2798 80.8039 67.561 81.6009Z" fill="#ACF75F"/>
<g opacity="0.3">
<path d="M62.2481 77.544L68.5019 81.2417C68.5755 81.1447 68.6247 81.0314 68.6455 80.9114L62.4348 77.2353C62.3938 77.2117 62.3451 77.2053 62.2994 77.2174C62.2537 77.2295 62.2146 77.2592 62.1907 77.2999C62.1777 77.3195 62.1689 77.3415 62.1648 77.3647C62.1607 77.3878 62.1613 77.4115 62.1667 77.4344C62.1721 77.4572 62.1821 77.4787 62.1961 77.4976C62.2101 77.5165 62.2278 77.5323 62.2481 77.544Z" fill="#3D3D3D"/>
</g>
<path d="M68.6669 84.1636C68.6599 84.2281 68.6599 84.2931 68.6669 84.3575C68.6947 84.4765 68.746 84.5888 68.8177 84.6878C68.9228 84.832 69.068 84.9423 69.2352 85.0048C69.4024 85.0674 69.5843 85.0795 69.7583 85.0396C73.0395 84.2354 82.2586 81.6219 78.8553 78.1181C76.0479 75.2461 70.0455 82.1532 68.8536 83.5892C68.7299 83.755 68.6643 83.9569 68.6669 84.1636Z" fill="#ACF75F"/>
<path opacity="0.3" d="M68.71 84.358C68.7378 84.477 68.789 84.5893 68.8607 84.6883L75.1145 80.9906C75.1532 80.963 75.1805 80.9222 75.1911 80.8759C75.2017 80.8296 75.1949 80.7809 75.172 80.7393C75.1602 80.719 75.1444 80.7013 75.1255 80.6873C75.1067 80.6733 75.0852 80.6633 75.0623 80.6579C75.0394 80.6525 75.0157 80.6519 74.9926 80.656C74.9695 80.6601 74.9474 80.6689 74.9278 80.6819L68.71 84.358Z" fill="#3D3D3D"/>
<path d="M67.9919 77.1207C68.0186 77.3282 68.1147 77.5205 68.2647 77.6664C68.3114 77.7114 68.3618 77.7522 68.4155 77.7885C68.5223 77.8492 68.6389 77.8905 68.7601 77.9105C68.9379 77.9326 69.1182 77.9022 69.279 77.8231C69.4397 77.744 69.5738 77.6197 69.6648 77.4654C71.3449 74.5431 75.8109 66.0635 70.9285 66.1066C66.879 66.1353 67.7621 75.2755 67.9919 77.1207Z" fill="#ACF75F"/>
<g opacity="0.3">
<path d="M68.4084 77.7882C68.5152 77.8489 68.6319 77.8902 68.7531 77.9103L70.3901 70.8308C70.3989 70.7843 70.3897 70.7361 70.3644 70.6962C70.3391 70.6562 70.2995 70.6273 70.2537 70.6154C70.2306 70.6101 70.2067 70.6094 70.1833 70.6134C70.1599 70.6174 70.1376 70.626 70.1176 70.6387C70.0975 70.6514 70.0802 70.6679 70.0666 70.6873C70.053 70.7067 70.0434 70.7286 70.0383 70.7518L68.4084 77.7882Z" fill="#3D3D3D"/>
</g>
<path d="M67.561 88.9744C67.735 89.0182 67.9182 89.0081 68.0862 88.9452C68.2542 88.8824 68.3991 88.7698 68.5016 88.6226C68.5752 88.5256 68.6245 88.4123 68.6452 88.2923C68.6566 88.2282 68.6566 88.1626 68.6452 88.0985C68.6455 87.8919 68.5745 87.6915 68.4442 87.5312C67.2523 86.0952 61.2642 79.1522 58.4353 82.0529C55.0678 85.5639 64.2798 88.1774 67.561 88.9744Z" fill="#ACF75F"/>
<g opacity="0.3">
<path d="M62.2481 84.9254L68.5019 88.6231C68.5755 88.526 68.6247 88.4128 68.6455 88.2928L62.4348 84.6166C62.3938 84.5931 62.3451 84.5867 62.2994 84.5988C62.2537 84.6109 62.2146 84.6405 62.1907 84.6812C62.1777 84.7008 62.1689 84.7229 62.1648 84.746C62.1607 84.7691 62.1613 84.7928 62.1667 84.8157C62.1721 84.8386 62.1821 84.8601 62.1961 84.8789C62.2101 84.8978 62.2278 84.9136 62.2481 84.9254Z" fill="#3D3D3D"/>
</g>
<path d="M81.476 102.15H80.8154V101.159H105.838C106.609 101.197 107.337 101.53 107.869 102.089C108.402 102.649 108.699 103.392 108.699 104.164C108.699 104.936 108.402 105.679 107.869 106.239C107.337 106.798 106.609 107.131 105.838 107.169H80.8154V106.314H81.476V102.15Z" fill="#ACF75F"/>
<path d="M81.3037 102.15V106.314H104.28C104.549 106.311 104.816 106.254 105.063 106.147C105.311 106.04 105.535 105.886 105.723 105.693C105.911 105.499 106.06 105.271 106.159 105.02C106.259 104.77 106.308 104.502 106.304 104.232C106.309 103.681 106.097 103.15 105.716 102.753C105.528 102.562 105.305 102.411 105.058 102.307C104.812 102.204 104.547 102.15 104.28 102.15H81.3037Z" fill="#B5B5B5"/>
<path d="M81.3037 103.198V103.837H103.669C103.753 103.837 103.834 103.804 103.893 103.745C103.952 103.685 103.985 103.605 103.985 103.521C103.985 103.437 103.952 103.356 103.893 103.295C103.834 103.235 103.754 103.2 103.669 103.198H81.3037Z" fill="#9E9E9E"/>
<path d="M81.3037 104.771V105.402H103.669C103.753 105.402 103.834 105.369 103.893 105.31C103.952 105.251 103.985 105.17 103.985 105.086C103.985 105.003 103.952 104.922 103.893 104.863C103.834 104.804 103.753 104.771 103.669 104.771H81.3037Z" fill="#9E9E9E"/>
<path d="M81.476 96.1402H80.8154V95.1494H105.838C106.609 95.1871 107.337 95.5202 107.869 96.0796C108.402 96.6389 108.699 97.3818 108.699 98.1542C108.699 98.9267 108.402 99.6695 107.869 100.229C107.337 100.788 106.609 101.121 105.838 101.159H80.8154V100.305H81.476V96.1402Z" fill="#ACF75F"/>
<g opacity="0.3">
<path d="M81.476 96.1402H80.8154V95.1494H105.838C106.609 95.1871 107.337 95.5202 107.869 96.0796C108.402 96.6389 108.699 97.3818 108.699 98.1542C108.699 98.9267 108.402 99.6695 107.869 100.229C107.337 100.788 106.609 101.121 105.838 101.159H80.8154V100.305H81.476V96.1402Z" fill="#3D3D3D"/>
</g>
<path d="M81.3037 96.1401V100.305H104.28C104.549 100.301 104.816 100.244 105.063 100.137C105.311 100.031 105.535 99.8762 105.723 99.6828C105.911 99.4895 106.06 99.261 106.159 99.0104C106.259 98.7598 106.308 98.492 106.304 98.2223C106.308 97.6736 106.097 97.1451 105.716 96.7504C105.53 96.5575 105.307 96.404 105.06 96.2992C104.813 96.1943 104.548 96.1402 104.28 96.1401H81.3037Z" fill="#B5B5B5"/>
<path d="M81.3037 97.1958V97.8276H103.669C103.753 97.8276 103.834 97.7944 103.893 97.7351C103.952 97.6759 103.985 97.5955 103.985 97.5117C103.985 97.4279 103.952 97.3476 103.893 97.2883C103.834 97.2291 103.753 97.1958 103.669 97.1958H81.3037Z" fill="#9E9E9E"/>
<path d="M81.3037 98.7607V99.3998H103.669C103.754 99.3979 103.834 99.363 103.893 99.3026C103.952 99.2422 103.985 99.1611 103.985 99.0767C103.985 98.9929 103.952 98.9125 103.893 98.8533C103.834 98.794 103.753 98.7607 103.669 98.7607H81.3037Z" fill="#9E9E9E"/>
<path d="M233.031 93.2684C233.037 95.252 232.528 97.2031 231.555 98.9318C230.583 100.661 229.179 102.108 227.481 103.133C225.782 104.158 223.848 104.726 221.865 104.782C219.882 104.837 217.919 104.378 216.166 103.45L211.858 106.322L213.444 101.432C212.103 100.101 211.111 98.4594 210.555 96.653C210 94.8467 209.899 92.9312 210.261 91.0764C210.623 89.2217 211.437 87.4849 212.631 86.02C213.825 84.5551 215.362 83.4073 217.105 82.6784C218.849 81.9495 220.745 81.662 222.627 81.8414C224.508 82.0208 226.316 82.6615 227.89 83.7067C229.465 84.752 230.757 86.1695 231.653 87.8336C232.548 89.4977 233.019 91.357 233.024 93.2468L233.031 93.2684Z" fill="#ACF75F"/>
<g opacity="0.5">
<path d="M233.031 93.2684C233.037 95.252 232.528 97.2031 231.555 98.9318C230.583 100.661 229.179 102.108 227.481 103.133C225.782 104.158 223.848 104.726 221.865 104.782C219.882 104.837 217.919 104.378 216.166 103.45L211.858 106.322L213.444 101.432C212.103 100.101 211.111 98.4594 210.555 96.653C210 94.8467 209.899 92.9312 210.261 91.0764C210.623 89.2217 211.437 87.4849 212.631 86.02C213.825 84.5551 215.362 83.4073 217.105 82.6784C218.849 81.9495 220.745 81.662 222.627 81.8414C224.508 82.0208 226.316 82.6615 227.89 83.7067C229.465 84.752 230.757 86.1695 231.653 87.8336C232.548 89.4977 233.019 91.357 233.024 93.2468L233.031 93.2684Z" fill="#B5B5B5"/>
</g>
<path d="M221.529 94.7045C222.322 94.7045 222.965 94.0616 222.965 93.2685C222.965 92.4754 222.322 91.8325 221.529 91.8325C220.736 91.8325 220.093 92.4754 220.093 93.2685C220.093 94.0616 220.736 94.7045 221.529 94.7045Z" fill="white"/>
<path d="M216.683 94.7045C217.476 94.7045 218.119 94.0616 218.119 93.2685C218.119 92.4754 217.476 91.8325 216.683 91.8325C215.89 91.8325 215.247 92.4754 215.247 93.2685C215.247 94.0616 215.89 94.7045 216.683 94.7045Z" fill="white"/>
<path d="M226.376 94.7045C227.169 94.7045 227.812 94.0616 227.812 93.2685C227.812 92.4754 227.169 91.8325 226.376 91.8325C225.583 91.8325 224.94 92.4754 224.94 93.2685C224.94 94.0616 225.583 94.7045 226.376 94.7045Z" fill="white"/>
<path d="M173.136 125.076L173.028 125.284L168.246 134.668C165.439 133.325 162.71 131.882 160.025 130.36C158.46 129.47 156.909 128.551 155.358 127.596C153.247 126.296 151.179 124.939 149.054 123.381L148.25 122.792L147.417 122.117L146.993 121.766L146.484 121.32C146.146 121.019 145.909 120.768 145.622 120.48C144.61 119.418 143.798 118.42 143.001 117.415C139.871 113.394 137.2 109.351 134.55 105.244C131.901 101.138 129.438 96.93 127.047 92.6938L131.449 89.6782L140.668 100.75C143.727 104.404 146.814 108.102 149.937 111.426C150.705 112.245 151.502 113.049 152.213 113.667C152.371 113.789 152.565 113.968 152.687 114.047L152.874 114.176L153.175 114.363L153.807 114.751L154.525 115.167C156.421 116.266 158.51 117.321 160.585 118.441C163.802 120.129 167.09 121.802 170.321 123.532C171.176 123.991 172.03 124.451 172.87 124.918L173.136 125.076Z" fill="#ACF75F"/>
<path opacity="0.2" d="M172.856 124.932L173.028 125.298L168.246 134.683C165.439 133.34 162.71 131.897 160.025 130.375C161.239 124.86 167.205 123.762 170.307 123.568L172.856 124.932Z" fill="#3D3D3D"/>
<path d="M127.823 94.0578C127.823 94.0578 123.292 91.8536 121.052 90.9058C119.013 90.0442 116.493 88.0338 116.794 86.7199C117.972 81.6939 124.226 85.7649 124.226 85.7649L131.406 89.5847C131.557 91.0997 129.797 93.1675 127.823 94.0578Z" fill="#FFB573"/>
<path d="M99.1101 82.4912L98.4639 82.3045L98.1838 83.2666L122.596 90.3245C123.374 90.5483 124.209 90.4539 124.917 90.062C125.625 89.6702 126.149 89.013 126.373 88.2352C126.596 87.4573 126.502 86.6224 126.11 85.9141C125.718 85.2058 125.061 84.6822 124.283 84.4585L99.8711 77.4077L99.627 78.2406L100.273 78.4273L99.1101 82.4912Z" fill="#ACF75F"/>
<path d="M98.9377 82.4408L100.115 78.377L122.51 84.839C122.772 84.9178 123.016 85.0477 123.228 85.2211C123.44 85.3945 123.616 85.608 123.746 85.8495C123.875 86.0909 123.955 86.3555 123.982 86.6281C124.009 86.9007 123.982 87.176 123.903 87.4381C123.749 87.974 123.394 88.4295 122.912 88.709C122.676 88.8453 122.415 88.9328 122.145 88.9661C121.875 88.9994 121.601 88.9779 121.339 88.9028L98.9377 82.4408Z" fill="#B5B5B5"/>
<path d="M99.2393 81.4144L99.4188 80.7969L121.239 87.1009C121.279 87.1124 121.317 87.1319 121.349 87.158C121.382 87.1842 121.409 87.2166 121.429 87.2533C121.449 87.2901 121.462 87.3304 121.466 87.372C121.47 87.4137 121.466 87.4557 121.454 87.4958C121.431 87.5773 121.376 87.6463 121.302 87.688C121.228 87.7296 121.141 87.7405 121.059 87.7184L99.2393 81.4144Z" fill="white"/>
<path d="M99.6775 79.8846L99.857 79.2671L121.677 85.5711C121.718 85.5819 121.756 85.6007 121.79 85.6266C121.823 85.6524 121.851 85.6847 121.872 85.7215C121.893 85.7583 121.906 85.799 121.91 85.841C121.915 85.883 121.912 85.9255 121.9 85.966C121.888 86.0072 121.868 86.0456 121.842 86.0791C121.815 86.1127 121.782 86.1406 121.745 86.1613C121.708 86.182 121.666 86.1951 121.624 86.1997C121.582 86.2044 121.539 86.2007 121.498 86.1886L99.6775 79.8846Z" fill="white"/>
<path d="M131.413 89.5851C131.413 89.5851 127.672 85.4423 126.609 85.112C125.547 84.7817 120.018 85.392 120.557 86.1315C121.095 86.8711 125.36 87.9553 125.36 87.9553L127.399 89.5995L131.413 89.5851Z" fill="#FFB573"/>
<path d="M199.522 129.176L198.754 128.845C197.512 128.336 196.27 127.783 195.035 127.244L193.958 126.77L192.486 126.131L188.264 135.121L188.214 135.228C191.531 136.837 194.841 138.294 198.266 139.615L199.515 140.089C199.896 140.24 200.283 140.376 200.671 140.52L201.511 140.822C203.407 141.54 205.338 142.136 207.341 142.71H207.384L207.55 142.753L199.522 129.176ZM199.896 119.892C199.975 120.021 200.054 120.15 200.14 120.28C200.214 120.286 200.288 120.286 200.362 120.28C201.425 120.955 204.139 118.47 204.297 116.833C203.967 116.481 203.637 116.115 203.299 115.785C203.184 115.663 203.069 115.534 202.947 115.412L200.154 117.566L199.027 118.449C199.039 118.478 199.056 118.504 199.077 118.528L199.896 119.892Z" fill="#ACF75F"/>
<path d="M221.529 139.465C221.529 139.63 221.529 139.795 221.529 139.967L221.493 140.233C221.472 140.368 221.443 140.502 221.407 140.635C221.371 140.764 221.328 140.901 221.285 141.023C221.242 141.145 221.185 141.288 221.091 141.496C220.9 141.874 220.659 142.225 220.373 142.538C220.047 142.9 219.667 143.21 219.246 143.457C218.88 143.662 218.489 143.819 218.083 143.923L217.709 144.009L217.458 144.053C216.509 144.209 215.544 144.245 214.586 144.16C213.796 144.103 213.086 144.002 212.432 143.887C211.068 143.658 209.811 143.363 208.591 143.047C208.253 142.954 207.923 142.868 207.593 142.767L199.587 129.176C201.432 129.973 203.271 130.755 205.109 131.509C206.114 131.918 207.119 132.32 208.117 132.701L206.566 130.339C204.422 127.017 202.289 123.666 200.169 120.287C200.243 120.293 200.317 120.293 200.391 120.287C201.454 120.962 204.168 118.477 204.326 116.84C207.121 119.798 209.838 122.824 212.475 125.916C214.019 127.704 215.527 129.506 217.02 131.409C217.774 132.349 218.506 133.304 219.239 134.331C219.612 134.848 219.957 135.372 220.373 135.997C220.612 136.376 220.828 136.769 221.019 137.174C221.091 137.318 221.156 137.468 221.242 137.691C221.373 138.049 221.464 138.419 221.515 138.797C221.537 139.019 221.542 139.242 221.529 139.465Z" fill="#ACF75F"/>
<path opacity="0.2" d="M207.894 143.392L207.823 143.306L207.32 142.71L198.367 132.026L195.99 129.19L193.958 126.77L195.035 127.244C196.27 127.782 197.512 128.335 198.754 128.845L199.523 129.175L207.528 142.767L207.894 143.392Z" fill="#3D3D3D"/>
<path d="M204.297 116.869C204.139 118.506 201.425 120.99 200.362 120.315C200.288 120.322 200.214 120.322 200.14 120.315C199.98 120.291 199.823 120.248 199.673 120.186C199.346 120.065 199.033 119.909 198.74 119.719C197.835 119.191 197.09 118.426 196.586 117.508C196.543 117.424 196.512 117.334 196.492 117.242C196.277 116.194 196.169 115.016 195.954 114.097C195.927 114.017 195.926 113.931 195.95 113.849C195.975 113.768 196.024 113.697 196.09 113.645C196.211 113.581 196.345 113.548 196.482 113.548C196.618 113.548 196.752 113.581 196.873 113.645C197.022 113.701 197.16 113.781 197.282 113.882C197.304 113.89 197.322 113.905 197.333 113.925C197.38 113.956 197.421 113.994 197.455 114.04C197.692 114.27 197.864 114.56 197.95 114.88C198.266 116.467 200.765 116.136 200.765 116.136L201.784 113.214L202.136 112.195L202.789 110.313C202.808 110.328 202.825 110.345 202.84 110.364C202.84 110.414 202.89 110.464 202.911 110.507C203.313 111.448 203.996 115.426 204.254 116.373C204.305 116.533 204.32 116.703 204.297 116.869Z" fill="#FFB573"/>
<path d="M203.192 115.993L199.602 120.265C199.564 120.323 199.51 120.369 199.446 120.396C199.383 120.424 199.312 120.432 199.244 120.42C199.175 120.408 199.112 120.376 199.062 120.327C199.012 120.279 198.978 120.218 198.963 120.15L194.82 110.572C194.754 110.402 194.732 110.218 194.755 110.037C194.779 109.857 194.848 109.685 194.956 109.538L198.546 105.23C198.761 104.978 199.049 105.036 199.185 105.352L203.314 114.908C203.391 115.084 203.42 115.276 203.399 115.467C203.377 115.657 203.306 115.839 203.192 115.993Z" fill="#3D3D3D"/>
<g opacity="0.3">
<path d="M202.294 115.095L199.386 118.571C199.271 118.7 199.128 118.671 199.056 118.506L195.43 110.105C195.397 110.018 195.386 109.923 195.398 109.831C195.411 109.738 195.446 109.65 195.502 109.574L198.446 106.099C198.553 105.97 198.704 105.998 198.776 106.164L202.366 114.557C202.401 114.645 202.413 114.741 202.401 114.836C202.388 114.93 202.351 115.019 202.294 115.095Z" fill="#B5B5B5"/>
</g>
<path d="M202.861 110.393C202.724 110.009 202.483 109.672 202.164 109.418C201.846 109.165 201.463 109.005 201.059 108.957C200.456 108.957 200.219 111.635 200.391 112.267C200.743 113.573 201.684 111.139 201.684 111.139L202.208 112.338C202.753 111.728 203.278 111.175 202.861 110.393Z" fill="#FFB573"/>
<path d="M201.885 107.995C201.494 107.465 200.916 107.103 200.269 106.982C199.666 106.982 199.379 109.503 199.551 110.127C199.903 111.434 200.901 109.165 200.901 109.165L202.165 110.537C202.71 109.919 202.466 109.057 201.885 107.995Z" fill="#FFB573"/>
<path d="M200.901 106.723C200.822 106.508 200.334 105.453 199.731 105.467C199.128 105.481 198.632 107.456 198.805 108.088C199.157 109.394 200.155 107.126 200.155 107.126L201.418 108.497C201.634 108.152 201.483 107.786 200.901 106.723Z" fill="#FFB573"/>
<path d="M242.322 162.333L240.786 167.151C235.793 165.906 230.815 164.626 225.852 163.31C223.367 162.642 220.883 161.967 218.384 161.256C215.886 160.545 213.416 159.82 210.802 158.923C210.458 158.793 210.142 158.686 209.783 158.542L209.244 158.327L208.634 158.047C208.04 157.765 207.479 157.418 206.961 157.013L206.387 156.546C206.236 156.41 206.078 156.28 205.927 156.137C204.807 155.074 203.953 154.098 203.055 153.107L202.043 151.972L201.253 151.06C200.291 149.955 199.35 148.849 198.381 147.743L197.95 147.19C194.626 143.234 191.388 139.292 188.171 135.221L196.715 128.666C199.738 132.716 202.804 136.801 205.884 140.8C207.428 142.796 208.979 144.785 210.544 146.681C211.312 147.621 212.131 148.569 212.805 149.33C212.884 149.409 212.949 149.502 213.028 149.596L213.33 149.933L213.66 150.12C213.875 150.249 214.148 150.386 214.378 150.515C216.482 151.577 218.822 152.611 221.127 153.617C223.432 154.622 225.787 155.613 228.142 156.596C232.838 158.542 237.584 160.459 242.322 162.333Z" fill="#ACF75F"/>
<path opacity="0.2" d="M202.035 151.972L201.246 151.06C200.284 149.954 199.343 148.848 198.374 147.743L198.086 133.103C198.244 133.533 199.293 138.208 200.958 141.137C203.256 145.151 203.629 149.767 202.035 151.972Z" fill="#3D3D3D"/>
<path d="M240.786 167.15C243.598 167.58 246.431 167.868 249.273 168.012C251.664 168.012 256.646 165.413 256.058 164.515C255.469 163.618 249.244 162.598 249.244 162.598L241.267 161.88C240.312 163.072 239.63 165.355 240.786 167.15Z" fill="#FFB573"/>
<path d="M260.759 164.149L244.565 163.762L244.527 165.37L260.72 165.757L260.759 164.149Z" fill="#3D3D3D"/>
<path d="M259.756 163.144L283.091 163.611L283.075 164.451C283.048 165.784 282.493 167.052 281.531 167.975C280.57 168.899 279.281 169.403 277.948 169.376L264.665 169.111C263.332 169.084 262.064 168.529 261.141 167.567C260.217 166.606 259.713 165.317 259.74 163.984L259.756 163.144Z" fill="#3D3D3D"/>
<path d="M269.556 162.842C269.556 162.842 264.408 158.714 268.479 154.944C272.55 151.175 272.665 148.246 269.556 145.374C269.556 145.374 274.223 147.528 275.896 151.943C277.569 156.359 269.434 159.82 269.556 162.842Z" fill="#ACF75F"/>
<path d="M269.556 162.842C269.556 162.842 264.408 158.714 268.479 154.944C272.55 151.175 272.665 148.246 269.556 145.374C269.556 145.374 274.223 147.528 275.896 151.943C277.569 156.359 269.434 159.82 269.556 162.842Z" fill="#CFCFCF"/>
<path d="M241.267 161.901C241.267 161.901 246.573 160.465 247.636 160.789C248.698 161.112 252.92 164.558 252.08 164.881C251.24 165.204 247.14 163.804 247.14 163.804L244.57 164.07L241.267 161.901Z" fill="#FFB573"/>
<path d="M193.829 311.476L195.559 319.74H199.91L200.384 311.476H193.829Z" fill="#FFB573"/>
<path d="M212.346 325.591C212.202 322.892 211.046 322.088 209.589 322.001C208.131 321.915 202.71 320.084 202.71 320.084C202.71 320.084 201.64 318.376 200.65 318.031C199.659 317.686 198.668 318.699 198.668 318.699L195.947 318.368C195.947 318.368 195.171 317.133 194.568 318.21C193.642 319.883 193.592 324.507 193.635 325.591H212.346Z" fill="#ACF75F"/>
<path d="M212.016 324.887H208.627L193.786 324.816C193.599 324.816 193.642 324.521 193.829 324.528H194.834V324.485C195.052 324.176 195.203 323.825 195.277 323.454C195.351 323.083 195.346 322.701 195.263 322.332C195.18 321.963 195.02 321.616 194.794 321.313C194.568 321.01 194.281 320.757 193.951 320.572C193.8 320.486 193.994 320.235 194.137 320.328C194.489 320.529 194.796 320.8 195.038 321.124C195.28 321.449 195.452 321.82 195.544 322.215C195.636 322.609 195.645 323.018 195.571 323.417C195.497 323.815 195.341 324.193 195.114 324.528H197.232L212.066 324.607C212.253 324.6 212.202 324.887 212.016 324.887Z" fill="#3D3D3D"/>
<path d="M201.856 321.255C202.66 320.343 203.794 320.084 204.591 320.774C204.721 320.881 204.907 320.63 204.778 320.522C203.859 319.74 202.538 320.077 201.633 321.104C201.497 321.255 201.719 321.398 201.856 321.255Z" fill="#B5B5B5"/>
<path d="M203.371 321.735C204.175 320.824 205.31 320.572 206.107 321.254C206.236 321.362 206.422 321.118 206.3 321.003C205.381 320.22 204.06 320.565 203.148 321.592C203.019 321.743 203.242 321.886 203.371 321.735Z" fill="#B5B5B5"/>
<path d="M204.943 322.217C205.747 321.312 206.882 321.053 207.679 321.736C207.808 321.843 207.995 321.599 207.865 321.491C206.954 320.702 205.625 321.046 204.721 322.073C204.584 322.224 204.807 322.367 204.943 322.217Z" fill="#B5B5B5"/>
<path d="M148.272 303.972L145.665 312.301L149.894 314.412L153.994 307.167L148.272 303.972Z" fill="#FFB573"/>
<path d="M157.914 325.592C159.099 323.165 158.482 321.901 157.254 321.111C156.026 320.322 152.185 316.085 152.185 316.085C152.185 316.085 152.077 314.075 151.388 313.285C150.699 312.495 149.32 312.905 149.32 312.905L146.541 311.124C146.541 311.124 146.541 309.329 145.665 310.32C144.416 311.756 142.513 315.683 142.025 316.653L157.914 325.592Z" fill="#ACF75F"/>
<path d="M158.144 324.601L155.222 323L142.463 316.021C142.298 315.935 142.463 315.69 142.635 315.777L143.497 316.25H143.533C143.868 316.058 144.161 315.801 144.395 315.495C144.63 315.188 144.801 314.838 144.9 314.464C144.998 314.091 145.021 313.702 144.967 313.319C144.914 312.937 144.785 312.569 144.588 312.237C144.495 312.086 144.775 311.942 144.861 312.093C145.278 312.813 145.396 313.668 145.189 314.473C144.982 315.279 144.468 315.971 143.755 316.401L145.536 317.356L158.295 324.335C158.46 324.443 158.302 324.687 158.144 324.601Z" fill="#3D3D3D"/>
<path d="M150.864 316.688C152.005 316.286 153.125 316.616 153.491 317.6C153.549 317.758 153.829 317.636 153.771 317.478C153.355 316.343 152.034 315.999 150.741 316.451C150.548 316.516 150.677 316.753 150.864 316.688Z" fill="#B5B5B5"/>
<path d="M151.955 317.852C153.096 317.449 154.217 317.78 154.576 318.763C154.64 318.921 154.92 318.799 154.863 318.641C154.446 317.507 153.125 317.162 151.833 317.615C151.639 317.679 151.768 317.916 151.955 317.852Z" fill="#B5B5B5"/>
<path d="M153.089 319.036C154.231 318.634 155.351 318.964 155.717 319.948C155.775 320.106 156.055 319.984 155.997 319.826C155.581 318.691 154.26 318.347 152.967 318.799C152.773 318.864 152.903 319.101 153.089 319.036Z" fill="#B5B5B5"/>
<path d="M179.483 203.194C180.39 214.267 181.948 225.276 184.15 236.165C184.925 240.19 185.821 244.498 186.835 249.089C182.736 275.547 194.015 313.774 194.015 313.774L200.736 313.623C200.736 313.623 203.019 270.902 202.983 248.536C202.926 211.918 199.637 176.987 199.637 176.987L181.357 176.916C181.357 176.916 177.982 182.372 179.483 203.194Z" fill="#3D3D3D"/>
<path opacity="0.2" d="M179.483 203.194C180.39 214.267 181.948 225.276 184.15 236.165C188.458 221.511 182.585 190.213 182.585 190.213L179.483 203.194Z" fill="#3D3D3D"/>
<path d="M201.418 315.173L201.727 312.301H192.773L193.183 315.173H201.418Z" fill="#3D3D3D"/>
<path d="M162 176.197L161.612 249.555C156.773 254.797 146.627 305.33 146.627 305.33L154.439 309.594C154.439 309.594 175.785 260.821 178.722 253.289C181.659 245.757 185.744 190.27 185.744 190.27L180.783 178.236L162 176.197Z" fill="#3D3D3D"/>
<path d="M154.964 311.332L156.356 308.805L146.01 303.513L144.933 306.198L154.964 311.332Z" fill="#3D3D3D"/>
<path d="M200.284 179.5C200.284 182.839 175.778 184.419 161.196 179.608C161.44 178.703 161.792 177.124 162 176.212C162.108 175.788 162.201 175.35 162.294 174.898C162.596 173.462 162.85 171.87 163.055 170.123C163.055 170.051 163.055 169.965 163.055 169.886C163.429 166.529 163.628 163.155 163.651 159.777C163.651 158.822 163.651 157.838 163.651 156.833C163.651 155.591 163.594 154.32 163.529 153.006C163.236 146.639 162.528 140.298 161.411 134.022C161.219 132.94 161.257 131.829 161.523 130.762C161.789 129.695 162.276 128.695 162.953 127.829C163.63 126.963 164.482 126.249 165.454 125.734C166.425 125.219 167.494 124.914 168.591 124.839C169.841 124.746 171.154 124.688 172.497 124.667C173.84 124.645 175.132 124.624 176.382 124.624C179.785 124.561 183.188 124.722 186.57 125.105L187.345 125.205C188.616 125.37 189.901 125.579 191.151 125.787C196.543 126.72 198.869 130.454 199.049 136.916C199.257 144.096 204.707 148.569 197.814 153.43C196.952 159.504 200.284 170.08 200.284 179.5Z" fill="#ACF75F"/>
<path opacity="0.2" d="M163.687 159.762C163.687 158.807 163.687 157.824 163.687 156.819C163.687 155.576 163.63 154.306 163.565 152.992L169.23 141.561L163.687 159.762Z" fill="#3D3D3D"/>
<path opacity="0.2" d="M170.436 136.083L163.163 147.039C163.048 145.725 162.919 144.383 162.754 143.026L170.436 136.083Z" fill="#3D3D3D"/>
<path d="M176.41 124.609C179.863 130.676 187.984 134.309 187.984 134.309C189.083 131.595 188.702 127.237 187.374 125.191L186.598 125.09C183.216 124.707 179.813 124.546 176.41 124.609Z" fill="#FFB573"/>
<path d="M197.354 113.882C197.354 113.882 201.44 108.275 197.886 102.976C194.331 97.6771 188.552 99.8814 188.552 99.8814L197.354 113.882Z" fill="#3D3D3D"/>
<path d="M187.453 126.993C187.481 127.092 187.525 127.187 187.582 127.273C188.752 129.125 187.482 130.82 185.428 130.669C185.233 130.657 185.038 130.63 184.847 130.59C184.118 130.445 183.455 130.073 182.951 129.527C181.395 127.863 179.715 126.319 177.925 124.91C180.962 123.281 182.068 117.501 182.348 113.889L187.065 119.892L187.948 121.198C187.52 121.929 187.178 122.708 186.929 123.518C186.724 124.095 186.664 124.715 186.755 125.321C186.847 125.927 187.086 126.501 187.453 126.993Z" fill="#FFB573"/>
<g opacity="0.2">
<path d="M186.95 123.496C187.199 122.686 187.541 121.908 187.97 121.177L187.087 119.906L184.121 119.97C184.648 121.426 185.643 122.666 186.95 123.496Z" fill="#3D3D3D"/>
</g>
<path d="M181.508 107.441C181.034 113.379 180.711 115.878 183.202 119.31C186.95 124.472 194.202 123.725 196.406 118.046C198.388 112.927 198.826 104.081 193.534 100.951C188.243 97.82 182.01 101.511 181.537 107.413L181.508 107.441Z" fill="#FFB573"/>
<path d="M182.814 111.326C179.835 110.536 181.005 107.463 181.005 107.463L185.392 108.181C185.392 108.181 185.787 112.116 182.814 111.326Z" fill="#3D3D3D"/>
<path d="M194.827 101.497C194.827 101.497 194.748 104.785 190.727 104.957C186.706 105.13 187.001 111.29 182.542 110.141C177.035 108.705 179.124 104.024 180.452 101.985C181.292 100.685 190.303 92.9092 194.827 101.497Z" fill="#3D3D3D"/>
<path d="M188.752 99.0839C188.752 99.0839 188.838 91.7244 182.398 90.7838C176.474 89.915 174.198 95.4221 174.407 102.2C174.665 110.385 168.663 108.253 168.663 108.253C169.23 109.515 170.132 110.599 171.271 111.385C172.41 112.171 173.743 112.63 175.125 112.712C186.081 113.738 188.752 99.0839 188.752 99.0839Z" fill="#3D3D3D"/>
<path d="M181.127 101.18C181.095 101.191 181.059 101.191 181.027 101.18C181.007 101.168 180.99 101.152 180.977 101.133C180.963 101.114 180.954 101.092 180.949 101.069C180.945 101.046 180.945 101.023 180.949 101C180.954 100.977 180.963 100.955 180.976 100.936C181.846 99.7481 182.996 98.7934 184.324 98.157C185.652 97.5206 187.116 97.2224 188.587 97.2889C188.611 97.2898 188.634 97.2954 188.655 97.3053C188.677 97.3152 188.696 97.3292 188.712 97.3465C188.728 97.3638 188.741 97.3842 188.749 97.4063C188.757 97.4285 188.761 97.452 188.76 97.4756C188.761 97.4998 188.757 97.524 188.748 97.5465C188.738 97.5689 188.724 97.5891 188.707 97.6055C188.689 97.622 188.668 97.6343 188.644 97.6416C188.621 97.6489 188.597 97.6511 188.573 97.6479C187.164 97.5824 185.761 97.866 184.488 98.4735C183.216 99.0811 182.113 99.9937 181.278 101.13C181.258 101.149 181.234 101.163 181.208 101.172C181.182 101.181 181.154 101.184 181.127 101.18Z" fill="#ACF75F"/>
<path d="M193.929 116.589C193.929 116.589 191.057 115.282 190.404 114.026C190.404 114.026 189.98 116.28 191.495 117.106C191.891 117.344 192.362 117.423 192.814 117.327C193.266 117.231 193.664 116.967 193.929 116.589Z" fill="#FF7979"/>
<path d="M191.273 110.091C191.208 110.572 191.409 110.995 191.718 111.038C192.026 111.082 192.342 110.73 192.436 110.249C192.529 109.768 192.307 109.344 191.991 109.301C191.675 109.258 191.373 109.61 191.273 110.091Z" fill="#3D3D3D"/>
<path d="M196.141 110.881C196.076 111.362 196.277 111.786 196.586 111.829C196.895 111.872 197.211 111.52 197.304 111.046C197.397 110.572 197.175 110.141 196.859 110.098C196.543 110.055 196.241 110.407 196.141 110.881Z" fill="#3D3D3D"/>
<path d="M196.693 110.105L197.885 109.933C197.885 109.933 197.167 110.751 196.693 110.105Z" fill="#3D3D3D"/>
<path d="M194.36 110.788C194.36 110.788 195.013 112.173 195.753 113.401C195.812 113.494 195.849 113.599 195.861 113.708C195.873 113.817 195.86 113.928 195.822 114.031C195.785 114.135 195.724 114.228 195.645 114.304C195.566 114.381 195.47 114.438 195.365 114.471C194.858 114.625 194.336 114.724 193.807 114.765L194.36 110.788Z" fill="#ED893E"/>
<path d="M178.844 111.226C178.992 111.747 179.25 112.231 179.599 112.645C179.948 113.06 180.38 113.396 180.869 113.631C182.125 114.177 182.98 112.834 182.815 111.326C182.671 109.969 181.838 108.052 180.488 108.153C179.138 108.253 178.42 109.854 178.844 111.226Z" fill="#FFB573"/>
<path d="M181.982 112.776C181.982 112.935 181.935 113.091 181.846 113.223C181.758 113.355 181.632 113.458 181.485 113.519C181.338 113.58 181.177 113.596 181.021 113.565C180.865 113.534 180.722 113.457 180.609 113.345C180.497 113.232 180.42 113.089 180.389 112.933C180.358 112.777 180.374 112.616 180.435 112.469C180.496 112.322 180.599 112.196 180.731 112.108C180.863 112.019 181.019 111.972 181.178 111.972C181.391 111.972 181.596 112.057 181.746 112.208C181.897 112.359 181.982 112.563 181.982 112.776Z" fill="black"/>
<path d="M189.966 108.174C190.004 108.174 190.041 108.167 190.075 108.152C190.11 108.137 190.141 108.115 190.167 108.088C190.406 107.824 190.705 107.622 191.039 107.497C191.372 107.372 191.73 107.329 192.084 107.37C192.158 107.381 192.233 107.363 192.294 107.32C192.356 107.278 192.399 107.213 192.414 107.14C192.427 107.066 192.41 106.99 192.367 106.928C192.324 106.866 192.258 106.824 192.184 106.81C191.736 106.755 191.282 106.809 190.859 106.968C190.437 107.127 190.059 107.385 189.758 107.722C189.705 107.775 189.676 107.848 189.676 107.923C189.676 107.998 189.705 108.07 189.758 108.124C189.813 108.173 189.884 108.201 189.959 108.203L189.966 108.174Z" fill="#3D3D3D"/>
<path d="M198.381 109.035C198.436 109.038 198.49 109.025 198.537 108.998C198.585 108.971 198.624 108.931 198.649 108.883C198.675 108.835 198.686 108.78 198.682 108.726C198.678 108.672 198.658 108.619 198.625 108.576C198.352 108.216 197.995 107.928 197.587 107.735C197.178 107.543 196.729 107.452 196.277 107.47C196.202 107.477 196.133 107.514 196.085 107.572C196.036 107.629 196.013 107.704 196.019 107.779C196.028 107.854 196.066 107.924 196.125 107.972C196.184 108.02 196.259 108.043 196.335 108.037C196.691 108.028 197.044 108.104 197.365 108.259C197.686 108.414 197.965 108.643 198.18 108.928C198.204 108.959 198.234 108.984 198.269 109.003C198.304 109.021 198.342 109.032 198.381 109.035Z" fill="#3D3D3D"/>
<path d="M191.825 109.309L193.017 109.144C193.017 109.144 192.299 109.955 191.825 109.309Z" fill="#3D3D3D"/>
<path d="M172.82 133.232C170.767 138.315 168.512 143.227 166.092 148.13C164.886 150.586 163.623 153.013 162.287 155.44C160.952 157.867 159.551 160.257 157.886 162.742L157.225 163.682C157.003 163.991 156.758 164.321 156.507 164.652C156.256 164.982 155.947 165.37 155.638 165.678C155.509 165.844 155.265 166.073 155.078 166.267L154.777 166.562L154.583 166.734C153.614 167.56 152.616 168.443 151.625 169.333L145.601 174.661C141.566 178.251 137.48 181.747 133.266 185.143L129.747 181.754C133 177.403 136.396 173.21 139.878 169.067C141.623 166.999 143.382 164.946 145.192 162.907C146.103 161.887 147.008 160.875 147.977 159.841C148.035 159.776 148.114 159.697 148.142 159.654L148.186 159.59C148.227 159.537 148.265 159.482 148.3 159.425C148.423 159.252 148.53 159.101 148.681 158.865C148.832 158.628 148.961 158.441 149.105 158.19C149.248 157.938 149.399 157.701 149.55 157.472C150.749 155.397 151.876 153.02 153.018 150.687C154.159 148.353 155.243 145.926 156.349 143.507C158.503 138.689 160.715 133.792 162.933 129.003L172.82 133.232Z" fill="#ACF75F"/>
<path d="M130.458 180.771C130.458 180.771 134.766 182.839 133.222 185.158C131.679 187.477 128.304 188.533 127.091 190.442C125.877 192.352 123.45 197.357 122.912 197.321C122.373 197.285 124.018 189.868 124.578 188.576C125.138 187.283 127.723 184.268 127.723 184.268L130.458 180.771Z" fill="#FFB573"/>
<path d="M124.211 189.595C124.211 189.595 122.56 192.008 122.466 193.078C122.343 194.511 122.074 195.928 121.662 197.307C121.346 197.938 122.811 197.5 123.321 195.44C123.721 193.509 124.018 191.558 124.211 189.595Z" fill="#FFB573"/>
<path d="M132.928 184.138C132.797 185.164 132.434 186.146 131.865 187.01C130.967 188.326 130.22 189.74 129.64 191.225C129.18 192.474 127.952 192.927 127.615 192.374C127.277 191.821 128.44 189.566 128.871 187.714C129.302 185.861 132.928 184.138 132.928 184.138Z" fill="#FFB573"/>
</g>
<defs>
<clipPath id="clip0_45_4221">
<rect width="359" height="359" fill="white" transform="translate(0.5)"/>
</clipPath>
</defs>
</svg>
