<svg width="362" height="362" viewBox="0 0 362 362" fill="none" xmlns="http://www.w3.org/2000/svg">
<g clip-path="url(#clip0_45_4699)">
<path d="M325.728 288.504H301.749V288.685H325.728V288.504Z" fill="#EBEBEB"/>
<path d="M239.803 290.475H233.511V290.656H239.803V290.475Z" fill="#EBEBEB"/>
<path d="M301.025 281.786H287.131V281.967H301.025V281.786Z" fill="#EBEBEB"/>
<path d="M69.2503 283H37.9807V283.181H69.2503V283Z" fill="#EBEBEB"/>
<path d="M80.2843 283H75.7014V283.181H80.2843V283Z" fill="#EBEBEB"/>
<path d="M163.008 286.058H95.1841V286.239H163.008V286.058Z" fill="#EBEBEB"/>
<path d="M172.602 244.565H32.7976C31.7012 244.565 30.6497 244.129 29.8744 243.354C29.0991 242.578 28.6636 241.527 28.6636 240.431V43.9152C28.6731 42.8251 29.1129 41.7829 29.8871 41.0154C30.6614 40.2479 31.7074 39.8173 32.7976 39.8174H172.602C173.145 39.8174 173.682 39.9243 174.184 40.1321C174.686 40.3398 175.141 40.6443 175.525 41.0282C175.909 41.4121 176.214 41.8678 176.421 42.3694C176.629 42.871 176.736 43.4085 176.736 43.9514V240.431C176.736 240.973 176.629 241.511 176.421 242.013C176.214 242.514 175.909 242.97 175.525 243.354C175.141 243.738 174.686 244.042 174.184 244.25C173.682 244.458 173.145 244.565 172.602 244.565ZM32.7976 39.9622C31.7498 39.9641 30.7454 40.3812 30.0045 41.1221C29.2636 41.863 28.8465 42.8674 28.8446 43.9152V240.431C28.8465 241.478 29.2636 242.483 30.0045 243.224C30.7454 243.965 31.7498 244.382 32.7976 244.384H172.602C173.65 244.382 174.654 243.965 175.395 243.224C176.136 242.483 176.553 241.478 176.555 240.431V43.9152C176.553 42.8674 176.136 41.863 175.395 41.1221C174.654 40.3812 173.65 39.9641 172.602 39.9622H32.7976Z" fill="#EBEBEB"/>
<path d="M329.203 244.565H189.398C188.302 244.565 187.251 244.129 186.475 243.354C185.7 242.578 185.264 241.527 185.264 240.431V43.9152C185.274 42.8251 185.714 41.7829 186.488 41.0154C187.262 40.2479 188.308 39.8173 189.398 39.8174H329.203C330.299 39.8174 331.351 40.2529 332.126 41.0282C332.901 41.8035 333.337 42.855 333.337 43.9514V240.431C333.337 241.527 332.901 242.578 332.126 243.354C331.351 244.129 330.299 244.565 329.203 244.565ZM189.398 39.9622C188.351 39.9641 187.346 40.3812 186.605 41.1221C185.864 41.863 185.447 42.8674 185.445 43.9152V240.431C185.447 241.478 185.864 242.483 186.605 243.224C187.346 243.965 188.351 244.382 189.398 244.384H329.203C330.251 244.382 331.255 243.965 331.996 243.224C332.737 242.483 333.154 241.478 333.156 240.431V43.9152C333.154 42.8674 332.737 41.863 331.996 41.1221C331.255 40.3812 330.251 39.9641 329.203 39.9622H189.398Z" fill="#EBEBEB"/>
<path d="M362 276.856H0V277.037H362V276.856Z" fill="#EBEBEB"/>
<path d="M45.7425 208.783L38.0898 276.709H41.9198L49.9996 208.783H45.7425Z" fill="#999999"/>
<path d="M69.6417 208.783L61.989 276.709H65.819L73.8988 208.783H69.6417Z" fill="#999999"/>
<path d="M53.0548 259.103L51.1724 276.71H53.576L57.3046 259.103H53.0548Z" fill="#F0F0F0"/>
<path d="M75.0791 259.103L76.9687 276.71H74.565L70.8364 259.103H75.0791Z" fill="#F0F0F0"/>
<path d="M64.3495 265.743C66.5874 265.744 68.801 265.279 70.8496 264.378C72.8981 263.477 74.7369 262.16 76.2491 260.51C77.7613 258.86 78.9139 256.914 79.6335 254.795C80.3532 252.676 80.6243 250.43 80.4295 248.201L74.2031 177.046C73.8517 173.024 72.0054 169.279 69.0285 166.552C66.0517 163.824 62.1605 162.312 58.1231 162.313C55.8857 162.313 53.6729 162.779 51.6252 163.68C49.5775 164.582 47.7396 165.899 46.2282 167.549C44.7167 169.198 43.5648 171.144 42.8456 173.263C42.1264 175.381 41.8555 177.626 42.0503 179.855L48.2767 251.01C48.6263 255.031 50.4711 258.776 53.4468 261.503C56.4225 264.231 60.3127 265.744 64.3495 265.743Z" fill="#CFCFCF"/>
<path d="M78.5035 249.582C78.455 250.328 78.3436 251.069 78.1705 251.797C77.8565 253.174 77.3288 254.493 76.6066 255.707C76.4836 255.931 76.346 256.148 76.2012 256.365C75.7389 257.062 75.213 257.714 74.6301 258.313L74.2898 258.66C73.2243 259.7 72.0029 260.568 70.6698 261.231C70.2441 261.439 69.8065 261.623 69.3594 261.781C67.3376 262.52 65.1727 262.785 63.0324 262.553C60.8921 262.321 58.8339 261.6 57.0173 260.445C55.2006 259.29 53.6743 257.732 52.5565 255.892C51.4388 254.052 50.7596 251.979 50.5716 249.835L45.004 180.056C45.004 179.636 44.9534 179.223 44.9534 178.818C44.955 176.24 45.6683 173.712 47.0148 171.513C48.3612 169.315 50.2886 167.531 52.5843 166.358C52.9148 166.178 53.2556 166.019 53.6052 165.88C55.0794 165.263 56.6498 164.908 58.246 164.83C58.4849 164.83 58.7166 164.83 58.97 164.83C59.5605 164.83 60.1505 164.866 60.7366 164.939L61.3085 165.033C62.1772 165.17 63.0289 165.398 63.8498 165.713L64.2407 165.858C66.6312 166.832 68.7069 168.446 70.2396 170.523C71.7724 172.6 72.7028 175.059 72.9287 177.63L78.4963 247.41C78.5522 248.132 78.5546 248.858 78.5035 249.582Z" fill="#FAFAFA"/>
<path d="M74.6299 258.32L74.2896 258.667C73.224 259.707 72.0026 260.574 70.6696 261.238C70.2438 261.446 69.8063 261.63 69.3591 261.788L52.5696 166.365C52.9 166.185 53.2409 166.025 53.5904 165.887C55.0646 165.27 56.6351 164.915 58.2313 164.837L74.6299 258.32Z" fill="white"/>
<path d="M78.5034 249.582C78.4549 250.329 78.3434 251.07 78.1703 251.798C77.8564 253.174 77.3287 254.494 76.6065 255.707L60.7219 164.925L61.2939 165.019C62.1625 165.156 63.0143 165.384 63.8351 165.699L78.5034 249.582Z" fill="white"/>
<path d="M299.997 177.862L298.614 176.718C291.729 171.056 290.215 164.186 290.085 163.52C289.943 163.08 289.905 162.613 289.972 162.156C290.04 161.699 290.213 161.264 290.476 160.884C290.694 160.601 290.975 160.372 291.297 160.217C291.618 160.061 291.972 159.982 292.329 159.987C292.916 159.984 293.489 160.166 293.966 160.508C294.82 161.152 296.97 162.68 297.426 162.984C301.481 164.338 300.467 174.119 300.221 176.074L299.997 177.862ZM292.329 161.97C292.277 161.964 292.225 161.972 292.177 161.992C292.129 162.012 292.086 162.045 292.054 162.086C291.979 162.232 291.935 162.391 291.927 162.555C291.918 162.718 291.944 162.882 292.004 163.035V163.114C293.083 167.245 295.306 170.987 298.418 173.909C298.672 169.999 298.353 165.322 296.746 164.852C295.368 164.007 294.036 163.088 292.757 162.101C292.632 162.013 292.482 161.968 292.329 161.97Z" fill="#FFCE89"/>
<path d="M312.652 177.862L312.428 176.074C312.182 174.119 311.175 164.338 315.222 162.984C315.679 162.709 317.822 161.159 318.683 160.508C319.16 160.166 319.733 159.984 320.319 159.987C320.677 159.981 321.031 160.06 321.352 160.216C321.674 160.372 321.955 160.601 322.173 160.884C322.438 161.263 322.611 161.699 322.679 162.156C322.747 162.613 322.707 163.08 322.564 163.52C322.433 164.186 320.92 171.057 314.042 176.718L312.652 177.862ZM319.892 162.101C318.615 163.088 317.286 164.007 315.91 164.852C314.303 165.322 313.977 169.999 314.238 173.909C317.35 170.988 319.571 167.245 320.645 163.114V163.035C320.705 162.882 320.733 162.719 320.725 162.556C320.718 162.392 320.676 162.232 320.602 162.086C320.567 162.046 320.524 162.014 320.475 161.994C320.425 161.974 320.372 161.966 320.319 161.97C320.16 161.966 320.003 162.011 319.87 162.101H319.892Z" fill="#FFCE89"/>
<path d="M306.317 187.362C301.249 187.362 297.188 170.565 297.188 165.519V160.328H315.447V165.519C315.447 170.565 311.356 187.362 306.317 187.362Z" fill="#FF9D15"/>
<path d="M307.867 186.535H304.906V201.138H307.867V186.535Z" fill="#FFAF40"/>
<path d="M314.122 208.806H298.36L297.108 204.209H315.367L314.122 208.806Z" fill="#D57E03"/>
<path d="M307.925 196.81L304.891 196.853L303.414 199.416H309.329L307.925 196.81Z" fill="#FFAF40"/>
<path d="M308.836 198.315H303.891L301.654 201.262H311.131L308.836 198.315Z" fill="#FFCE8A"/>
<path d="M301.698 200.863H311.059L315.367 204.208H297.108L301.698 200.863Z" fill="#FFAF40"/>
<path d="M304.891 188.954L307.924 188.91L309.314 185.688H303.406L304.891 188.954Z" fill="#FFCE8A"/>
<path d="M318.727 213.027H274.071V269.174H318.727V213.027Z" fill="#E0E0E0"/>
<path d="M325.547 208.851H319.936V276.458H325.547V208.851Z" fill="#BFBABA"/>
<path d="M284.836 217.451H281.18V238.433H284.836V217.451Z" fill="#FAFAFA"/>
<path d="M300.012 217.451H296.355V238.433H300.012V217.451Z" fill="#F5F5F5"/>
<path d="M288.5 218.919H284.844V238.424H288.5V218.919Z" fill="#F5F5F5"/>
<path d="M296.355 218.919H292.699V238.424H296.355V218.919Z" fill="#FAFAFA"/>
<path d="M292.699 217.451H290.331V238.433H292.699V217.451Z" fill="#EBEBEB"/>
<path d="M290.331 218.919H288.499V238.424H290.331V218.919Z" fill="#FAFAFA"/>
<path d="M303.667 217.451H300.011V238.433H303.667V217.451Z" fill="#EBEBEB"/>
<path d="M307.331 218.919H303.674V238.424H307.331V218.919Z" fill="#E6E6E6"/>
<path d="M315.186 218.919H311.53V238.424H315.186V218.919Z" fill="#E6E6E6"/>
<path d="M311.53 217.451H309.163V238.433H311.53V217.451Z" fill="#FAFAFA"/>
<path d="M309.162 218.919H307.331V238.424H309.162V218.919Z" fill="#EBEBEB"/>
<path d="M317.018 217.943H315.187V238.425H317.018V217.943Z" fill="#FAFAFA"/>
<path d="M313.361 266.554H317.018V245.572H313.361V266.554Z" fill="#FAFAFA"/>
<path d="M298.187 266.554H301.843V245.572H298.187V266.554Z" fill="#FAFAFA"/>
<path d="M309.699 266.554H313.355V247.049H309.699V266.554Z" fill="#F0F0F0"/>
<path d="M301.85 266.554H305.506V247.049H301.85V266.554Z" fill="#EBEBEB"/>
<path d="M305.507 266.554H307.874V245.572H305.507V266.554Z" fill="#FAFAFA"/>
<path d="M307.866 266.554H309.698V247.049H307.866V266.554Z" fill="#F5F5F5"/>
<path d="M294.531 266.554H298.187V245.572H294.531V266.554Z" fill="#EBEBEB"/>
<path d="M290.867 266.554H294.523V247.049H290.867V266.554Z" fill="#F5F5F5"/>
<path d="M283.019 266.554H286.675V247.049H283.019V266.554Z" fill="#E6E6E6"/>
<path d="M286.675 266.554H289.042V245.572H286.675V266.554Z" fill="#FAFAFA"/>
<path d="M278.812 266.554H281.18V245.572H278.812V266.554Z" fill="#FAFAFA"/>
<path d="M289.035 266.554H290.867V247.049H289.035V266.554Z" fill="#EBEBEB"/>
<path d="M281.18 266.554H283.012V246.072H281.18V266.554Z" fill="#F0F0F0"/>
<path d="M318.509 208.851H272.658V272.671H317.011V276.465H320.008V208.851H318.509ZM317.011 266.553H275.482V241.937H317.011V266.553ZM317.011 238.455H275.482V214.976H317.011V238.455Z" fill="#CCC9C9"/>
<path d="M229.342 269.181H273.998V213.034H229.342V269.181Z" fill="#E0E0E0"/>
<path d="M231.065 276.457H236.676V271.983H231.065V276.457Z" fill="#E6E6E6"/>
<path d="M268.843 238.431H272.499V217.449H268.843V238.431Z" fill="#FAFAFA"/>
<path d="M253.661 238.431H257.317V217.449H253.661V238.431Z" fill="#F5F5F5"/>
<path d="M265.18 238.431H268.836V218.926H265.18V238.431Z" fill="#F5F5F5"/>
<path d="M257.324 238.431H260.98V218.926H257.324V238.431Z" fill="#FAFAFA"/>
<path d="M260.98 238.431H263.348V217.449H260.98V238.431Z" fill="#EBEBEB"/>
<path d="M263.347 238.431H265.179V218.926H263.347V238.431Z" fill="#FAFAFA"/>
<path d="M252.423 238.431H256.079V217.449H252.423V238.431Z" fill="#EBEBEB"/>
<path d="M248.759 238.431H252.416V218.926H248.759V238.431Z" fill="#E6E6E6"/>
<path d="M240.911 238.431H244.567V218.926H240.911V238.431Z" fill="#E6E6E6"/>
<path d="M244.56 238.431H246.928V217.449H244.56V238.431Z" fill="#FAFAFA"/>
<path d="M246.928 238.431H248.759V218.926H246.928V238.431Z" fill="#EBEBEB"/>
<path d="M239.079 238.431H240.911V217.949H239.079V238.431Z" fill="#F5F5F5"/>
<path d="M241.013 245.57H237.356V266.552H241.013V245.57Z" fill="#FAFAFA"/>
<path d="M256.187 245.57H252.531V266.552H256.187V245.57Z" fill="#FAFAFA"/>
<path d="M244.668 247.048H241.012V266.552H244.668V247.048Z" fill="#F5F5F5"/>
<path d="M252.524 247.048H248.868V266.552H252.524V247.048Z" fill="#EBEBEB"/>
<path d="M248.875 245.57H246.508V266.552H248.875V245.57Z" fill="#FAFAFA"/>
<path d="M246.508 247.048H244.676V266.552H246.508V247.048Z" fill="#F5F5F5"/>
<path d="M257.433 245.57H253.776V266.552H257.433V245.57Z" fill="#EBEBEB"/>
<path d="M261.089 247.048H257.433V266.552H261.089V247.048Z" fill="#F5F5F5"/>
<path d="M268.944 247.048H265.288V266.552H268.944V247.048Z" fill="#E6E6E6"/>
<path d="M265.288 245.57H262.921V266.552H265.288V245.57Z" fill="#FAFAFA"/>
<path d="M272.666 245.57H270.298V266.552H272.666V245.57Z" fill="#FAFAFA"/>
<path d="M262.928 247.048H261.096V266.552H262.928V247.048Z" fill="#EBEBEB"/>
<path d="M270.776 246.069H268.945V266.551H270.776V246.069Z" fill="#EBEBEB"/>
<path d="M228.06 208.851V276.465H231.057V272.671H275.409V208.851H228.06ZM231.057 241.952H272.586V266.568H231.064L231.057 241.952ZM231.057 214.976H272.586V238.455H231.064L231.057 214.976Z" fill="#CCC9C9"/>
<path d="M182.448 103.87L200.62 47.2168L200.396 106.715L235.191 58.446L216.592 114.961L264.593 79.8113L229.443 127.812L285.958 109.213L237.689 144.008L297.188 143.784L240.535 161.956L297.188 180.129L237.689 179.904L285.958 214.7L229.443 196.1L264.593 244.101L216.592 208.951L235.191 265.467L200.396 217.198L200.62 276.696L182.448 220.043L164.276 276.696L164.5 217.198L129.705 265.467L148.304 208.951L100.303 244.101L135.453 196.1L78.9377 214.7L127.207 179.904L67.7085 180.129L124.362 161.956L67.7085 143.784L127.207 144.008L78.9377 109.213L135.453 127.812L100.303 79.8113L148.304 114.961L129.705 58.446L164.5 106.715L164.276 47.2168L182.448 103.87Z" fill="white"/>
<path d="M194.705 137.98C192.106 136.3 191.085 132.361 190.803 128.227C190.631 125.085 190.76 121.933 191.186 118.815C191.266 118.019 191.382 117.251 191.519 116.527C191.635 115.796 191.789 115.071 191.983 114.355L168.373 104.61C170.965 108.52 172.941 121.038 172.391 125.063C171.79 129.581 171.609 135.923 169.264 137.56L194.705 137.98Z" fill="#3D3D3D"/>
<g opacity="0.7">
<path d="M194.705 137.979C192.106 136.299 191.085 132.36 190.803 128.226C190.631 125.084 190.76 121.932 191.186 118.814C191.266 118.018 191.382 117.25 191.519 116.526C191.635 115.795 191.789 115.07 191.983 114.354L168.373 104.609C170.965 108.519 172.941 121.037 172.391 125.062C171.79 129.58 171.609 135.922 169.264 137.559L194.705 137.979Z" fill="white"/>
</g>
<path d="M169.264 137.562C164.196 141.182 166.368 146.872 170.488 151.52C172.072 153.303 173.778 154.974 175.592 156.523C183.483 163.278 195.864 160.411 199.549 150.695C201.163 146.387 200.606 141.768 194.705 137.989L169.264 137.562Z" fill="#FFB573"/>
<path opacity="0.2" d="M190.803 128.227C190.631 125.085 190.76 121.933 191.186 118.815C191.266 118.019 191.382 117.252 191.519 116.528L173.267 113.023C177.097 116.817 182.448 124.578 190.803 128.227Z" fill="#3D3D3D"/>
<path d="M214.883 85.8954C214.303 89.8195 208.924 96.1979 209.185 95.8142C209.401 95.3982 209.478 94.9232 209.402 94.4603C209.284 92.6935 208.85 90.9623 208.121 89.3489C207.664 91.5209 206.969 96.0748 204.805 96.111C203.943 94.4893 202.886 93.0123 203.038 91.1733C202.538 93.0557 202.075 94.9526 201.59 96.835C197.391 94.2503 194.734 88.2846 195.61 83.3035C195.799 82.0953 196.219 80.935 196.848 79.8862C197.626 78.7415 198.57 77.7191 199.65 76.8526C202.394 74.4489 203.509 73.334 207.114 73.334C214.984 73.334 215.462 81.9713 214.883 85.8954Z" fill="#3D3D3D"/>
<path opacity="0.3" d="M214.883 85.8954C214.303 89.8195 208.924 96.1979 209.185 95.8142C209.401 95.3982 209.478 94.9232 209.402 94.4603C209.284 92.6935 208.85 90.9623 208.121 89.3489C207.664 91.5209 206.969 96.0748 204.805 96.111C203.943 94.4893 202.886 93.0123 203.038 91.1733C202.538 93.0557 202.075 94.9526 201.59 96.835C197.391 94.2503 194.734 88.2846 195.61 83.3035C195.799 82.0953 196.219 80.935 196.848 79.8862C197.626 78.7415 198.57 77.7191 199.65 76.8526C202.394 74.4489 203.509 73.334 207.114 73.334C214.984 73.334 215.462 81.9713 214.883 85.8954Z" fill="#3D3D3D"/>
<path d="M210.807 105.11C207.875 121.089 188.747 129.516 176.12 118.07C168.829 111.474 167.671 103.59 166.339 91.3399C166.129 89.4793 165.919 87.5245 165.687 85.4466C165.296 82.2117 165.628 78.9305 166.657 75.8391C167.08 74.5528 167.633 73.3131 168.308 72.1395C170.777 67.6988 174.725 64.2644 179.465 62.4336C184.204 60.6028 189.436 60.4916 194.249 62.1193C210.076 67.4479 213.464 90.7318 210.807 105.11Z" fill="#3D3D3D"/>
<path opacity="0.7" d="M210.807 105.11C207.875 121.089 188.747 129.516 176.12 118.07C168.829 111.474 167.671 103.59 166.339 91.3399C166.129 89.4793 165.919 87.5245 165.687 85.4466C165.296 82.2117 165.628 78.9305 166.657 75.8391C167.08 74.5528 167.633 73.3131 168.308 72.1395C170.777 67.6988 174.725 64.2644 179.465 62.4336C184.204 60.6028 189.436 60.4916 194.249 62.1193C210.076 67.4479 213.464 90.7318 210.807 105.11Z" fill="white"/>
<path d="M191.056 85.9155C191.896 85.8575 192.627 86.8711 192.693 88.1526C192.758 89.4341 192.251 90.5201 191.31 90.5708C190.369 90.6214 189.63 89.6223 189.558 88.3264C189.485 87.0304 190.224 85.9661 191.056 85.9155Z" fill="#3D3D3D"/>
<path opacity="0.3" d="M191.056 85.9155C191.896 85.8575 192.627 86.8711 192.693 88.1526C192.758 89.4341 192.251 90.5201 191.31 90.5708C190.369 90.6214 189.63 89.6223 189.558 88.3264C189.485 87.0304 190.224 85.9661 191.056 85.9155Z" fill="#3D3D3D"/>
<path d="M205.392 85.7866C206.231 85.7287 206.963 86.7278 207.035 88.0093C207.107 89.2907 206.499 90.3695 205.645 90.4274C204.791 90.4853 204.059 89.4862 203.987 88.2047C203.915 86.9233 204.559 85.8373 205.392 85.7866Z" fill="#3D3D3D"/>
<path opacity="0.3" d="M205.392 85.7866C206.231 85.7287 206.963 86.7278 207.035 88.0093C207.107 89.2907 206.499 90.3695 205.645 90.4274C204.791 90.4853 204.059 89.4862 203.987 88.2047C203.915 86.9233 204.559 85.8373 205.392 85.7866Z" fill="#3D3D3D"/>
<path d="M199.36 100.838C201.532 101.062 205.493 99.7446 207.064 98.2025C204.074 95.2413 200.736 91.9109 198.687 88.2402L199.36 100.838Z" fill="#3D3D3D"/>
<path opacity="0.5" d="M199.36 100.838C201.532 101.062 205.493 99.7446 207.064 98.2025C204.074 95.2413 200.736 91.9109 198.687 88.2402L199.36 100.838Z" fill="white"/>
<path d="M188.66 80.8773C189.599 80.6999 190.567 80.7457 191.485 81.011C192.403 81.2764 193.246 81.7539 193.945 82.405C193.985 82.4732 194.037 82.5344 194.097 82.586C194.173 82.6511 194.26 82.7007 194.355 82.7319C194.45 82.7632 194.55 82.7755 194.649 82.7681C194.749 82.7607 194.846 82.7338 194.935 82.6888C195.024 82.6439 195.103 82.5819 195.169 82.5063C195.234 82.4307 195.283 82.3431 195.315 82.2483C195.346 82.1536 195.358 82.0536 195.351 81.9541C195.343 81.8546 195.316 81.7575 195.271 81.6684C195.227 81.5793 195.165 81.4999 195.089 81.4348C194.233 80.5969 193.189 79.9757 192.044 79.6231C190.899 79.2704 189.687 79.1966 188.508 79.4076C188.408 79.4179 188.312 79.4487 188.225 79.4982C188.138 79.5477 188.062 79.6147 188.002 79.695C187.942 79.7753 187.899 79.8671 187.877 79.9647C187.854 80.0623 187.852 80.1635 187.871 80.2619C187.887 80.3935 187.942 80.5172 188.03 80.6167C188.108 80.7053 188.206 80.7748 188.315 80.82C188.424 80.8652 188.542 80.8848 188.66 80.8773Z" fill="#3D3D3D"/>
<path opacity="0.3" d="M188.66 80.8773C189.599 80.6999 190.567 80.7457 191.485 81.011C192.403 81.2764 193.246 81.7539 193.945 82.405C193.985 82.4732 194.037 82.5344 194.097 82.586C194.173 82.6511 194.26 82.7007 194.355 82.7319C194.45 82.7632 194.55 82.7755 194.649 82.7681C194.749 82.7607 194.846 82.7338 194.935 82.6888C195.024 82.6439 195.103 82.5819 195.169 82.5063C195.234 82.4307 195.283 82.3431 195.315 82.2483C195.346 82.1536 195.358 82.0536 195.351 81.9541C195.343 81.8546 195.316 81.7575 195.271 81.6684C195.227 81.5793 195.165 81.4999 195.089 81.4348C194.233 80.5969 193.189 79.9757 192.044 79.6231C190.899 79.2704 189.687 79.1966 188.508 79.4076C188.408 79.4179 188.312 79.4487 188.225 79.4982C188.138 79.5477 188.062 79.6147 188.002 79.695C187.942 79.7753 187.899 79.8671 187.877 79.9647C187.854 80.0623 187.852 80.1635 187.871 80.2619C187.887 80.3935 187.942 80.5172 188.03 80.6167C188.108 80.7053 188.206 80.7748 188.315 80.82C188.424 80.8652 188.542 80.8848 188.66 80.8773Z" fill="#3D3D3D"/>
<path d="M210.626 79.3426C210.614 79.1467 210.529 78.9625 210.386 78.8278C210.243 78.6932 210.054 78.6183 209.858 78.6186C208.662 78.588 207.477 78.8481 206.404 79.3765C205.331 79.9049 204.402 80.6858 203.697 81.6522C203.643 81.7333 203.605 81.8246 203.587 81.9206C203.569 82.0165 203.57 82.1151 203.591 82.2105C203.612 82.3059 203.652 82.396 203.709 82.4755C203.766 82.555 203.838 82.6222 203.921 82.673H203.972C204.136 82.7716 204.333 82.801 204.519 82.7548C204.705 82.7087 204.865 82.5908 204.964 82.4269C205.538 81.6751 206.282 81.0705 207.136 80.6627C207.989 80.2549 208.927 80.0555 209.873 80.0811C209.998 80.0867 210.123 80.0595 210.234 80.0024C210.346 79.9453 210.441 79.8602 210.51 79.7553C210.579 79.6281 210.618 79.4871 210.626 79.3426Z" fill="#3D3D3D"/>
<path opacity="0.3" d="M210.626 79.3426C210.614 79.1467 210.529 78.9625 210.386 78.8278C210.243 78.6932 210.054 78.6183 209.858 78.6186C208.662 78.588 207.477 78.8481 206.404 79.3765C205.331 79.9049 204.402 80.6858 203.697 81.6522C203.643 81.7333 203.605 81.8246 203.587 81.9206C203.569 82.0165 203.57 82.1151 203.591 82.2105C203.612 82.3059 203.652 82.396 203.709 82.4755C203.766 82.555 203.838 82.6222 203.921 82.673H203.972C204.136 82.7716 204.333 82.801 204.519 82.7548C204.705 82.7087 204.865 82.5908 204.964 82.4269C205.538 81.6751 206.282 81.0705 207.136 80.6627C207.989 80.2549 208.927 80.0555 209.873 80.0811C209.998 80.0867 210.123 80.0595 210.234 80.0024C210.346 79.9453 210.441 79.8602 210.51 79.7553C210.579 79.6281 210.618 79.4871 210.626 79.3426Z" fill="#3D3D3D"/>
<path d="M174.679 114.646C172.745 114.279 170.921 113.477 169.343 112.3C169.343 114.421 167.895 118.092 167.895 118.092C161.148 115.869 155.587 102.374 154.863 97.8994C151.113 104.872 151.439 100.861 151.149 97.8994C150.729 93.635 150.621 89.2114 152.076 85.1932C153.531 81.175 156.847 77.5767 161.075 76.8817C161.862 76.8097 162.653 76.9497 163.368 77.2871C164.082 77.6245 164.693 78.147 165.137 78.8003C165.856 80.091 166.325 81.5058 166.52 82.9705C168.496 93.5482 168.409 105.9 174.679 114.646Z" fill="#3D3D3D"/>
<path opacity="0.3" d="M174.679 114.646C172.745 114.279 170.921 113.477 169.343 112.3C169.343 114.421 167.895 118.092 167.895 118.092C161.148 115.869 155.587 102.374 154.863 97.8994C151.113 104.872 151.439 100.861 151.149 97.8994C150.729 93.635 150.621 89.2114 152.076 85.1932C153.531 81.175 156.847 77.5767 161.075 76.8817C161.862 76.8097 162.653 76.9497 163.368 77.2871C164.082 77.6245 164.693 78.147 165.137 78.8003C165.856 80.091 166.325 81.5058 166.52 82.9705C168.496 93.5482 168.409 105.9 174.679 114.646Z" fill="#3D3D3D"/>
<path d="M165.115 90.3924C170.277 90.5082 173.426 97.017 173.977 101.47C174.621 106.429 171.291 110.505 166.505 108.311C164.721 107.484 163.12 106.308 161.796 104.853C160.472 103.399 159.451 101.695 158.794 99.8406C157.194 95.2359 159.946 90.2838 165.115 90.3924Z" fill="#3D3D3D"/>
<path opacity="0.7" d="M165.115 90.3924C170.277 90.5082 173.426 97.017 173.977 101.47C174.621 106.429 171.291 110.505 166.505 108.311C164.721 107.484 163.12 106.308 161.796 104.853C160.472 103.399 159.451 101.695 158.794 99.8406C157.194 95.2359 159.946 90.2838 165.115 90.3924Z" fill="white"/>
<path d="M175.454 75.2079C176.804 76.6623 177.813 78.3997 178.407 80.2935C179.001 82.1873 179.164 84.1898 178.886 86.1548C178.285 90.0789 172.732 96.4501 172.992 96.0664C173.214 95.652 173.295 95.177 173.224 94.7125C173.095 92.9417 172.644 91.2093 171.892 89.6011C171.421 91.7731 170.704 96.327 168.467 96.356C167.577 94.7415 166.483 93.2645 166.636 91.4183C166.121 93.3079 165.644 95.2048 165.13 97.0872C160.786 94.4953 158.034 88.5295 158.932 83.5484C159.13 82.336 159.565 81.1746 160.214 80.1311C161.025 78.9835 162.001 77.9613 163.11 77.0976C165.948 74.6939 169.705 72.2975 173.13 73.7382C173.622 73.9699 175.584 74.6867 175.454 75.2079Z" fill="#3D3D3D"/>
<path opacity="0.3" d="M175.454 75.2079C176.804 76.6623 177.813 78.3997 178.407 80.2935C179.001 82.1873 179.164 84.1898 178.886 86.1548C178.285 90.0789 172.732 96.4501 172.992 96.0664C173.214 95.652 173.295 95.177 173.224 94.7125C173.095 92.9417 172.644 91.2093 171.892 89.6011C171.421 91.7731 170.704 96.327 168.467 96.356C167.577 94.7415 166.483 93.2645 166.636 91.4183C166.121 93.3079 165.644 95.2048 165.13 97.0872C160.786 94.4953 158.034 88.5295 158.932 83.5484C159.13 82.336 159.565 81.1746 160.214 80.1311C161.025 78.9835 162.001 77.9613 163.11 77.0976C165.948 74.6939 169.705 72.2975 173.13 73.7382C173.622 73.9699 175.584 74.6867 175.454 75.2079Z" fill="#3D3D3D"/>
<path d="M203.444 105.227C203.444 105.227 199.02 103.432 185.981 101.875C186.705 106.61 189.601 108.608 196.269 109.332C202.937 110.056 203.444 105.227 203.444 105.227Z" fill="#263238"/>
<path d="M202.85 105.06C202.651 105.58 202.32 106.038 201.889 106.391C201.459 106.744 200.944 106.979 200.396 107.073C196.545 106.608 192.75 105.764 189.065 104.553C188.441 104.411 187.871 104.095 187.42 103.641C186.969 103.187 186.655 102.615 186.517 101.99C192.043 102.512 197.511 103.54 202.85 105.06Z" fill="white"/>
<path d="M200.135 106.682C196.849 105.347 193.376 104.529 189.84 104.257C188.848 104.365 187.905 104.74 187.11 105.343C188.558 107.689 191.454 108.854 196.211 109.39C198.001 109.707 199.846 109.37 201.409 108.442C201.065 107.801 200.637 107.209 200.135 106.682Z" fill="white"/>
<path d="M211.951 136.467C211.392 141.717 209.429 146.719 206.267 150.947C206.036 151.258 205.797 151.57 205.543 151.874C198.506 160.786 185.858 163.552 175.338 158.868C172.012 157.427 168.819 155.697 165.796 153.698C159.83 149.687 154.682 144.113 152.257 137.568L170.755 135.186L183.403 133.557L192.048 134.44L211.951 136.467Z" fill="#FFB573"/>
<path d="M120.488 148.327C119.764 202.627 79.6904 249.687 75.5564 303.864H274.446C254.675 261.51 242.286 216.089 237.812 169.562L234.735 137.562H132.948C132.948 137.562 120.56 143.013 120.488 148.327Z" fill="#3D3D3D"/>
<path d="M120.488 148.327C119.764 202.627 79.6904 249.687 75.5564 303.864H274.446C254.675 261.51 242.286 216.089 237.812 169.562L234.735 137.562H132.948C132.948 137.562 120.56 143.013 120.488 148.327Z" fill="#ACF75F"/>
<path opacity="0.2" d="M100.303 303.789C100.303 303.789 99.1442 247.874 117.679 190.027C136.213 132.179 112.944 207.374 116.564 274.395C117.592 293.718 122.653 304.079 122.653 304.079L100.303 303.789Z" fill="white"/>
<path opacity="0.2" d="M256.194 304.082C256.194 304.082 231.897 247.733 227.531 173.356C227.531 173.356 221.58 239.175 242.113 303.865L256.194 304.082Z" fill="white"/>
<path d="M249.7 128.279C249.799 128.23 249.901 128.189 250.005 128.155L249.889 128.206L249.7 128.279Z" fill="#3D3D3D"/>
<path d="M251.301 127.686L250.787 127.874L250.367 128.026H250.301L250.005 128.134C250.417 127.99 250.852 127.838 251.301 127.686Z" fill="#3D3D3D"/>
<path d="M303.225 130.567C303.225 150.433 267.575 162.937 251.669 167.491C236.581 172.559 227.531 173.319 227.531 173.319C226.974 168.07 215.592 137.264 215.592 137.264C215.592 137.264 222.398 134.368 227.278 134.802H227.401C233.112 135.253 238.825 133.944 243.77 131.052C245.568 130.013 247.442 129.111 249.374 128.351L249.7 128.228L249.888 128.156L250.301 127.996H250.366L250.786 127.844L251.3 127.656L251.901 127.461L252.082 127.403L252.27 127.345L252.408 127.309H252.458C253.865 126.901 255.294 126.573 256.737 126.324C260.971 125.498 265.357 126.004 269.291 127.772C270.039 128.138 270.866 128.312 271.698 128.278C272.53 128.244 273.34 128.003 274.055 127.576C274.779 127.113 275.091 126.614 274.396 126.223L240.556 87.5175L250.873 81.8486C250.873 81.8486 303.225 109.513 303.225 130.567Z" fill="#3D3D3D"/>
<path d="M303.225 130.567C303.225 150.433 267.575 162.937 251.669 167.491C236.581 172.559 227.531 173.319 227.531 173.319C226.974 168.07 215.592 137.264 215.592 137.264C215.592 137.264 222.398 134.368 227.278 134.802H227.401C233.112 135.253 238.825 133.944 243.77 131.052C245.568 130.013 247.442 129.111 249.374 128.351L249.7 128.228L249.888 128.156L250.301 127.996H250.366L250.786 127.844L251.3 127.656L251.901 127.461L252.082 127.403L252.27 127.345L252.408 127.309H252.458C253.865 126.901 255.294 126.573 256.737 126.324C260.971 125.498 265.357 126.004 269.291 127.772C270.039 128.138 270.866 128.312 271.698 128.278C272.53 128.244 273.34 128.003 274.055 127.576C274.779 127.113 275.091 126.614 274.396 126.223L240.556 87.5175L250.873 81.8486C250.873 81.8486 303.225 109.513 303.225 130.567Z" fill="#3D3D3D"/>
<g opacity="0.3">
<path d="M303.226 130.566C303.226 150.432 267.576 162.936 251.669 167.49C236.581 172.558 227.531 173.318 227.531 173.318C226.974 168.069 215.593 137.263 215.593 137.263C215.593 137.263 222.398 134.367 227.278 134.801H227.401C233.112 135.252 238.825 133.943 243.771 131.051C245.569 130.012 247.442 129.11 249.374 128.35L249.7 128.227L249.888 128.155L250.301 127.995H250.366L250.786 127.843L251.3 127.655L251.901 127.46L252.082 127.402L252.27 127.344L252.408 127.308H252.459C253.866 126.9 255.294 126.572 256.737 126.323C260.971 125.497 265.357 126.003 269.292 127.771C270.039 128.137 270.866 128.311 271.698 128.277C272.53 128.243 273.34 128.002 274.056 127.576C274.78 127.112 275.091 126.613 274.396 126.222L240.556 87.5166L250.873 81.8477C250.873 81.8477 303.226 109.512 303.226 130.566Z" fill="white"/>
</g>
<path d="M243.343 88.5234L228.921 82.811L220.233 71.227L232.715 68.4541L244.516 74.5719L251.597 82.2753C251.925 82.633 252.158 83.0675 252.274 83.5387C252.39 84.01 252.386 84.5029 252.262 84.9722C252.138 85.4415 251.899 85.872 251.565 86.2244C251.231 86.5767 250.814 86.8395 250.352 86.9885L245.284 88.603C244.647 88.8006 243.962 88.7724 243.343 88.5234Z" fill="#3D3D3D"/>
<path opacity="0.7" d="M243.343 88.5234L228.921 82.811L220.233 71.227L232.715 68.4541L244.516 74.5719L251.597 82.2753C251.925 82.633 252.158 83.0675 252.274 83.5387C252.39 84.01 252.386 84.5029 252.262 84.9722C252.138 85.4415 251.899 85.872 251.565 86.2244C251.231 86.5767 250.814 86.8395 250.352 86.9885L245.284 88.603C244.647 88.8006 243.962 88.7724 243.343 88.5234Z" fill="white"/>
<path opacity="0.2" d="M233.902 157.521L235.35 172.168C235.35 172.168 256.701 167.216 268.77 161.692L259.076 162.22C251.056 162.77 243.028 161.26 235.756 157.833L233.902 157.521Z" fill="#3D3D3D"/>
<path d="M236.458 171.827C236.248 218.446 227.683 222.848 228.089 262.972C228.089 262.972 147.37 263.297 144.633 263.37C138.117 209.374 131.478 206.898 133.23 165.434C132.383 151.816 140.108 139.841 147.877 138.284L183.418 133.557L217.605 137.177C226.293 138.422 234.149 145.271 236.458 171.827Z" fill="#3D3D3D"/>
<path opacity="0.3" d="M236.458 171.827C236.248 218.446 227.683 222.848 228.089 262.972C228.089 262.972 147.37 263.297 144.633 263.37C138.117 209.374 131.478 206.898 133.23 165.434C132.383 151.816 140.108 139.841 147.877 138.284L183.418 133.557L217.605 137.177C226.293 138.422 234.149 145.271 236.458 171.827Z" fill="white"/>
<path d="M178.162 80.7835C175.99 76.0051 173.094 73.6956 174.781 73.9562C179.313 74.6802 182.086 70.691 185.417 72.9354C187.038 74.7888 185.17 78.2351 185.091 78.0468C186.756 78.836 188.834 78.2133 190.202 76.997C191.57 75.7807 192.048 73.6521 192.722 71.929C193.226 73.7819 193.181 75.7414 192.591 77.569C193.786 78.5174 196.248 76.7364 197.37 75.7011C198.491 74.5133 199.33 73.0878 199.824 71.5308C200.251 73.196 200.584 74.8902 199.39 76.8957C201.084 76.9898 203.307 76.4685 204.422 75.2015C205.004 74.5415 205.436 73.7622 205.686 72.9181C205.936 72.0739 205.999 71.1854 205.87 70.3145C206.253 71.1688 206.311 74.6585 205.551 75.2449C208.447 74.2965 211.133 70.6765 210.981 67.6574C210.842 66.1427 210.339 64.684 209.516 63.4047C208.693 62.1255 207.574 61.0636 206.253 60.3088C204.957 59.5341 203.517 59.0273 202.155 58.3613C200.063 57.3332 186.77 47.4144 167.251 58.7233C155.139 65.7461 157.506 79.7193 158.947 81.2397C160.735 83.1148 163.552 83.7447 166.151 83.4841C168.75 83.2234 178.727 82.0505 178.162 80.7835Z" fill="#3D3D3D"/>
<path opacity="0.3" d="M178.162 80.7835C175.99 76.0051 173.094 73.6956 174.781 73.9562C179.313 74.6802 182.086 70.691 185.417 72.9354C187.038 74.7888 185.17 78.2351 185.091 78.0468C186.756 78.836 188.834 78.2133 190.202 76.997C191.57 75.7807 192.048 73.6521 192.722 71.929C193.226 73.7819 193.181 75.7414 192.591 77.569C193.786 78.5174 196.248 76.7364 197.37 75.7011C198.491 74.5133 199.33 73.0878 199.824 71.5308C200.251 73.196 200.584 74.8902 199.39 76.8957C201.084 76.9898 203.307 76.4685 204.422 75.2015C205.004 74.5415 205.436 73.7622 205.686 72.9181C205.936 72.0739 205.999 71.1854 205.87 70.3145C206.253 71.1688 206.311 74.6585 205.551 75.2449C208.447 74.2965 211.133 70.6765 210.981 67.6574C210.842 66.1427 210.339 64.684 209.516 63.4047C208.693 62.1255 207.574 61.0636 206.253 60.3088C204.957 59.5341 203.517 59.0273 202.155 58.3613C200.063 57.3332 186.77 47.4144 167.251 58.7233C155.139 65.7461 157.506 79.7193 158.947 81.2397C160.735 83.1148 163.552 83.7447 166.151 83.4841C168.75 83.2234 178.727 82.0505 178.162 80.7835Z" fill="#3D3D3D"/>
<path d="M203.444 105.227C203.444 105.227 199.02 103.432 185.981 101.875C186.705 106.61 189.601 108.608 196.269 109.332C202.937 110.056 203.444 105.227 203.444 105.227Z" fill="#3D3D3D"/>
<path opacity="0.3" d="M203.444 105.227C203.444 105.227 199.02 103.432 185.981 101.875C186.705 106.61 189.601 108.608 196.269 109.332C202.937 110.056 203.444 105.227 203.444 105.227Z" fill="#3D3D3D"/>
<path d="M202.85 105.06C202.651 105.58 202.32 106.038 201.889 106.391C201.459 106.744 200.944 106.979 200.396 107.073C196.545 106.608 192.75 105.764 189.065 104.553C188.441 104.411 187.871 104.095 187.42 103.641C186.969 103.187 186.655 102.615 186.517 101.99C192.043 102.512 197.511 103.54 202.85 105.06Z" fill="white"/>
<path d="M200.135 106.682C196.849 105.347 193.376 104.529 189.84 104.257C188.848 104.365 187.905 104.74 187.11 105.343C188.558 107.689 191.454 108.854 196.211 109.39C198.001 109.707 199.846 109.37 201.409 108.442C201.065 107.801 200.637 107.209 200.135 106.682Z" fill="white"/>
<path d="M140.456 242.807C140.456 242.807 157.528 233.757 157.434 234.749C157.34 235.741 157.789 254.89 157.789 254.89L139.175 254.463L140.456 242.807Z" fill="#3D3D3D"/>
<path d="M157.419 234.749C157.419 234.749 173.137 235.263 173.051 237.008C172.964 238.753 171.27 253.399 171.27 253.399L157.774 254.898L157.419 234.749Z" fill="#3D3D3D"/>
<g opacity="0.7">
<path d="M173.036 237.01C172.949 238.762 171.262 253.394 171.262 253.394L157.767 254.892L139.153 254.465L140.434 242.809C140.434 242.809 157.506 233.759 157.412 234.751C157.419 234.751 173.137 235.301 173.036 237.01Z" fill="white"/>
</g>
<path d="M211.951 136.467C211.392 141.717 209.429 146.719 206.267 150.947C206.036 151.258 205.797 151.57 205.543 151.874C198.506 160.786 185.858 163.552 175.338 158.868C172.012 157.427 168.819 155.697 165.796 153.698C159.83 149.687 154.682 144.113 152.257 137.568L170.755 135.186L183.403 133.557L192.048 134.44L211.951 136.467Z" fill="#3D3D3D"/>
<path opacity="0.7" d="M211.951 136.467C211.392 141.717 209.429 146.719 206.267 150.947C206.036 151.258 205.797 151.57 205.543 151.874C198.506 160.786 185.858 163.552 175.338 158.868C172.012 157.427 168.819 155.697 165.796 153.698C159.83 149.687 154.682 144.113 152.257 137.568L170.755 135.186L183.403 133.557L192.048 134.44L211.951 136.467Z" fill="white"/>
<path opacity="0.2" d="M133.346 183.484C133.372 191.626 134.099 199.75 135.518 207.767L141.563 170.032L133.346 183.484Z" fill="#3D3D3D"/>
<path d="M100.578 210.785L141.013 239.354L139.16 256.158C139.16 256.158 78.4741 242.207 69.2865 223.274C64.9932 214.441 69.8295 203.639 77.3012 193.648C77.3046 193.636 77.3046 193.624 77.3012 193.612C86.1847 179.081 94.2573 170.444 100.346 165.34C106.318 160.48 111.505 154.729 115.724 148.29C126.207 131.833 149.752 138.501 149.752 138.501C144.387 151.055 144.329 174.933 144.329 174.933C144.329 174.933 139.066 178.9 133.317 183.483C133.259 187.357 130.906 192.099 126.359 197.456C120.386 204.523 102.619 208.548 100.578 210.785Z" fill="#3D3D3D"/>
<path opacity="0.3" d="M100.578 210.785L141.013 239.354L139.16 256.158C139.16 256.158 78.4741 242.207 69.2865 223.274C64.9932 214.441 69.8295 203.639 77.3012 193.648C77.3046 193.636 77.3046 193.624 77.3012 193.612C86.1847 179.081 94.2573 170.444 100.346 165.34C106.318 160.48 111.505 154.729 115.724 148.29C126.207 131.833 149.752 138.501 149.752 138.501C144.387 151.055 144.329 174.933 144.329 174.933C144.329 174.933 139.066 178.9 133.317 183.483C133.259 187.357 130.906 192.099 126.359 197.456C120.386 204.523 102.619 208.548 100.578 210.785Z" fill="white"/>
<path d="M131.123 133.637C143.907 144.269 158.432 152.611 174.057 158.296C174.057 153.395 172.493 143.491 169.713 137.351C168.923 135.628 167.924 133.898 166.31 132.906C164.695 131.914 162.328 131.921 161.126 133.391C156.536 130.147 148.984 129.995 144.532 133.391C141.086 132.196 136.191 130.299 132.6 130.944C129.009 131.588 124.578 136.374 125.114 139.986C128.426 138.401 132.018 137.481 135.685 137.279C134.7 136.113 135.663 137.315 131.123 133.637Z" fill="#3D3D3D"/>
<path d="M131.123 133.637C143.907 144.269 158.432 152.611 174.057 158.296C174.057 153.395 172.493 143.491 169.713 137.351C168.923 135.628 167.924 133.898 166.31 132.906C164.695 131.914 162.328 131.921 161.126 133.391C156.536 130.147 148.984 129.995 144.532 133.391C141.086 132.196 136.191 130.299 132.6 130.944C129.009 131.588 124.578 136.374 125.114 139.986C128.426 138.401 132.018 137.481 135.685 137.279C134.7 136.113 135.663 137.315 131.123 133.637Z" fill="#ACF75F"/>
<path d="M224.027 134.875C221.952 133.936 219.699 133.45 217.421 133.45C215.142 133.45 212.89 133.936 210.814 134.875C207.976 132.797 203.61 132.355 200.678 134.346C200.217 133.795 199.646 133.345 199.002 133.026C198.357 132.707 197.654 132.525 196.935 132.493C195.487 132.442 194.56 133.442 193.569 134.477C195.654 135.527 196.718 137.865 197.457 140.081C199.341 145.692 200.145 151.611 199.824 157.522C209.815 152.642 218.293 144.454 224.027 134.875Z" fill="#3D3D3D"/>
<path d="M224.027 134.875C221.952 133.936 219.699 133.45 217.421 133.45C215.142 133.45 212.89 133.936 210.814 134.875C207.976 132.797 203.61 132.355 200.678 134.346C200.217 133.795 199.646 133.345 199.002 133.026C198.357 132.707 197.654 132.525 196.935 132.493C195.487 132.442 194.56 133.442 193.569 134.477C195.654 135.527 196.718 137.865 197.457 140.081C199.341 145.692 200.145 151.611 199.824 157.522C209.815 152.642 218.293 144.454 224.027 134.875Z" fill="#ACF75F"/>
<path d="M222.072 191.296C222.072 202.294 206.419 221.95 187.11 221.95C167.801 221.95 152.148 202.294 152.148 191.296C152.148 180.299 167.801 171.379 187.11 171.379C206.419 171.379 222.072 180.277 222.072 191.296Z" fill="white"/>
<path d="M217.373 192.244C217.373 201.301 204.479 217.497 188.573 217.497C172.666 217.497 159.779 201.272 159.779 192.244C159.779 183.216 172.666 175.831 188.573 175.831C204.479 175.831 217.373 183.172 217.373 192.244Z" fill="#3D3D3D"/>
<path d="M217.373 192.244C217.373 201.301 204.479 217.497 188.573 217.497C172.666 217.497 159.779 201.272 159.779 192.244C159.779 183.216 172.666 175.831 188.573 175.831C204.479 175.831 217.373 183.172 217.373 192.244Z" fill="#ACF75F"/>
<path d="M228.104 263.37H144.634V276.989H228.104V263.37Z" fill="white"/>
<path d="M144.633 276.989L136.647 303.864H230.804L228.11 276.989H144.633Z" fill="#3D3D3D"/>
<path opacity="0.2" d="M144.633 276.989L136.647 303.864H230.804L228.11 276.989H144.633Z" fill="white"/>
<path d="M206.499 262.501H181.543V277.423H206.499V262.501Z" fill="#263238"/>
<path opacity="0.7" d="M206.499 262.501H181.543V277.423H206.499V262.501Z" fill="white"/>
<path opacity="0.7" d="M191.99 262.501L184.641 277.423H190.086L197.666 262.501H191.99Z" fill="white"/>
<path opacity="0.7" d="M199.998 262.501L192.649 277.423H196.537L204.117 262.501H199.998Z" fill="white"/>
<path opacity="0.2" d="M214.883 85.859C214.579 87.9079 212.979 90.6157 211.545 92.6863C211.778 96.8297 211.535 100.986 210.821 105.074C209.953 109.889 207.519 114.282 203.898 117.572C200.277 120.862 195.671 122.864 190.795 123.268C190.705 124.908 190.705 126.551 190.795 128.191C190.897 130.313 191.317 132.407 192.041 134.403L211.929 136.43C211.37 141.68 209.407 146.682 206.245 150.91C206.014 151.222 205.775 151.533 205.521 151.837C198.484 160.75 185.836 163.515 175.316 158.831C171.998 157.389 168.812 155.659 165.796 153.662C159.83 149.651 154.682 144.076 152.257 137.531L170.755 135.149C171.711 132.441 171.928 128.271 172.362 125.013C172.666 122.79 172.203 117.983 171.291 113.472C170.596 113.128 169.935 112.72 169.314 112.256C169.314 114.377 167.866 118.048 167.866 118.048C161.119 115.825 155.558 102.33 154.834 97.8557C151.077 104.828 151.41 100.817 151.12 97.8557C150.7 93.5913 150.592 89.1677 152.047 85.1495C153.085 82.1613 155.134 79.629 157.839 77.9891C157.115 73.0804 158.114 63.9508 167.164 58.7018C186.712 47.3929 199.976 57.3117 202.068 58.3398C203.429 59.0059 204.863 59.5127 206.166 60.2873C207.486 61.0421 208.606 62.104 209.429 63.3833C210.252 64.6625 210.754 66.1212 210.894 67.6359C210.988 69.6052 209.887 71.8207 208.309 73.3917C215.028 74.2533 215.433 82.1594 214.883 85.859Z" fill="white"/>
<path opacity="0.2" d="M200.99 72.3499L200.743 71.9372C200.834 71.4004 200.834 70.8522 200.743 70.3154C200.933 70.9761 201.017 71.6629 200.99 72.3499Z" fill="white"/>
<path d="M146.35 282.228C144.314 282.891 142.236 283.418 140.13 283.806C139.805 283.864 139.486 283.922 139.175 283.965C138.154 284.117 137.198 284.211 136.279 284.255C122.269 284.979 121.907 273.279 121.56 267.32C121.215 259.352 121.413 251.37 122.154 243.428C123.124 232.373 124.963 220.89 127.634 212.296C131.5 199.902 137.77 198.54 143.092 198.446C144.12 198.446 145.126 198.446 146.067 198.446C146.067 198.446 145.387 201.958 145.061 205.346L142.947 220.362L140.007 241.198L139.551 244.449V244.63L137.958 255.91L137.589 258.509C137.423 260.24 137.3 262.68 139.189 264.07C139.456 264.276 139.748 264.446 140.058 264.576C141.289 265.127 143.106 265.351 145.749 265.04L146.017 272.439L146.067 273.771L146.154 276.074L146.299 280.258L146.35 282.228Z" fill="#FFB573"/>
<path d="M114.501 239.209C118.511 243.791 121.741 243.234 127.286 244.103C132.832 244.972 137.611 244.668 143.214 244.153C144.351 228.566 146.27 213.021 146.11 197.448C141.564 197.789 136.698 197.6 132.97 199.859C128.003 202.878 127.67 210.632 124.325 216.098C120.372 222.557 115.304 227.849 110.287 233.076C112.111 236.262 112.22 236.566 114.501 239.209Z" fill="#E6FDCF"/>
<g opacity="0.6">
<path d="M114.501 239.207C118.512 243.79 121.741 243.232 127.287 244.101C132.833 244.97 137.611 244.666 143.215 244.152C144.352 228.564 146.27 213.02 146.111 197.446C141.564 197.787 136.699 197.598 132.97 199.857C128.004 202.876 127.671 210.63 124.326 216.097C120.373 222.555 115.305 227.847 110.287 233.074C112.112 236.26 112.22 236.564 114.501 239.207Z" fill="#E6FDCF"/>
</g>
<path opacity="0.2" d="M142.947 220.354L135.215 244.652H144.974L142.947 220.354Z" fill="#E6FDCF"/>
<path d="M217.649 248.056C216.759 252.038 215.694 255.941 214.608 260.914C214.377 261.979 214.138 263.086 213.884 264.274C213.559 265.924 213.233 267.677 212.921 269.588C212.574 271.76 212.234 274.077 211.908 276.654C211.618 278.884 211.35 281.288 211.097 283.894C210.988 285.031 210.873 286.204 210.771 287.435C210.568 289.831 210.373 292.387 210.199 295.116C210.025 297.846 209.866 300.872 209.721 304.043C207.361 303.985 137.604 304.043 137.604 304.043C137.995 299.402 138.328 295.037 138.646 290.823C138.813 288.484 138.979 286.196 139.117 283.938V283.887C139.168 283.163 139.211 282.511 139.247 281.831C139.356 280.108 139.45 278.406 139.537 276.712C139.747 272.658 139.906 268.647 140.007 264.556C140.007 264.382 140.007 264.209 140.007 264.035C140.065 261.515 140.102 258.967 140.116 256.346C140.116 252.581 140.116 248.693 140.036 244.61C140.036 244.537 140.036 244.465 140.036 244.393C140.036 243.336 140 242.264 139.971 241.178C139.884 237.848 139.769 234.373 139.609 230.716C139.414 226.155 139.16 221.304 138.842 216.135C138.465 210.017 138.9 201.887 143.048 198.433C143.459 198.088 143.908 197.791 144.388 197.55C145.099 197.189 145.865 196.945 146.654 196.826L168.555 193.416L176.193 192.229L187.444 194.401L212.132 199.251C212.428 199.308 212.72 199.381 213.008 199.469C214.604 199.935 216.003 200.911 216.99 202.249C219.539 205.659 220.067 211.661 219.561 219.741C220.19 233.706 219.213 241.004 217.649 248.056Z" fill="#E6FDCF"/>
<path opacity="0.6" d="M217.649 248.056C216.759 252.038 215.694 255.941 214.608 260.914C214.377 261.979 214.138 263.086 213.884 264.274C213.559 265.924 213.233 267.677 212.921 269.588C212.574 271.76 212.234 274.077 211.908 276.654C211.618 278.884 211.35 281.288 211.097 283.894C210.988 285.031 210.873 286.204 210.771 287.435C210.568 289.831 210.373 292.387 210.199 295.116C210.025 297.846 209.866 300.872 209.721 304.043C207.361 303.985 137.604 304.043 137.604 304.043C137.995 299.402 138.328 295.037 138.646 290.823C138.813 288.484 138.979 286.196 139.117 283.938V283.887C139.168 283.163 139.211 282.511 139.247 281.831C139.356 280.108 139.45 278.406 139.537 276.712C139.747 272.658 139.906 268.647 140.007 264.556C140.007 264.382 140.007 264.209 140.007 264.035C140.065 261.515 140.102 258.967 140.116 256.346C140.116 252.581 140.116 248.693 140.036 244.61C140.036 244.537 140.036 244.465 140.036 244.393C140.036 243.336 140 242.264 139.971 241.178C139.884 237.848 139.769 234.373 139.609 230.716C139.414 226.155 139.16 221.304 138.842 216.135C138.465 210.017 138.9 201.887 143.048 198.433C143.459 198.088 143.908 197.791 144.388 197.55C145.099 197.189 145.865 196.945 146.654 196.826L168.555 193.416L176.193 192.229L187.444 194.401L212.132 199.251C212.428 199.308 212.72 199.381 213.008 199.469C214.604 199.935 216.003 200.911 216.99 202.249C219.539 205.659 220.067 211.661 219.561 219.741C220.19 233.706 219.213 241.004 217.649 248.056Z" fill="#E6FDCF"/>
<path d="M188.465 195.703C192.852 198.83 190.992 203.746 187.415 207.764C179.965 216.127 172.211 218.726 172.211 218.726C172.095 218.675 152.859 204.774 166.419 196.079C168.663 194.631 169.539 191.221 169.786 187.652C169.935 184.925 169.826 182.191 169.46 179.485C169.395 178.804 169.286 178.138 169.17 177.509C169.054 176.879 168.924 176.242 168.772 175.655L189.24 167.242C186.995 170.616 185.286 181.433 185.764 184.915C186.286 188.81 186.438 194.262 188.465 195.703Z" fill="#FFB573"/>
<path opacity="0.2" d="M169.851 187.651C170 184.925 169.891 182.19 169.525 179.484C169.46 178.804 169.351 178.138 169.235 177.508L185.011 174.481C181.724 177.79 177.062 184.494 169.851 187.651Z" fill="#E6FDCF"/>
<path d="M148.471 151.921C148.985 155.31 153.785 160.819 153.539 160.486C153.347 160.13 153.278 159.72 153.343 159.321C153.453 157.788 153.843 156.289 154.495 154.897C154.893 156.794 155.515 160.689 157.448 160.74C158.216 159.342 159.164 158.068 159.034 156.475C159.483 158.104 159.888 159.741 160.33 161.37C162.241 160.131 163.761 158.373 164.709 156.303C165.658 154.232 165.998 151.934 165.688 149.677C165.518 148.628 165.144 147.622 164.587 146.716C163.895 145.717 163.058 144.826 162.104 144.073C159.657 141.995 156.536 140.294 153.416 141.177C147.522 142.857 147.957 148.533 148.471 151.921Z" fill="#263238"/>
<path d="M152.569 167.67C155.103 181.476 171.632 188.76 182.542 178.87C188.841 173.172 189.848 166.374 190.992 155.774C191.173 154.167 191.354 152.48 191.564 150.706C191.898 147.912 191.608 145.078 190.716 142.409C190.349 141.294 189.863 140.222 189.268 139.209C187.137 135.362 183.723 132.385 179.621 130.798C175.519 129.21 170.991 129.112 166.824 130.521C153.199 135.126 150.274 155.246 152.569 167.67Z" fill="#FFB573"/>
<path d="M165.977 148.084C165.876 148.048 165.788 147.983 165.724 147.896C165.623 147.76 165.58 147.589 165.604 147.42C165.629 147.252 165.719 147.101 165.854 146.998C166.667 146.377 167.619 145.962 168.629 145.79C169.638 145.619 170.673 145.695 171.646 146.014C171.724 146.046 171.794 146.092 171.854 146.151C171.913 146.21 171.96 146.281 171.993 146.358C172.025 146.435 172.042 146.518 172.042 146.602C172.042 146.686 172.026 146.769 171.994 146.846C171.928 147.005 171.802 147.132 171.644 147.2C171.486 147.268 171.307 147.271 171.147 147.208C170.375 146.955 169.554 146.895 168.754 147.032C167.953 147.17 167.199 147.501 166.557 147.998C166.476 148.061 166.38 148.102 166.278 148.117C166.177 148.133 166.073 148.121 165.977 148.084Z" fill="#263238"/>
<path d="M158.983 149.056C158.914 148.975 158.827 148.911 158.729 148.869C158.631 148.828 158.525 148.81 158.419 148.817C157.59 148.922 156.749 148.832 155.961 148.556C155.173 148.279 154.461 147.823 153.879 147.224C153.767 147.092 153.607 147.008 153.433 146.992C153.26 146.976 153.088 147.028 152.952 147.137C152.823 147.248 152.741 147.404 152.722 147.574C152.703 147.743 152.749 147.913 152.851 148.05C153.567 148.818 154.457 149.403 155.446 149.757C156.434 150.111 157.493 150.223 158.534 150.084C158.622 150.078 158.708 150.054 158.786 150.014C158.864 149.974 158.933 149.918 158.989 149.85C159.045 149.783 159.087 149.704 159.112 149.62C159.138 149.536 159.145 149.447 159.135 149.36C159.109 149.248 159.057 149.144 158.983 149.056Z" fill="#263238"/>
<path d="M161.452 163.658C159.467 163.677 157.535 163.015 155.979 161.783C158.1 159.676 160.475 157.309 161.93 154.695L161.452 163.658Z" fill="#ED893E"/>
<path d="M156.515 155.484C155.973 155.441 155.445 155.291 154.961 155.043C154.478 154.794 154.048 154.452 153.698 154.036C153.665 154.002 153.64 153.961 153.623 153.916C153.606 153.872 153.598 153.824 153.599 153.776C153.6 153.729 153.611 153.682 153.631 153.638C153.65 153.594 153.678 153.555 153.713 153.522C153.747 153.489 153.788 153.464 153.833 153.447C153.877 153.43 153.925 153.422 153.973 153.423C154.02 153.424 154.067 153.435 154.111 153.455C154.155 153.474 154.194 153.502 154.227 153.537C155.03 154.384 156.29 155.224 157.709 154.391C157.792 154.343 157.891 154.328 157.984 154.351C158.077 154.374 158.158 154.433 158.209 154.514C158.257 154.598 158.27 154.697 158.245 154.79C158.221 154.884 158.161 154.964 158.078 155.014C157.609 155.308 157.069 155.471 156.515 155.484Z" fill="#263238"/>
<path d="M169.112 167.004C168.093 167.786 166.927 168.357 165.683 168.681C164.44 169.006 163.144 169.078 161.872 168.894C161.786 168.885 161.706 168.843 161.65 168.777C161.593 168.711 161.564 168.626 161.568 168.539C161.57 168.498 161.58 168.458 161.597 168.421C161.615 168.384 161.639 168.351 161.67 168.323C161.7 168.296 161.735 168.274 161.774 168.26C161.812 168.246 161.853 168.24 161.894 168.242C163.281 168.438 164.694 168.313 166.025 167.876C167.355 167.439 168.568 166.702 169.568 165.723C169.628 165.666 169.707 165.634 169.789 165.634C169.872 165.634 169.951 165.666 170.01 165.723C170.067 165.786 170.099 165.869 170.099 165.954C170.099 166.04 170.067 166.122 170.01 166.186C169.74 166.481 169.441 166.753 169.112 167.004Z" fill="#263238"/>
<path d="M183.788 175.93C185.459 175.617 187.037 174.926 188.4 173.91C188.4 175.742 189.631 178.884 189.631 178.884C195.459 176.965 200.259 165.302 200.903 161.435C204.147 167.459 203.864 163.998 204.118 161.435C204.48 157.75 204.567 153.935 203.314 150.46C202.062 146.984 199.187 143.878 195.538 143.278C194.859 143.214 194.175 143.333 193.557 143.623C192.94 143.914 192.411 144.364 192.027 144.928C191.403 146.049 190.995 147.277 190.825 148.548C189.131 157.678 189.203 168.357 183.788 175.93Z" fill="#263238"/>
<path d="M192.056 154.934C187.596 155.028 184.867 160.653 184.396 164.505C183.839 168.784 186.72 172.31 190.854 170.413C192.396 169.697 193.779 168.681 194.922 167.424C196.066 166.168 196.948 164.695 197.515 163.093C198.891 159.133 196.516 154.854 192.056 154.934Z" fill="#FFB573"/>
<path opacity="0.2" d="M204.429 225.982C204.429 225.982 199.013 250.49 202.771 265.281C206.529 280.072 214.029 287.53 214.029 287.53L215.369 225.99L204.429 225.982Z" fill="#E6FDCF"/>
<path opacity="0.2" d="M214.029 287.527C212.964 287.782 211.852 287.757 210.8 287.455C210.597 289.851 210.402 292.407 210.228 295.137C205.92 297.446 186.713 290.662 169.865 283.893C166.151 282.401 162.553 280.903 159.259 279.505C158.086 279.02 156.963 278.535 155.885 278.057C153.648 277.102 151.606 276.211 149.825 275.429C148.377 274.799 147.103 274.235 146.046 273.757C143.837 272.779 142.57 272.2 142.57 272.2L145.995 272.425L173.036 274.177L180.023 274.633L181.427 274.712L190.079 275.27L195.987 275.646H196.291L202.025 276.016L206.695 276.313L211.908 276.646L214 276.783C214 276.783 214.116 278.231 214.152 280.657V280.743C214.203 282.546 214.181 284.856 214.029 287.527Z" fill="#E6FDCF"/>
<path d="M225.164 248.149C224.093 259.472 222.515 270.658 221.211 277.999C220.306 283.111 217.418 286.687 214.029 287.542C212.965 287.796 211.852 287.771 210.8 287.469C210.641 287.426 210.489 287.375 210.33 287.317L184.41 280.635L184.186 280.569L181.413 279.845L181.457 274.705V274.292V272.258L181.514 265.836L185.019 266.024L202.141 266.936C202.488 267.034 202.852 267.049 203.205 266.98C204.69 266.698 205.92 264.96 206.101 262.672L206.435 257.705L207.159 246.751L208.556 225.965L209.837 206.721C209.98 204.645 210.307 202.586 210.815 200.567C212.993 200.66 215.119 201.257 217.027 202.312C221.059 204.484 225.44 209.096 226.149 218.552C226.743 226.4 226.192 237.332 225.164 248.149Z" fill="#FFB573"/>
<path d="M194.068 282.495L156.029 275.154C154.993 274.828 153.892 274.756 152.822 274.944L142.107 276.783C140.956 276.983 139.774 276.884 138.672 276.496C137.571 276.108 136.587 275.444 135.815 274.568L130.747 268.819C130.136 268.128 129.671 267.321 129.379 266.447C129.087 265.572 128.974 264.647 129.048 263.728C129.121 262.809 129.38 261.914 129.807 261.097C130.235 260.28 130.823 259.557 131.536 258.973L133.354 257.481C134.534 256.511 136.005 255.964 137.532 255.928C139.06 255.891 140.555 256.366 141.781 257.278C143.019 258.2 144.532 258.674 146.074 258.625H146.704C148.135 258.581 149.545 258.986 150.733 259.785C151.922 260.584 152.829 261.736 153.329 263.078L153.922 264.663L184.931 265.851L194.068 282.495Z" fill="#FFB573"/>
<path opacity="0.1" d="M148.471 265.569C150.288 265.214 152.091 264.925 153.915 264.628L153.329 263.064C152.83 261.722 151.922 260.57 150.733 259.772C149.545 258.973 148.136 258.567 146.704 258.611H146.074C144.532 258.661 143.019 258.186 141.781 257.265C140.555 256.353 139.06 255.877 137.533 255.914C136.005 255.951 134.534 256.498 133.354 257.468L131.537 258.959C130.361 259.925 129.539 261.254 129.201 262.737C128.863 264.221 129.027 265.775 129.669 267.155C133.137 267.48 145.582 266.134 148.471 265.569Z" fill="#E6FDCF"/>
<path opacity="0.2" d="M205.992 274.699C204.716 275.241 203.402 275.688 202.061 276.038C199.534 276.762 196.052 277.675 191.99 278.688C189.572 279.289 186.922 279.919 184.2 280.571C179.653 281.657 174.788 282.793 169.908 283.901C157.173 286.797 144.568 289.57 138.718 290.851C138.885 288.513 139.051 286.225 139.189 283.966C138.168 284.118 137.212 284.212 136.293 284.256V284.082L136.517 282.482L139.269 281.859L146.27 280.266L155.877 278.094L162.914 276.494L173.05 274.185L181.463 272.274L187.668 270.862L192.331 269.805C192.331 269.805 200.823 270.688 204.906 272.114C207.064 272.838 207.969 273.714 205.992 274.699Z" fill="#E6FDCF"/>
<path d="M126.092 264.332L184.468 263.253C185.549 263.161 186.593 262.817 187.516 262.247L196.769 256.52C197.761 255.904 198.894 255.553 200.06 255.499C201.226 255.446 202.386 255.693 203.43 256.216L210.279 259.64C211.102 260.053 211.833 260.627 212.429 261.327C213.026 262.028 213.476 262.842 213.752 263.719C214.028 264.597 214.125 265.522 214.037 266.438C213.949 267.354 213.678 268.243 213.24 269.052L212.132 271.137C211.4 272.478 210.241 273.536 208.838 274.142C207.436 274.748 205.871 274.868 204.393 274.482C202.901 274.091 193.533 275.619 191.52 273.454L190.362 272.223L143.917 283.156C140.625 283.932 137.239 284.241 133.861 284.075L126.092 264.332Z" fill="#FFB573"/>
<path d="M240.658 244.841C239.069 245.984 237.238 246.745 235.308 247.064C222.725 249.149 214.753 248.092 204.61 246.34C202.822 229.507 203.271 216.475 206.5 207.063C207.578 203.935 210.663 199.381 213.964 199.519C227.988 200.105 230.377 214.209 231.977 220.717C233.965 229.056 236.877 237.148 240.658 244.841Z" fill="#E6FDCF"/>
<path opacity="0.6" d="M240.658 244.841C239.069 245.984 237.238 246.745 235.308 247.064C222.725 249.149 214.753 248.092 204.61 246.34C202.822 229.507 203.271 216.475 206.5 207.063C207.578 203.935 210.663 199.381 213.964 199.519C227.988 200.105 230.377 214.209 231.977 220.717C233.965 229.056 236.877 237.148 240.658 244.841Z" fill="#E6FDCF"/>
<path d="M180.718 148.259C182.448 143.8 184.982 141.562 183.484 141.867C179.429 142.699 176.765 139.188 173.862 141.381C172.479 143.141 174.303 146.218 174.368 146.044C172.92 146.833 171.002 146.355 169.72 145.32C168.439 144.285 167.918 142.337 167.237 140.817C166.865 142.534 166.988 144.322 167.592 145.972C166.557 146.891 164.269 145.356 163.248 144.458C162.193 143.404 161.387 142.128 160.888 140.723C160.584 142.257 160.345 143.829 161.51 145.61C159.983 145.762 157.963 145.378 156.906 144.263C156.352 143.681 155.931 142.987 155.671 142.227C155.411 141.467 155.318 140.66 155.4 139.861C155.088 140.657 155.183 143.879 155.892 144.357C153.228 143.633 150.672 140.404 150.679 137.638C150.739 136.252 151.129 134.901 151.818 133.696C152.507 132.492 153.475 131.471 154.639 130.717C155.769 129.993 157.043 129.428 158.259 128.762C160.098 127.741 171.661 118.105 189.71 127.654C200.918 133.577 199.375 146.478 198.137 147.926C196.603 149.715 194.09 150.41 191.737 150.279C189.384 150.149 180.276 149.44 180.718 148.259Z" fill="#263238"/>
<path d="M183.121 141.831C181.95 143.09 181.076 144.595 180.562 146.237C180.049 147.878 179.909 149.613 180.153 151.315C180.667 154.703 185.474 160.22 185.221 159.88C185.029 159.524 184.96 159.114 185.025 158.714C185.135 157.182 185.525 155.682 186.176 154.291C186.582 156.188 187.197 160.083 189.138 160.133C189.905 158.736 190.846 157.462 190.716 155.869C191.165 157.498 191.57 159.134 192.019 160.763C193.929 159.523 195.447 157.765 196.396 155.695C197.345 153.625 197.685 151.327 197.377 149.071C197.204 148.021 196.828 147.015 196.269 146.11C195.57 145.117 194.726 144.236 193.764 143.496C191.317 141.418 188.073 139.347 185.076 140.6C184.7 140.766 183.005 141.382 183.121 141.831Z" fill="#263238"/>
<path d="M171.06 152.834C171.06 153.963 170.459 154.868 169.735 154.89C169.011 154.912 168.417 154.014 168.36 152.856C168.302 151.697 168.96 150.821 169.692 150.807C170.423 150.792 171.067 151.719 171.06 152.834Z" fill="#263238"/>
<path d="M59.5928 257.318C59.9437 255.685 60.1856 254.03 60.3168 252.366C61.0408 246.769 64.3277 242.439 68.5052 241.592L71.5243 240.97C71.5243 240.97 66.7893 240.97 64.8128 239.587C60.6281 236.691 59.6652 228.003 59.6652 228.003C59.6652 228.003 58.4923 236.691 54.3003 239.587C52.3238 240.97 47.5889 240.97 47.5889 240.97L50.6079 241.592C54.7927 242.439 58.1086 246.769 58.8036 252.366C58.9585 254.032 59.2222 255.686 59.5928 257.318Z" fill="black"/>
<path d="M59.5928 257.319C59.9437 255.686 60.1856 254.031 60.3168 252.367C61.0408 246.77 64.3277 242.44 68.5052 241.593L71.5243 240.971C71.5243 240.971 66.7893 240.971 64.8128 239.588C60.6281 236.692 59.6652 228.004 59.6652 228.004C59.6652 228.004 58.4923 236.692 54.3003 239.588C52.3238 240.971 47.5889 240.971 47.5889 240.971L50.6079 241.593C54.7927 242.44 58.1086 246.77 58.8036 252.367C58.9585 254.033 59.2222 255.687 59.5928 257.319Z" fill="#ACF75F"/>
<path d="M266.432 194.546C266.745 193.139 266.963 191.712 267.084 190.275C267.685 185.453 270.544 181.724 274.15 180.986L276.749 180.457C276.749 180.457 272.666 180.457 270.957 179.263C267.337 176.736 266.519 169.271 266.519 169.271C266.519 169.271 265.505 176.736 261.9 179.263C260.199 180.457 256.108 180.457 256.108 180.457L258.714 180.986C262.334 181.71 265.18 185.453 265.773 190.275C265.901 191.711 266.121 193.138 266.432 194.546Z" fill="black"/>
<path d="M266.432 194.549C266.745 193.142 266.963 191.715 267.084 190.278C267.685 185.456 270.544 181.727 274.15 180.989L276.749 180.46C276.749 180.46 272.666 180.46 270.957 179.266C267.337 176.739 266.519 169.274 266.519 169.274C266.519 169.274 265.505 176.739 261.9 179.266C260.199 180.46 256.108 180.46 256.108 180.46L258.714 180.989C262.334 181.713 265.18 185.456 265.773 190.278C265.901 191.714 266.121 193.141 266.432 194.549Z" fill="#ACF75F"/>
<path d="M121.371 117.766C121.516 117.708 121.907 114.87 122.327 111.496C123.203 104.408 127.395 98.9275 132.702 97.8487L136.525 97.0668C136.525 97.0668 130.523 97.0668 128.025 95.3147C122.718 91.6078 121.509 80.6465 121.509 80.6465C121.509 80.6465 120.061 91.6078 114.725 95.3147C112.22 97.0668 106.225 97.0668 106.225 97.0668L110.048 97.8487C115.34 98.9275 119.539 104.408 120.416 111.496C120.835 114.899 121.219 117.708 121.371 117.766Z" fill="black"/>
<path d="M121.371 117.766C121.516 117.708 121.907 114.87 122.327 111.496C123.203 104.408 127.395 98.9275 132.702 97.8487L136.525 97.0668C136.525 97.0668 130.523 97.0668 128.025 95.3147C122.718 91.6078 121.509 80.6465 121.509 80.6465C121.509 80.6465 120.061 91.6078 114.725 95.3147C112.22 97.0668 106.225 97.0668 106.225 97.0668L110.048 97.8487C115.34 98.9275 119.539 104.408 120.416 111.496C120.835 114.899 121.219 117.708 121.371 117.766Z" fill="#ACF75F"/>
<path d="M287.674 274.628C287.826 274.57 288.217 271.732 288.637 268.358C289.513 261.27 293.705 255.789 299.012 254.71L302.835 253.929C302.835 253.929 296.833 253.929 294.328 252.176C289.028 248.462 287.812 237.501 287.812 237.501C287.812 237.501 286.364 248.462 281.021 252.176C278.523 253.929 272.521 253.929 272.521 253.929L276.344 254.71C281.643 255.789 285.843 261.27 286.719 268.358C287.139 271.761 287.53 274.57 287.674 274.628Z" fill="black"/>
<path d="M287.674 274.63C287.826 274.572 288.217 271.734 288.637 268.36C289.513 261.272 293.705 255.791 299.012 254.712L302.835 253.93C302.835 253.93 296.833 253.93 294.328 252.178C289.028 248.464 287.812 237.503 287.812 237.503C287.812 237.503 286.364 248.464 281.021 252.178C278.523 253.93 272.521 253.93 272.521 253.93L276.344 254.712C281.643 255.791 285.843 261.272 286.719 268.36C287.139 271.763 287.53 274.572 287.674 274.63Z" fill="#ACF75F"/>
<path d="M226.728 119.461C226.96 118.416 227.122 117.357 227.213 116.29C227.655 112.714 229.776 109.941 232.455 109.391L234.388 109C234.388 109 231.354 109 230.094 108.116C227.408 106.241 226.793 100.695 226.793 100.695C226.793 100.695 226.069 106.241 223.368 108.116C222.101 109 219.068 109 219.068 109L221.001 109.391C223.68 109.941 225.801 112.714 226.243 116.29C226.338 117.356 226.5 118.416 226.728 119.461Z" fill="black"/>
<path d="M226.728 119.461C226.96 118.416 227.122 117.357 227.213 116.29C227.655 112.714 229.776 109.941 232.455 109.391L234.388 109C234.388 109 231.354 109 230.094 108.116C227.408 106.241 226.793 100.695 226.793 100.695C226.793 100.695 226.069 106.241 223.368 108.116C222.101 109 219.068 109 219.068 109L221.001 109.391C223.68 109.941 225.801 112.714 226.243 116.29C226.338 117.356 226.5 118.416 226.728 119.461Z" fill="#ACF75F"/>
<path d="M60.9324 164.009C61.1685 162.965 61.3306 161.905 61.4175 160.838C61.8591 157.261 63.9877 154.488 66.6592 153.938L68.5923 153.547C68.5923 153.547 65.5587 153.547 64.299 152.664C61.6202 150.789 61.0048 145.25 61.0048 145.25C61.0048 145.25 60.2808 150.789 57.573 152.664C56.306 153.547 53.2725 153.547 53.2725 153.547L55.2055 153.938C57.8843 154.488 60.0057 157.261 60.4473 160.838C60.5425 161.904 60.7046 162.963 60.9324 164.009Z" fill="black"/>
<path d="M60.9324 164.009C61.1685 162.965 61.3306 161.905 61.4175 160.838C61.8591 157.261 63.9877 154.488 66.6592 153.938L68.5923 153.547C68.5923 153.547 65.5587 153.547 64.299 152.664C61.6202 150.789 61.0048 145.25 61.0048 145.25C61.0048 145.25 60.2808 150.789 57.573 152.664C56.306 153.547 53.2725 153.547 53.2725 153.547L55.2055 153.938C57.8843 154.488 60.0057 157.261 60.4473 160.838C60.5425 161.904 60.7046 162.963 60.9324 164.009Z" fill="#ACF75F"/>
</g>
<defs>
<clipPath id="clip0_45_4699">
<rect width="362" height="362" fill="white"/>
</clipPath>
</defs>
</svg>
