<svg width="349" height="348" viewBox="0 0 349 348" fill="none" xmlns="http://www.w3.org/2000/svg">
<g clip-path="url(#clip0_45_4383)">
<path d="M348.5 266.15H0.5V266.324H348.5V266.15Z" fill="#EBEBEB"/>
<path d="M165.452 235.109H31.0614C30.0086 235.107 28.9996 234.688 28.2558 233.943C27.512 233.198 27.0942 232.188 27.0942 231.135V42.2196C27.1034 41.1729 27.5252 40.172 28.268 39.4344C29.0108 38.6968 30.0146 38.2821 31.0614 38.2803H165.452C166.506 38.2803 167.517 38.699 168.262 39.4443C169.008 40.1896 169.426 41.2004 169.426 42.2544V231.135C169.426 232.189 169.008 233.2 168.262 233.945C167.517 234.69 166.506 235.109 165.452 235.109ZM31.0614 38.4195C30.0548 38.4213 29.09 38.8225 28.3788 39.535C27.6677 40.2474 27.2682 41.213 27.2682 42.2196V231.135C27.2682 232.142 27.6677 233.107 28.3788 233.82C29.09 234.532 30.0548 234.933 31.0614 234.935H165.452C166.459 234.933 167.425 234.532 168.137 233.82C168.849 233.108 169.25 232.142 169.252 231.135V42.2196C169.25 41.2123 168.849 40.2468 168.137 39.5345C167.425 38.8223 166.459 38.4213 165.452 38.4195H31.0614Z" fill="#EBEBEB"/>
<path d="M316.004 235.109H181.606C180.553 235.107 179.543 234.688 178.798 233.943C178.053 233.198 177.634 232.188 177.632 231.135V42.2196C177.643 41.1722 178.066 40.1714 178.81 39.434C179.554 38.6966 180.559 38.282 181.606 38.2803H316.004C317.049 38.2839 318.051 38.6994 318.793 39.4368C319.534 40.1742 319.955 41.1741 319.964 42.2196V231.135C319.964 232.187 319.547 233.195 318.805 233.94C318.063 234.685 317.055 235.105 316.004 235.109ZM181.606 38.4195C180.599 38.4213 179.633 38.8223 178.921 39.5345C178.209 40.2468 177.808 41.2123 177.806 42.2196V231.135C177.808 232.142 178.209 233.108 178.921 233.82C179.633 234.532 180.599 234.933 181.606 234.935H316.004C317.011 234.933 317.977 234.532 318.689 233.82C319.401 233.108 319.802 232.142 319.804 231.135V42.2196C319.802 41.2123 319.401 40.2468 318.689 39.5345C317.977 38.8223 317.011 38.4213 316.004 38.4195H181.606Z" fill="#EBEBEB"/>
<path d="M313.631 272.776H291.658V272.95H313.631V272.776Z" fill="#EBEBEB"/>
<path d="M233.897 270.89H210.643V271.064H233.897V270.89Z" fill="#EBEBEB"/>
<path d="M319.978 279.242H276.527V279.416H319.978V279.242Z" fill="#EBEBEB"/>
<path d="M50.3963 278.072H37.0122V278.246H50.3963V278.072Z" fill="#EBEBEB"/>
<path d="M77.6795 278.072H56.5977V278.246H77.6795V278.072Z" fill="#EBEBEB"/>
<path d="M170.422 275.135H132.448V275.309H170.422V275.135Z" fill="#EBEBEB"/>
<path d="M318.189 177.647C311.132 174.689 299.439 177.542 289.751 189.291C285.275 194.72 280.96 202.682 279.798 210.832C279.875 201.534 279.972 191.546 280.062 182.115C281.13 177.49 282.814 173.028 285.067 168.849C292.173 154.568 298.047 156.147 307.701 144.97C323.757 126.373 332.958 91.2872 316.985 105.298C302.501 117.965 295.493 130.646 290.628 141.65C284.044 156.523 281.399 166.901 280.111 177.313C280.202 168.46 280.285 160.33 280.362 154.059C280.612 133.604 281.169 127.027 281.273 124.994C281.524 120.074 283.146 117.206 283.598 116.503C287.405 110.525 293.384 106.613 299.237 99.7993C312.886 83.9375 320.765 64.3033 314.187 62.4519C307.318 60.5519 298.291 69.2101 288.261 89.5403C282.512 101.191 281.044 103.947 279.909 126.776C279.812 128.76 279.373 136.235 279.165 146.619C277.543 135.448 274.46 124.347 269.08 116.99C258.702 102.799 250.81 101.442 245.061 102.799C239.312 104.156 241.72 119.058 248.206 127.02C257.95 139.005 274.237 136.458 279.06 152.403C278.817 166.483 278.643 184.315 278.545 200.921C276.903 192.346 275.183 185.212 271.411 178.496C264.395 166.01 255.765 160.56 249.835 166.441C246.139 170.102 250.427 180.361 258.152 184.537C265.996 188.811 272.434 194.72 274.926 198.276C275.504 199.105 277.432 202.278 278.531 204.109C278.427 224.383 278.441 242.277 278.615 248.381L279.596 248.472C279.533 246.899 279.596 236.584 279.68 222.936C281.392 205.904 293.419 204.979 301.109 201.735C314.855 195.924 325.247 180.612 318.189 177.647Z" fill="#D4D4D4"/>
<path d="M269.156 266.151H289.438C289.936 266.18 290.43 266.044 290.843 265.763C291.256 265.483 291.565 265.073 291.72 264.599L293.168 239.424H265.439L266.873 264.578C267.026 265.055 267.333 265.469 267.746 265.753C268.16 266.038 268.655 266.178 269.156 266.151Z" fill="#E6E6E6"/>
<path d="M265.947 248.006H292.66C293.3 248.006 293.836 247.164 293.913 246.05L294.455 237.559C294.539 236.25 293.954 235.109 293.21 235.109H265.37C264.618 235.109 264.033 236.25 264.124 237.559L264.667 246.05C264.764 247.164 265.307 248.006 265.947 248.006Z" fill="#F5F5F5"/>
<path d="M129.956 211.911H103.626V261.543H129.956V211.911Z" fill="#F0F0F0"/>
<path d="M238.539 261.543H108.686V266.15H238.539V261.543Z" fill="#F0F0F0"/>
<path d="M129.956 261.536H243.592V211.904H129.956V261.536Z" fill="#FAFAFA"/>
<path d="M140.313 233.223H233.242V217.952H140.313V233.223Z" fill="#F0F0F0"/>
<path d="M140.313 252.843H233.242V237.573H140.313V252.843Z" fill="#F0F0F0"/>
<path d="M198.178 216.052H175.377C174.493 216.052 173.776 216.769 173.776 217.653V217.723C173.776 218.607 174.493 219.323 175.377 219.323H198.178C199.062 219.323 199.779 218.607 199.779 217.723V217.653C199.779 216.769 199.062 216.052 198.178 216.052Z" fill="#FAFAFA"/>
<path d="M198.178 235.672H175.377C174.493 235.672 173.776 236.389 173.776 237.273V237.343C173.776 238.227 174.493 238.944 175.377 238.944H198.178C199.062 238.944 199.779 238.227 199.779 237.343V237.273C199.779 236.389 199.062 235.672 198.178 235.672Z" fill="#FAFAFA"/>
<path d="M247.107 207.457H129.963V211.904H247.107V207.457Z" fill="#F0F0F0"/>
<path d="M99.9445 211.911H129.956V207.464H99.9445V211.911Z" fill="#E6E6E6"/>
<path d="M78.3406 227.23C75.3339 225.657 70.0583 226.472 65.3324 231.295C62.8246 233.832 61.0269 236.983 60.1194 240.433C60.5022 236.334 60.9267 231.921 61.3234 227.759C61.9724 225.756 62.8852 223.849 64.0378 222.087C67.7197 216.046 70.2601 216.964 74.9442 212.392C82.7533 204.784 88.1682 189.625 80.5609 195.2C75.1172 199.152 70.6586 204.306 67.5318 210.262C64.0518 216.588 62.4927 221.071 61.5253 225.623C61.9011 221.718 62.2213 218.127 62.5206 215.357C63.4114 206.309 63.9126 203.441 64.0309 202.55C64.1619 201.233 64.6266 199.97 65.3811 198.882C67.316 196.384 70.1 194.88 72.9258 192.096C79.5586 185.603 83.7834 177.216 80.9506 176.158C77.9857 175.058 73.6635 178.545 68.4644 187.141C65.4786 192.075 64.7269 193.238 63.3488 203.281C63.2235 204.158 62.7502 207.457 62.263 212.023C61.9707 207.025 61.0311 202.007 58.9292 198.548C54.8854 191.88 51.4472 190.983 48.8581 191.4C46.269 191.818 46.7701 198.458 49.3244 202.223C53.1872 207.888 60.4604 207.38 61.9986 214.612C61.3582 220.82 60.6066 228.699 59.9106 236.035C59.5138 232.179 59.0266 228.963 57.6138 225.852C54.9898 220.068 51.3498 217.333 48.5658 219.707C46.7979 221.182 48.3013 225.873 51.5586 228.059C54.8158 230.244 57.4815 233.098 58.449 234.768C58.6717 235.151 59.4025 236.633 59.841 237.482C58.964 246.384 58.3098 254.284 58.1566 256.984L58.609 257.047C58.6438 256.351 59.0545 251.799 59.6183 245.772C61.0103 238.304 66.3694 238.352 69.8912 237.211C76.1761 235.179 81.3474 228.803 78.3406 227.23Z" fill="#F0F0F0"/>
<path d="M31.7781 211.723C35.6687 209.969 42.2181 211.382 47.7861 217.792C50.745 221.155 52.7705 225.235 53.6603 229.624C53.4724 224.439 53.2775 218.871 53.0826 213.616C52.4174 211.054 51.4132 208.591 50.0968 206.294C45.9208 198.437 42.6635 199.404 37.1164 193.314C27.8805 183.18 22.222 163.755 31.3466 171.313C37.8847 176.683 43.1 183.484 46.589 191.191C50.4796 199.39 52.1082 205.111 52.9852 210.923C52.8042 205.988 52.6302 201.457 52.491 197.956C52.0526 186.556 51.6419 182.895 51.5514 181.76C51.4874 180.103 51.0088 178.487 50.1594 177.062C47.9462 173.784 44.5914 171.696 41.181 167.98C33.3371 159.335 28.653 148.492 32.2862 147.378C36.0933 146.216 41.2576 150.907 47.1527 162.091C50.5353 168.509 51.3914 170.019 52.3797 182.735C52.4702 183.841 52.8182 188.004 53.0757 193.794C53.8134 187.53 55.3655 181.308 58.2609 177.09C63.8289 169.017 68.2137 168.147 71.4362 168.815C74.6586 169.483 73.5242 177.863 70.0442 182.373C64.7824 189.201 55.6718 188.017 53.2218 196.989C53.5629 204.833 53.9178 214.779 54.231 224.035C55.0175 219.233 55.8736 215.224 57.8711 211.424C61.6017 204.353 66.3345 201.186 69.7031 204.38C71.7911 206.364 69.5848 212.148 65.3322 214.612C61.0797 217.075 57.5718 220.562 56.2355 222.581C55.9223 223.047 54.8992 224.85 54.3146 225.887C54.6765 237.19 54.934 247.171 54.927 250.574L54.3494 250.623C54.3494 249.746 54.1823 243.997 53.9178 236.383C52.6998 226.896 45.9904 226.576 41.6543 224.885C33.9078 221.864 27.8874 213.477 31.7781 211.723Z" fill="#D4D4D4"/>
<path d="M48.2386 266.15H66.2302C66.6749 266.174 67.1149 266.05 67.4823 265.799C67.8497 265.547 68.1239 265.181 68.2625 264.758L69.5362 242.444H44.9326L46.2133 264.758C46.3495 265.181 46.6222 265.548 46.9886 265.799C47.3551 266.051 47.7946 266.175 48.2386 266.15Z" fill="#D4D4D4"/>
<path d="M45.3851 250.059H69.0839C69.6546 250.059 70.1279 249.307 70.1975 248.319L70.6778 240.788C70.7543 239.626 70.2393 238.617 69.5711 238.617H44.9049C44.2089 238.617 43.7217 239.626 43.7913 240.788L44.2785 248.319C44.3481 249.307 44.8214 250.059 45.3851 250.059Z" fill="#F5F5F5"/>
<path d="M190.668 55.5825H42.3923V139.423H190.668V55.5825Z" fill="#C2BEBE"/>
<path d="M195.303 55.5825H43.1787V139.423H195.303V55.5825Z" fill="#F5F5F5"/>
<path d="M191.601 132.818V62.1949C191.601 60.5882 190.298 59.2856 188.691 59.2856L49.7836 59.2856C48.1769 59.2856 46.8743 60.5882 46.8743 62.1949V132.818C46.8743 134.425 48.1769 135.727 49.7836 135.727H188.691C190.298 135.727 191.601 134.425 191.601 132.818Z" fill="#E5E5E5"/>
<path d="M174.5 297.582C249.03 297.582 309.448 294.055 309.448 289.703C309.448 285.352 249.03 281.825 174.5 281.825C99.9708 281.825 39.5527 285.352 39.5527 289.703C39.5527 294.055 99.9708 297.582 174.5 297.582Z" fill="#D4D4D4"/>
<path d="M280.229 217.437H263.525V216.741H280.229C282.194 216.701 284.113 216.141 285.791 215.119C287.47 214.097 288.848 212.65 289.785 210.923L290.398 211.257C289.4 213.093 287.933 214.633 286.147 215.718C284.361 216.804 282.319 217.397 280.229 217.437Z" fill="#ACF75F"/>
<path d="M260.219 216.741H253.377V217.437H260.219V216.741Z" fill="#ACF75F"/>
<path d="M280.229 215.002H84.7924C83.7209 215.023 82.6572 214.815 81.6721 214.393C80.6869 213.971 79.8029 213.344 79.0787 212.554C78.3545 211.764 77.8067 210.829 77.4719 209.811C77.137 208.793 77.0226 207.715 77.1364 206.65L87.6948 85.5457C87.9308 83.2919 88.9794 81.2012 90.6445 79.6642C92.3096 78.1272 94.4774 77.249 96.7428 77.1937H292.18C293.251 77.1739 294.314 77.3821 295.299 77.8045C296.283 78.2268 297.167 78.8537 297.891 79.6434C298.615 80.4332 299.162 81.3679 299.498 82.3854C299.833 83.403 299.948 84.4802 299.836 85.5457L289.34 206.65C289.102 208.914 288.045 211.013 286.367 212.551C284.688 214.09 282.506 214.961 280.229 215.002Z" fill="#ACF75F"/>
<path d="M276.158 212.461H85.593C84.6806 212.475 83.7758 212.294 82.9386 211.931C82.1015 211.567 81.3512 211.03 80.7377 210.355C80.1241 209.679 79.6613 208.881 79.38 208.013C79.0988 207.145 79.0054 206.227 79.1063 205.32L88.725 94.9972C88.7825 94.4443 89.0397 93.9313 89.4485 93.5546C89.8573 93.1779 90.3895 92.9632 90.9452 92.951H291.651C291.913 92.9464 292.173 92.9977 292.413 93.1014C292.654 93.2052 292.869 93.359 293.046 93.5526C293.222 93.7462 293.355 93.9751 293.437 94.2242C293.518 94.4733 293.545 94.7368 293.516 94.9972L283.89 205.32C283.695 207.249 282.801 209.04 281.377 210.356C279.953 211.671 278.096 212.42 276.158 212.461Z" fill="white"/>
<path d="M109.883 87.4596C108.569 87.4821 107.264 87.2246 106.057 86.7043C104.849 86.184 103.766 85.4128 102.88 84.4419C101.993 83.471 101.323 82.3226 100.914 81.0729C100.505 79.8232 100.367 78.5009 100.508 77.1936C100.794 74.4192 102.084 71.8449 104.135 69.9544C106.185 68.0639 108.856 66.9876 111.644 66.9276C112.959 66.9051 114.263 67.1625 115.47 67.6829C116.677 68.2032 117.76 68.9746 118.646 69.9456C119.532 70.9167 120.202 72.0652 120.61 73.3149C121.018 74.5646 121.155 75.8868 121.012 77.1936H116.836C116.921 76.4176 116.839 75.6325 116.596 74.8906C116.353 74.1487 115.955 73.4671 115.428 72.8909C114.901 72.3148 114.258 71.8575 113.541 71.5493C112.824 71.2411 112.049 71.0892 111.268 71.1036C109.611 71.134 108.021 71.7703 106.801 72.8923C105.58 74.0143 104.812 75.5443 104.643 77.1936C104.558 77.9697 104.641 78.7548 104.883 79.4967C105.126 80.2385 105.524 80.9202 106.051 81.4963C106.578 82.0724 107.221 82.5298 107.938 82.838C108.655 83.1461 109.43 83.2981 110.211 83.2836L109.883 87.4596Z" fill="#3D3D3D"/>
<path d="M151.191 87.4596C149.874 87.4861 148.566 87.2315 147.356 86.713C146.145 86.1945 145.058 85.4239 144.168 84.4525C143.279 83.4811 142.606 82.3313 142.196 81.0797C141.785 79.828 141.646 78.5032 141.788 77.1936C142.074 74.4192 143.364 71.8449 145.414 69.9544C147.465 68.0639 150.135 66.9876 152.924 66.9276C154.238 66.9051 155.542 67.1625 156.75 67.6829C157.957 68.2032 159.04 68.9746 159.926 69.9456C160.812 70.9167 161.481 72.0652 161.889 73.3149C162.297 74.5646 162.434 75.8868 162.292 77.1936H158.116C158.2 76.4176 158.118 75.6325 157.875 74.8906C157.632 74.1487 157.234 73.4671 156.708 72.8909C156.181 72.3148 155.538 71.8575 154.82 71.5493C154.103 71.2411 153.329 71.0892 152.548 71.1036C150.89 71.134 149.301 71.7703 148.08 72.8923C146.86 74.0143 146.092 75.5443 145.922 77.1936C145.839 77.9695 145.922 78.7541 146.165 79.4955C146.409 80.2369 146.807 80.9181 147.333 81.4939C147.86 82.0698 148.503 82.5271 149.219 82.8357C149.936 83.1442 150.71 83.2969 151.49 83.2836L151.191 87.4596Z" fill="#3D3D3D"/>
<path d="M192.499 87.4596C191.184 87.4811 189.881 87.2228 188.674 86.7021C187.467 86.1814 186.385 85.41 185.499 84.4392C184.613 83.4684 183.944 82.3204 183.536 81.0712C183.127 79.822 182.989 78.5003 183.13 77.1936C183.414 74.4181 184.702 71.842 186.754 69.951C188.805 68.0599 191.477 66.9846 194.266 66.9276C195.581 66.9051 196.885 67.1625 198.092 67.6829C199.299 68.2032 200.382 68.9746 201.268 69.9456C202.154 70.9167 202.824 72.0652 203.232 73.3149C203.64 74.5646 203.777 75.8868 203.635 77.1936H199.459C199.544 76.4173 199.463 75.6318 199.22 74.8894C198.978 74.147 198.58 73.4649 198.053 72.8885C197.526 72.3122 196.882 71.8548 196.164 71.547C195.446 71.2392 194.671 71.0881 193.891 71.1036C192.234 71.1342 190.645 71.7707 189.426 72.8928C188.206 74.0149 187.44 75.5449 187.272 77.1936C187.187 77.9697 187.27 78.7548 187.512 79.4967C187.755 80.2385 188.153 80.9202 188.68 81.4963C189.207 82.0724 189.85 82.5298 190.567 82.838C191.284 83.1461 192.059 83.2981 192.84 83.2836L192.499 87.4596Z" fill="#3D3D3D"/>
<path d="M233.806 87.4596C232.492 87.481 231.189 87.2228 229.982 86.7021C228.775 86.1814 227.693 85.41 226.807 84.4392C225.921 83.4684 225.252 82.3204 224.844 81.0712C224.435 79.822 224.297 78.5003 224.438 77.1936C224.723 74.4187 226.012 71.8434 228.063 69.9527C230.114 68.0619 232.785 66.9861 235.574 66.9276C236.889 66.9052 238.193 67.1627 239.401 67.683C240.608 68.2032 241.691 68.9744 242.578 69.9454C243.465 70.9163 244.135 72.0647 244.544 73.3144C244.952 74.564 245.091 75.8864 244.949 77.1936H240.773C240.857 76.4176 240.775 75.6325 240.533 74.8906C240.29 74.1487 239.892 73.467 239.365 72.8909C238.838 72.3148 238.195 71.8575 237.478 71.5493C236.76 71.2411 235.986 71.0892 235.205 71.1036C233.548 71.1342 231.96 71.7707 230.74 72.8928C229.521 74.0149 228.755 75.5449 228.586 77.1936C228.502 77.9697 228.584 78.7548 228.827 79.4966C229.07 80.2385 229.468 80.9202 229.995 81.4963C230.522 82.0724 231.165 82.5298 231.882 82.8379C232.599 83.1461 233.374 83.298 234.154 83.2836L233.806 87.4596Z" fill="#3D3D3D"/>
<path d="M275.114 87.4596C273.8 87.481 272.496 87.2228 271.289 86.7021C270.083 86.1814 269.001 85.41 268.115 84.4392C267.229 83.4684 266.559 82.3204 266.151 81.0712C265.742 79.822 265.604 78.5003 265.746 77.1936C266.03 74.4187 267.319 71.8434 269.37 69.9527C271.421 68.0619 274.093 66.9861 276.882 66.9276C278.196 66.9052 279.501 67.1627 280.708 67.683C281.916 68.2032 282.999 68.9744 283.885 69.9454C284.772 70.9163 285.442 72.0647 285.851 73.3144C286.26 74.564 286.398 75.8864 286.257 77.1936H282.081C282.165 76.4176 282.083 75.6325 281.84 74.8906C281.597 74.1487 281.199 73.467 280.672 72.8909C280.146 72.3148 279.502 71.8575 278.785 71.5493C278.068 71.2411 277.293 71.0892 276.513 71.1036C274.856 71.1357 273.269 71.7727 272.049 72.8945C270.83 74.0164 270.063 75.5455 269.894 77.1936C269.81 77.9697 269.892 78.7548 270.135 79.4966C270.377 80.2385 270.775 80.9202 271.302 81.4963C271.829 82.0724 272.472 82.5298 273.189 82.8379C273.907 83.1461 274.681 83.298 275.462 83.2836L275.114 87.4596Z" fill="#3D3D3D"/>
<path d="M275.656 207.457H87.2699C87.2254 207.459 87.181 207.45 87.14 207.433C87.099 207.415 87.0623 207.389 87.0325 207.356C87.0026 207.323 86.9804 207.284 86.9673 207.241C86.9543 207.198 86.9506 207.153 86.9567 207.109L96.3458 99.4658C96.3544 99.3716 96.3975 99.2839 96.4669 99.2197C96.5363 99.1554 96.627 99.1191 96.7216 99.1178H285.101C285.146 99.1165 285.19 99.1249 285.232 99.1423C285.273 99.1597 285.31 99.1858 285.34 99.2188C285.371 99.2518 285.394 99.2909 285.408 99.3335C285.422 99.3761 285.426 99.4213 285.421 99.4658L276.032 207.109C276.024 207.203 275.98 207.291 275.911 207.355C275.842 207.42 275.751 207.456 275.656 207.457ZM87.6806 206.761H275.364L284.697 99.8138H97.0139L87.6806 206.761Z" fill="#E0E0E0"/>
<path d="M277.508 185.93H89.1496C89.1054 185.93 89.0616 185.921 89.0211 185.903C88.9807 185.885 88.9445 185.859 88.9149 185.826C88.8853 185.793 88.863 185.754 88.8495 185.712C88.8359 185.67 88.8315 185.625 88.8364 185.582C88.8435 185.487 88.8861 185.398 88.9559 185.334C89.0256 185.269 89.1172 185.233 89.2123 185.234H277.592C277.636 185.232 277.681 185.241 277.722 185.258C277.764 185.275 277.801 185.302 277.831 185.335C277.861 185.368 277.884 185.407 277.898 185.449C277.912 185.492 277.917 185.537 277.912 185.582C277.9 185.679 277.852 185.769 277.777 185.833C277.702 185.898 277.607 185.932 277.508 185.93Z" fill="#E0E0E0"/>
<path d="M279.408 164.402H91.0284C90.9839 164.402 90.9399 164.393 90.8991 164.375C90.8583 164.357 90.8217 164.331 90.7916 164.298C90.7615 164.266 90.7385 164.227 90.7241 164.185C90.7098 164.143 90.7044 164.098 90.7082 164.054C90.7185 163.959 90.763 163.871 90.8336 163.807C90.9041 163.743 90.9957 163.707 91.091 163.706H279.47C279.515 163.704 279.56 163.713 279.601 163.73C279.642 163.748 279.679 163.774 279.71 163.807C279.74 163.84 279.763 163.879 279.777 163.921C279.791 163.964 279.796 164.009 279.791 164.054C279.779 164.148 279.734 164.235 279.664 164.299C279.593 164.363 279.503 164.399 279.408 164.402Z" fill="#E0E0E0"/>
<path d="M281.287 142.868H92.9081C92.8632 142.869 92.8187 142.861 92.7774 142.843C92.7361 142.826 92.699 142.8 92.6686 142.767C92.6383 142.734 92.6154 142.695 92.6014 142.652C92.5875 142.61 92.5829 142.564 92.5879 142.52C92.5995 142.426 92.6445 142.339 92.7148 142.275C92.785 142.211 92.8758 142.174 92.9707 142.172H281.35C281.394 142.172 281.438 142.181 281.479 142.199C281.519 142.216 281.555 142.243 281.585 142.276C281.614 142.308 281.637 142.347 281.65 142.389C281.664 142.431 281.668 142.476 281.663 142.52C281.656 142.615 281.614 142.703 281.544 142.768C281.474 142.832 281.382 142.868 281.287 142.868Z" fill="#E0E0E0"/>
<path d="M283.166 121.341H94.787C94.7422 121.342 94.6976 121.334 94.6563 121.316C94.615 121.299 94.5779 121.273 94.5476 121.24C94.5172 121.207 94.4943 121.168 94.4804 121.125C94.4664 121.082 94.4618 121.037 94.4668 120.993C94.4754 120.899 94.5185 120.811 94.5879 120.747C94.6573 120.682 94.7481 120.646 94.8426 120.645H283.229C283.274 120.643 283.318 120.652 283.359 120.669C283.4 120.687 283.437 120.713 283.466 120.746C283.496 120.779 283.518 120.818 283.532 120.861C283.545 120.904 283.548 120.949 283.542 120.993C283.535 121.087 283.492 121.176 283.423 121.241C283.353 121.305 283.261 121.341 283.166 121.341Z" fill="#E0E0E0"/>
<path d="M252.104 207.457C252.059 207.459 252.015 207.45 251.974 207.433C251.933 207.415 251.896 207.389 251.866 207.356C251.837 207.323 251.814 207.284 251.801 207.241C251.788 207.198 251.785 207.153 251.791 207.109L261.18 99.4658C261.188 99.3716 261.232 99.2839 261.301 99.2197C261.37 99.1554 261.461 99.1191 261.556 99.1178C261.6 99.1165 261.645 99.1249 261.686 99.1423C261.728 99.1597 261.765 99.1858 261.795 99.2188C261.825 99.2518 261.848 99.2909 261.862 99.3335C261.876 99.3761 261.881 99.4213 261.876 99.4658L252.487 207.109C252.477 207.204 252.432 207.292 252.361 207.356C252.291 207.42 252.199 207.456 252.104 207.457Z" fill="#E0E0E0"/>
<path d="M228.558 207.457C228.513 207.458 228.469 207.45 228.428 207.433C228.386 207.415 228.349 207.389 228.319 207.356C228.288 207.323 228.266 207.284 228.252 207.241C228.238 207.199 228.233 207.154 228.238 207.109L237.627 99.4658C237.637 99.3711 237.682 99.2833 237.752 99.2192C237.823 99.155 237.915 99.119 238.01 99.1178C238.054 99.1164 238.099 99.1247 238.14 99.1422C238.181 99.1597 238.218 99.1859 238.247 99.2191C238.277 99.2522 238.299 99.2914 238.312 99.3341C238.326 99.3767 238.329 99.4217 238.323 99.4658L228.934 207.109C228.927 207.204 228.884 207.293 228.815 207.357C228.745 207.422 228.653 207.457 228.558 207.457Z" fill="#E0E0E0"/>
<path d="M205.013 207.457C204.968 207.458 204.923 207.45 204.882 207.433C204.841 207.415 204.803 207.389 204.773 207.356C204.743 207.323 204.72 207.284 204.706 207.241C204.692 207.199 204.687 207.154 204.692 207.109L214.081 99.4658C214.092 99.3711 214.136 99.2833 214.207 99.2192C214.277 99.155 214.369 99.119 214.464 99.1178C214.509 99.1164 214.553 99.1247 214.594 99.1422C214.635 99.1597 214.672 99.1859 214.702 99.2191C214.732 99.2522 214.754 99.2914 214.767 99.3341C214.78 99.3767 214.784 99.4217 214.777 99.4658L205.388 207.109C205.38 207.203 205.337 207.291 205.267 207.355C205.198 207.42 205.107 207.456 205.013 207.457Z" fill="#E0E0E0"/>
<path d="M181.46 207.457C181.415 207.458 181.37 207.45 181.329 207.433C181.288 207.415 181.251 207.389 181.22 207.356C181.19 207.323 181.167 207.284 181.153 207.241C181.139 207.199 181.135 207.154 181.14 207.109L190.508 99.4658C190.516 99.3716 190.56 99.2839 190.629 99.2197C190.698 99.1554 190.789 99.1191 190.884 99.1178C190.928 99.1165 190.973 99.1249 191.014 99.1423C191.056 99.1597 191.093 99.1858 191.123 99.2188C191.153 99.2518 191.176 99.2909 191.19 99.3335C191.204 99.3761 191.209 99.4213 191.204 99.4658L181.843 207.109C181.834 207.205 181.79 207.293 181.719 207.358C181.648 207.422 181.556 207.458 181.46 207.457Z" fill="#E0E0E0"/>
<path d="M157.914 207.457C157.87 207.459 157.826 207.45 157.785 207.433C157.744 207.415 157.707 207.389 157.677 207.356C157.647 207.323 157.625 207.284 157.612 207.241C157.599 207.198 157.595 207.153 157.601 207.109L166.99 99.4658C166.997 99.371 167.04 99.2824 167.11 99.2179C167.18 99.1533 167.271 99.1175 167.366 99.1178C167.411 99.1165 167.456 99.1249 167.497 99.1423C167.538 99.1597 167.575 99.1858 167.606 99.2188C167.636 99.2518 167.659 99.2909 167.673 99.3335C167.687 99.3761 167.691 99.4213 167.686 99.4658L158.297 207.109C158.287 207.204 158.242 207.292 158.172 207.356C158.101 207.42 158.01 207.456 157.914 207.457Z" fill="#E0E0E0"/>
<path d="M134.368 207.457C134.324 207.458 134.279 207.45 134.238 207.433C134.197 207.415 134.159 207.389 134.129 207.356C134.099 207.323 134.076 207.284 134.062 207.241C134.048 207.199 134.043 207.154 134.048 207.109L143.437 99.4658C143.448 99.3711 143.492 99.2833 143.563 99.2192C143.633 99.155 143.725 99.119 143.82 99.1178C143.865 99.1164 143.909 99.1247 143.95 99.1422C143.991 99.1597 144.028 99.1859 144.058 99.2191C144.087 99.2522 144.11 99.2914 144.123 99.3341C144.136 99.3767 144.139 99.4217 144.133 99.4658L134.744 207.109C134.737 207.204 134.695 207.293 134.625 207.357C134.555 207.422 134.464 207.457 134.368 207.457Z" fill="#E0E0E0"/>
<path d="M110.823 207.457C110.778 207.458 110.734 207.45 110.692 207.433C110.651 207.415 110.614 207.389 110.584 207.356C110.553 207.323 110.53 207.284 110.516 207.241C110.503 207.199 110.498 207.154 110.503 207.109L119.892 99.4658C119.902 99.3711 119.947 99.2833 120.017 99.2192C120.088 99.155 120.179 99.119 120.275 99.1178C120.319 99.1164 120.364 99.1247 120.405 99.1422C120.446 99.1597 120.482 99.1859 120.512 99.2191C120.542 99.2522 120.564 99.2914 120.577 99.3341C120.59 99.3767 120.594 99.4217 120.588 99.4658L111.199 207.109C111.19 207.203 111.147 207.291 111.078 207.355C111.008 207.42 110.918 207.456 110.823 207.457Z" fill="#E0E0E0"/>
<path d="M206.286 140.37H191.9C191.615 140.375 191.333 140.319 191.071 140.206C190.81 140.093 190.575 139.925 190.384 139.714C190.192 139.504 190.048 139.254 189.96 138.983C189.872 138.712 189.843 138.426 189.875 138.143L190.988 125.371C191.048 124.768 191.327 124.209 191.772 123.798C192.217 123.387 192.798 123.155 193.403 123.144H207.79C208.075 123.138 208.359 123.194 208.621 123.306C208.883 123.419 209.118 123.586 209.311 123.797C209.503 124.008 209.648 124.257 209.737 124.529C209.825 124.8 209.854 125.087 209.822 125.371L208.709 138.143C208.649 138.747 208.369 139.307 207.922 139.718C207.475 140.129 206.893 140.361 206.286 140.37Z" fill="#ACF75F"/>
<path opacity="0.6" d="M206.286 140.37H191.9C191.615 140.375 191.333 140.319 191.071 140.206C190.81 140.093 190.575 139.925 190.384 139.714C190.192 139.504 190.048 139.254 189.96 138.983C189.872 138.712 189.843 138.426 189.875 138.143L190.988 125.371C191.048 124.768 191.327 124.209 191.772 123.798C192.217 123.387 192.798 123.155 193.403 123.144H207.79C208.075 123.138 208.359 123.194 208.621 123.306C208.883 123.419 209.118 123.586 209.311 123.797C209.503 124.008 209.648 124.257 209.737 124.529C209.825 124.8 209.854 125.087 209.822 125.371L208.709 138.143C208.649 138.747 208.369 139.307 207.922 139.718C207.475 140.129 206.893 140.361 206.286 140.37Z" fill="white"/>
<path d="M306.663 140.37H291.539L293.036 123.144H308.167L302.48 131.76L306.663 140.37Z" fill="white"/>
<path d="M307.227 140.717H291.156L292.722 122.795H308.828L302.919 131.76L307.227 140.717ZM291.915 140.021H306.093L302.077 131.76L307.533 123.491H293.356L291.915 140.021Z" fill="#92DF43"/>
<path d="M251.366 161.897H236.98C236.695 161.902 236.413 161.847 236.151 161.735C235.889 161.623 235.654 161.456 235.462 161.246C235.27 161.036 235.124 160.787 235.036 160.517C234.947 160.246 234.917 159.959 234.948 159.676L236.061 146.898C236.124 146.296 236.405 145.737 236.851 145.328C237.298 144.919 237.878 144.688 238.483 144.677H252.87C253.154 144.673 253.436 144.729 253.698 144.841C253.959 144.954 254.193 145.121 254.385 145.331C254.577 145.54 254.723 145.789 254.812 146.059C254.901 146.329 254.932 146.615 254.902 146.898L253.788 159.676C253.726 160.278 253.445 160.837 252.998 161.246C252.552 161.655 251.972 161.886 251.366 161.897Z" fill="#ACF75F"/>
<path opacity="0.4" d="M251.366 161.897H236.98C236.695 161.902 236.413 161.847 236.151 161.735C235.889 161.623 235.654 161.456 235.462 161.246C235.27 161.036 235.124 160.787 235.036 160.517C234.947 160.246 234.917 159.959 234.948 159.676L236.061 146.898C236.124 146.296 236.405 145.737 236.851 145.328C237.298 144.919 237.878 144.688 238.483 144.677H252.87C253.154 144.673 253.436 144.729 253.698 144.841C253.959 144.954 254.193 145.121 254.385 145.331C254.577 145.54 254.723 145.789 254.812 146.059C254.901 146.329 254.932 146.615 254.902 146.898L253.788 159.676C253.726 160.278 253.445 160.837 252.998 161.246C252.552 161.655 251.972 161.886 251.366 161.897Z" fill="white"/>
<path d="M278.935 118.842H240.738C240.453 118.848 240.169 118.793 239.907 118.68C239.645 118.568 239.41 118.4 239.217 118.19C239.025 117.979 238.88 117.729 238.791 117.458C238.703 117.186 238.674 116.899 238.706 116.615L239.819 103.844C239.879 103.241 240.158 102.681 240.603 102.271C241.048 101.86 241.629 101.627 242.235 101.616H280.438C280.723 101.612 281.006 101.668 281.268 101.781C281.529 101.894 281.764 102.061 281.956 102.272C282.148 102.482 282.294 102.732 282.382 103.002C282.471 103.273 282.501 103.56 282.47 103.844L281.357 116.615C281.297 117.219 281.017 117.78 280.57 118.191C280.124 118.601 279.541 118.833 278.935 118.842Z" fill="#ACF75F"/>
<path d="M126.559 137.46C120.755 137.46 115.918 135.407 112.486 131.474C108.081 126.414 107.419 120.136 110.753 115.083C115.702 107.601 128.599 103.613 137.083 104.72C137.127 104.726 137.17 104.741 137.208 104.764C137.247 104.787 137.28 104.818 137.305 104.855C137.331 104.891 137.348 104.933 137.357 104.977C137.365 105.021 137.365 105.066 137.354 105.11C137.333 105.202 137.279 105.283 137.202 105.338C137.125 105.393 137.031 105.418 136.937 105.409C128.661 104.33 116.119 108.193 111.331 115.431C107.559 121.139 109.737 127.208 113.036 130.994C117.637 136.27 123.908 137.014 128.348 136.701C136.832 136.11 146.124 131.258 151.476 124.633C152.973 122.781 155.269 119.225 153.864 116.281C151.776 111.875 144.816 112.181 139.011 112.933C138.967 112.939 138.923 112.935 138.88 112.923C138.838 112.911 138.799 112.89 138.765 112.862C138.731 112.834 138.703 112.799 138.683 112.76C138.663 112.721 138.651 112.678 138.649 112.634C138.647 112.539 138.679 112.446 138.741 112.374C138.803 112.302 138.889 112.256 138.983 112.244C142.867 111.736 151.957 110.559 154.497 115.946C156.07 119.259 153.606 123.087 152.005 125.078C146.528 131.857 137.013 136.826 128.341 137.425C127.743 137.439 127.172 137.46 126.559 137.46Z" fill="#ACF75F"/>
<path d="M242.708 158.062H242.652C242.544 158.054 242.439 158.018 242.348 157.957C242.258 157.896 242.185 157.812 242.137 157.714C241.42 156.073 240.435 154.562 239.221 153.245C239.085 153.11 239.007 152.925 239.007 152.733C239.006 152.54 239.082 152.355 239.218 152.219C239.353 152.082 239.538 152.005 239.73 152.004C239.923 152.004 240.108 152.08 240.244 152.215C241.36 153.382 242.284 154.719 242.98 156.176C245.371 153.719 247.962 151.466 250.726 149.438C250.87 149.327 251.052 149.276 251.233 149.297C251.413 149.317 251.579 149.408 251.694 149.55C251.747 149.626 251.784 149.713 251.803 149.804C251.822 149.896 251.822 149.99 251.804 150.082C251.786 150.173 251.75 150.26 251.697 150.337C251.645 150.415 251.577 150.48 251.499 150.531C248.534 152.699 245.777 155.138 243.265 157.818C243.194 157.895 243.108 157.956 243.012 157.998C242.916 158.04 242.813 158.062 242.708 158.062Z" fill="white"/>
<path d="M217.074 204.158C216.074 204.174 215.081 203.978 214.162 203.582C213.243 203.185 212.419 202.598 211.744 201.859C211.07 201.12 210.56 200.245 210.249 199.294C209.938 198.343 209.833 197.336 209.94 196.341C210.158 194.226 211.142 192.264 212.708 190.825C214.274 189.386 216.312 188.571 218.439 188.532C219.439 188.515 220.432 188.71 221.35 189.106C222.269 189.501 223.094 190.088 223.769 190.826C224.443 191.565 224.953 192.439 225.264 193.39C225.575 194.341 225.68 195.347 225.573 196.341C225.355 198.457 224.371 200.421 222.805 201.861C221.24 203.301 219.201 204.118 217.074 204.158ZM218.348 189.924C216.605 189.963 214.937 190.636 213.655 191.817C212.374 192.999 211.567 194.608 211.388 196.341C211.299 197.159 211.385 197.986 211.64 198.768C211.896 199.55 212.314 200.268 212.869 200.876C213.423 201.484 214.1 201.966 214.855 202.292C215.61 202.618 216.426 202.779 217.248 202.766C218.992 202.726 220.661 202.051 221.942 200.868C223.223 199.686 224.029 198.076 224.208 196.341C224.295 195.525 224.208 194.699 223.951 193.918C223.695 193.138 223.276 192.421 222.722 191.814C222.169 191.207 221.492 190.725 220.738 190.4C219.984 190.074 219.169 189.912 218.348 189.924Z" fill="#ACF75F"/>
<path d="M150.14 161.02C149.139 161.037 148.146 160.84 147.227 160.444C146.309 160.048 145.484 159.46 144.81 158.721C144.135 157.982 143.625 157.108 143.314 156.156C143.003 155.205 142.898 154.199 143.006 153.204C143.224 151.083 144.212 149.116 145.783 147.675C147.355 146.235 149.4 145.421 151.532 145.388C152.532 145.371 153.525 145.567 154.444 145.964C155.363 146.36 156.187 146.947 156.862 147.686C157.537 148.426 158.046 149.3 158.357 150.251C158.668 151.202 158.774 152.209 158.666 153.204C158.447 155.324 157.458 157.29 155.887 158.73C154.316 160.171 152.271 160.985 150.14 161.02ZM151.379 146.78C149.635 146.818 147.965 147.492 146.684 148.675C145.402 149.858 144.596 151.469 144.419 153.204C144.33 154.021 144.416 154.849 144.671 155.63C144.926 156.412 145.345 157.131 145.899 157.738C146.453 158.346 147.131 158.829 147.886 159.154C148.641 159.48 149.457 159.642 150.279 159.628C152.022 159.588 153.691 158.913 154.973 157.731C156.254 156.548 157.06 154.938 157.239 153.204C157.327 152.388 157.24 151.562 156.985 150.782C156.731 150.001 156.313 149.284 155.761 148.677C155.208 148.07 154.533 147.587 153.78 147.26C153.027 146.933 152.213 146.769 151.393 146.78H151.379Z" fill="#ACF75F"/>
<path opacity="0.1" d="M163.74 179.735H91.4253C90.7576 179.745 90.0954 179.613 89.4826 179.348C88.8697 179.083 88.3202 178.69 87.8702 178.197C87.4202 177.703 87.0801 177.12 86.8723 176.486C86.6644 175.851 86.5937 175.179 86.6647 174.515C86.8119 173.104 87.4695 171.794 88.514 170.833C89.5585 169.872 90.9179 169.325 92.3371 169.295H164.651C165.319 169.286 165.981 169.418 166.594 169.683C167.207 169.948 167.757 170.341 168.207 170.834C168.657 171.327 168.997 171.911 169.205 172.545C169.412 173.18 169.483 173.851 169.412 174.515C169.265 175.927 168.607 177.237 167.563 178.198C166.518 179.159 165.159 179.706 163.74 179.735Z" fill="#3D3D3D"/>
<path d="M67.5876 163.15L70.302 164.312L66.6619 168.774C66.0259 167.665 65.5302 166.482 65.1864 165.252C65.1352 165.072 65.1208 164.883 65.1442 164.697C65.1676 164.512 65.2282 164.332 65.3224 164.171C65.4166 164.009 65.5425 163.868 65.6925 163.756C65.8426 163.644 66.0137 163.563 66.1956 163.519L67.5876 163.15Z" fill="#FF8B7B"/>
<path d="M71.5478 169.128L69.9191 170.938C69.7961 171.075 69.6434 171.183 69.4725 171.252C69.3017 171.321 69.1172 171.351 68.9333 171.338C68.7494 171.325 68.5707 171.271 68.4111 171.178C68.2515 171.086 68.115 170.959 68.0121 170.806L66.6619 168.801L70.3019 164.34L71.7705 167.82C71.8657 168.036 71.8953 168.275 71.8557 168.508C71.8161 168.74 71.709 168.956 71.5478 169.128Z" fill="#FF8B7B"/>
<path d="M167.289 177.981L73.1553 170.52C72.4903 170.476 71.8421 170.291 71.2533 169.979C70.6645 169.667 70.1484 169.234 69.7389 168.708C69.3294 168.182 69.0358 167.575 68.8773 166.928C68.7188 166.281 68.699 165.607 68.8192 164.952C69.078 163.556 69.8374 162.303 70.955 161.427C72.0725 160.552 73.4712 160.115 74.8883 160.198L169.022 167.652C169.688 167.695 170.337 167.879 170.926 168.191C171.515 168.502 172.032 168.936 172.441 169.462C172.851 169.988 173.145 170.595 173.303 171.243C173.461 171.891 173.48 172.564 173.358 173.22C173.1 174.617 172.341 175.871 171.223 176.747C170.106 177.623 168.707 178.062 167.289 177.981Z" fill="#B1D68A"/>
<path d="M100.87 134.057C102.046 136.708 103.25 139.43 104.468 142.075C105.686 144.719 106.946 147.406 108.296 149.731C108.583 150.215 108.901 150.68 109.25 151.123C109.667 151.617 110.134 152.125 110.607 152.647C111.574 153.684 112.612 154.735 113.649 155.765C115.737 157.853 117.825 159.941 119.913 162.119L117.825 164.841C115.187 163.32 112.631 161.662 110.169 159.871C108.93 158.973 107.719 158.041 106.508 157.025C105.902 156.517 105.304 155.974 104.691 155.382C104.051 154.714 103.467 153.994 102.944 153.231C101.201 150.621 99.6363 147.896 98.26 145.074C96.9028 142.325 95.6569 139.59 94.4946 136.722L100.87 134.057Z" fill="#FF8B7B"/>
<path d="M77.8533 133.632C76.2733 136.214 74.6517 138.81 73.03 141.378L68.1928 149.09L67.6012 150.05L67.5316 150.176V150.231V150.273C67.4968 150.326 67.4665 150.382 67.4411 150.44C67.2792 150.907 67.1809 151.394 67.1488 151.888C67.0693 153.234 67.1089 154.585 67.2671 155.925C67.5664 158.764 68.1301 161.764 68.7287 164.666L65.4993 165.863C64.0253 163.007 62.8587 160.002 62.0193 156.899C61.5616 155.233 61.2885 153.523 61.2049 151.797C61.1563 150.754 61.2547 149.709 61.4973 148.693C61.5947 148.387 61.6713 148.108 61.8035 147.781L62.0193 147.308L62.1097 147.12L62.1724 146.995L62.7083 145.944C64.1003 143.16 65.6385 140.459 67.1905 137.787C68.7426 135.114 70.3573 132.49 72.0625 129.887L77.8533 133.632Z" fill="#FF8B7B"/>
<path d="M96.2696 114.36C96.1443 114.701 96.2209 115.056 96.4436 115.154C96.6663 115.251 96.9517 115.042 97.0839 114.694C97.2161 114.346 97.1326 113.998 96.9099 113.901C96.6872 113.803 96.4018 114.012 96.2696 114.36Z" fill="#3D3D3D"/>
<path d="M96.186 115.049C96.201 116.28 96.3789 117.504 96.715 118.689C96.4146 118.76 96.1022 118.764 95.8001 118.701C95.498 118.637 95.2138 118.507 94.968 118.32L96.186 115.049Z" fill="#FF5652"/>
<path d="M97.5431 112.328C97.4982 112.319 97.4569 112.298 97.4248 112.265C97.2161 112.094 96.9696 111.975 96.7057 111.918C96.4419 111.861 96.1682 111.868 95.9075 111.938C95.8796 111.945 95.8506 111.947 95.8221 111.943C95.7935 111.938 95.7662 111.929 95.7415 111.914C95.7169 111.899 95.6954 111.879 95.6785 111.856C95.6616 111.832 95.6495 111.806 95.643 111.778C95.6305 111.722 95.6403 111.664 95.6702 111.616C95.7002 111.568 95.7479 111.534 95.8031 111.52C96.1344 111.432 96.4821 111.425 96.8167 111.5C97.1512 111.575 97.4625 111.73 97.7241 111.952C97.7443 111.972 97.7603 111.996 97.7713 112.022C97.7822 112.048 97.7878 112.076 97.7878 112.105C97.7878 112.133 97.7822 112.162 97.7713 112.188C97.7603 112.214 97.7443 112.238 97.7241 112.258C97.7014 112.283 97.6733 112.302 97.6419 112.314C97.6104 112.326 97.5766 112.331 97.5431 112.328Z" fill="#3D3D3D"/>
<path d="M83.5812 115.042C83.1427 118.786 83.8596 123.505 81.2983 125.385C81.2983 125.385 81.8343 128.865 87.9939 129.818C94.7659 130.82 91.5991 126.916 91.5991 126.916C88.0008 125.475 88.3975 122.74 89.3232 120.241L83.5812 115.042Z" fill="#FF8B7B"/>
<path d="M79.1479 127.737C79.0575 126.011 79.1479 123.408 80.2198 123.032C81.3891 122.621 88.3003 123.171 91.7664 126.31C90.973 127.875 90.5672 129.608 90.5832 131.363L79.1479 127.737Z" fill="#3D3D3D"/>
<path d="M57.9685 282.973C57.3419 282.921 56.7316 282.746 56.1728 282.458C56.1534 282.448 56.1371 282.433 56.126 282.415C56.1149 282.396 56.1094 282.375 56.1102 282.353C56.1118 282.333 56.1192 282.314 56.1315 282.298C56.1439 282.282 56.1607 282.27 56.1798 282.263C56.2424 282.263 57.6344 281.706 58.2678 282.005C58.336 282.038 58.3966 282.085 58.4458 282.142C58.4949 282.2 58.5315 282.267 58.5531 282.339C58.5921 282.424 58.6029 282.519 58.5841 282.611C58.5654 282.702 58.5179 282.785 58.4487 282.848C58.3095 282.947 58.1385 282.991 57.9685 282.973ZM56.4999 282.374C57.1403 282.66 58.052 282.882 58.2956 282.68C58.2956 282.68 58.3931 282.604 58.2956 282.402C58.282 282.358 58.2596 282.318 58.2296 282.283C58.1997 282.248 58.1629 282.22 58.1216 282.2C57.5755 282.104 57.0131 282.164 56.4999 282.374Z" fill="#ACF75F"/>
<path d="M56.2216 282.471C56.1925 282.47 56.165 282.458 56.145 282.437C56.1351 282.421 56.1299 282.403 56.1299 282.384C56.1299 282.366 56.1351 282.348 56.145 282.332C56.145 282.276 56.5348 281.01 57.1473 280.71C57.2226 280.676 57.3045 280.658 57.3874 280.658C57.4703 280.658 57.5522 280.676 57.6275 280.71C57.709 280.73 57.781 280.778 57.8307 280.845C57.8804 280.913 57.9046 280.996 57.899 281.079C57.899 281.601 56.7784 282.353 56.2773 282.471H56.2216ZM57.3909 280.864C57.3282 280.864 57.2665 280.878 57.2099 280.905C56.8143 281.239 56.5302 281.686 56.3956 282.186C56.9176 281.949 57.6345 281.358 57.6554 281.045C57.6554 281.045 57.6554 280.94 57.5231 280.891C57.4815 280.873 57.4364 280.863 57.3909 280.864Z" fill="#ACF75F"/>
<path d="M92.9565 284.998C92.4894 284.996 92.0235 284.952 91.5645 284.866C91.5448 284.859 91.5278 284.845 91.5159 284.828C91.504 284.81 91.4976 284.79 91.4976 284.769C91.4976 284.748 91.504 284.727 91.5159 284.71C91.5278 284.692 91.5448 284.679 91.5645 284.671C91.7942 284.532 93.8265 283.37 94.3137 284.177C94.3631 284.247 94.3896 284.331 94.3896 284.417C94.3896 284.503 94.3631 284.587 94.3137 284.657C94.1049 284.915 93.5411 284.998 92.9565 284.998ZM91.8916 284.706C92.7546 284.831 93.917 284.81 94.1118 284.532C94.1118 284.532 94.1745 284.442 94.1118 284.288C93.8056 283.829 92.5667 284.351 91.8916 284.706Z" fill="#ACF75F"/>
<path d="M91.5647 284.872C91.5468 284.879 91.527 284.879 91.5091 284.872C91.4928 284.862 91.4796 284.848 91.471 284.831C91.4624 284.813 91.4587 284.794 91.4603 284.775C91.4783 284.132 91.7028 283.512 92.1007 283.007C92.183 282.938 92.2784 282.886 92.3811 282.853C92.4839 282.821 92.592 282.809 92.6992 282.819C93.0055 282.854 93.0959 283.007 93.1168 283.132C93.2003 283.661 92.1633 284.629 91.6135 284.879L91.5647 284.872ZM92.6157 283.014C92.4779 283.015 92.3448 283.064 92.2399 283.153C91.9188 283.55 91.729 284.036 91.697 284.545C92.2468 284.204 92.9567 283.439 92.9011 283.119C92.9011 283.119 92.9011 283.007 92.6783 282.986L92.6157 283.014Z" fill="#ACF75F"/>
<path d="M86.5325 284.762H91.1122L91.1609 274.148H86.5742L86.5325 284.762Z" fill="#FF8B7B"/>
<path d="M51.0366 281.477L55.3309 282.472L58.9362 271.976L54.6419 270.981L51.0366 281.477Z" fill="#FF8B7B"/>
<path d="M55.9991 281.762L51.0088 280.489C50.9218 280.464 50.8289 280.472 50.7471 280.51C50.6653 280.548 50.6001 280.615 50.5633 280.698L48.8442 284.463C48.8026 284.557 48.7822 284.659 48.7846 284.761C48.787 284.864 48.812 284.965 48.8579 285.056C48.9038 285.148 48.9694 285.229 49.0501 285.292C49.1307 285.356 49.2244 285.4 49.3244 285.423C51.0784 285.834 51.9484 285.945 54.1408 286.495C55.491 286.836 58.2472 287.678 60.1124 288.145C61.9777 288.611 62.6111 286.808 61.8803 286.453C58.616 284.832 57.5512 283.468 56.6603 282.194C56.4974 281.977 56.2633 281.824 55.9991 281.762Z" fill="#3D3D3D"/>
<path d="M91.0633 284.233H86.0591C85.9689 284.233 85.8814 284.264 85.8116 284.321C85.7418 284.378 85.694 284.458 85.6762 284.546L84.9315 288.618C84.9141 288.718 84.9192 288.822 84.9463 288.921C84.9734 289.019 85.0219 289.111 85.0883 289.188C85.1548 289.266 85.2375 289.328 85.3307 289.37C85.4239 289.412 85.5253 289.434 85.6275 289.432C87.4302 289.432 90.0332 289.3 92.3022 289.3C94.9609 289.3 95.0096 289.439 98.1207 289.439C99.9999 289.439 100.452 287.539 99.6589 287.351C96.0397 286.571 95.3576 286.488 92.1838 284.567C91.8479 284.355 91.4603 284.24 91.0633 284.233Z" fill="#3D3D3D"/>
<path d="M75.9323 125.071C71.5754 125.419 65.4297 136.347 65.4297 136.347L73.3223 143.495C75.7803 140.743 78.0168 137.801 80.0109 134.697C83.1081 129.735 80.3867 124.717 75.9323 125.071Z" fill="#ACF75F"/>
<path opacity="0.6" d="M75.9323 125.071C71.5754 125.419 65.4297 136.347 65.4297 136.347L73.3223 143.495C75.7803 140.743 78.0168 137.801 80.0109 134.697C83.1081 129.735 80.3867 124.717 75.9323 125.071Z" fill="white"/>
<path opacity="0.2" d="M78.1598 132.936L72.9468 143.139L73.3157 143.48C73.3157 143.48 75.3341 141.274 77.5821 138.232L78.1598 132.936Z" fill="#3D3D3D"/>
<path d="M97.7659 149.571C96.9794 154.624 95.7336 160.874 93.8196 168.571L69.5779 164.952C69.8006 161.472 73.5103 145.958 72.7795 129.303C72.7536 128.748 72.842 128.194 73.0392 127.675C73.2365 127.156 73.5383 126.683 73.926 126.286C74.3137 125.888 74.779 125.575 75.293 125.365C75.8069 125.155 76.3586 125.052 76.9137 125.064C78.1108 125.064 79.4263 125.155 80.7208 125.28C84.1829 125.596 87.6243 126.107 91.0286 126.811C93.3628 127.402 95.6478 128.172 97.8633 129.115C97.8633 129.115 99.6033 131.669 98.6637 142.297C98.4758 144.406 98.1904 146.807 97.7659 149.571Z" fill="#ACF75F"/>
<path opacity="0.6" d="M97.7659 149.571C96.9794 154.624 95.7336 160.874 93.8196 168.571L69.5779 164.952C69.8006 161.472 73.5103 145.958 72.7795 129.303C72.7536 128.748 72.842 128.194 73.0392 127.675C73.2365 127.156 73.5383 126.683 73.926 126.286C74.3137 125.888 74.779 125.575 75.293 125.365C75.8069 125.155 76.3586 125.052 76.9137 125.064C78.1108 125.064 79.4263 125.155 80.7208 125.28C84.1829 125.596 87.6243 126.107 91.0286 126.811C93.3628 127.402 95.6478 128.172 97.8633 129.115C97.8633 129.115 99.6033 131.669 98.6637 142.297C98.4758 144.406 98.1904 146.807 97.7659 149.571Z" fill="white"/>
<path opacity="0.2" d="M97.7657 149.57C95.796 148.325 93.9516 142.61 94.7799 139.597L98.6635 142.311C98.4756 144.406 98.1903 146.807 97.7657 149.57Z" fill="#3D3D3D"/>
<path d="M92.3164 132.24C91.0636 136.416 98.65 148.715 98.65 148.715L107.698 143.982C106.367 140.127 104.582 136.445 102.381 133.013C98.7544 127.675 93.7641 127.521 92.3164 132.24Z" fill="#ACF75F"/>
<path opacity="0.6" d="M92.3164 132.24C91.0636 136.416 98.65 148.715 98.65 148.715L107.698 143.982C106.367 140.127 104.582 136.445 102.381 133.013C98.7544 127.675 93.7641 127.521 92.3164 132.24Z" fill="white"/>
<path opacity="0.2" d="M91.1538 274.154L91.1329 279.625H86.5532L86.5741 274.154H91.1538Z" fill="#3D3D3D"/>
<path opacity="0.2" d="M54.6418 270.987L58.9361 271.976L57.0708 277.39L52.7834 276.395L54.6418 270.987Z" fill="#3D3D3D"/>
<path d="M85.1685 108.883C83.8392 113.247 82.8439 115.725 84.1524 118.787C84.5585 119.79 85.232 120.661 86.0995 121.308C86.9671 121.954 87.9953 122.349 89.0723 122.451C90.1492 122.553 91.2334 122.358 92.2068 121.886C93.1801 121.414 94.0053 120.684 94.5924 119.775C96.917 116.295 98.6988 109.767 95.2257 106.363C94.4969 105.604 93.5804 105.051 92.569 104.76C91.5576 104.469 90.4872 104.45 89.4663 104.706C88.4454 104.962 87.5102 105.483 86.7555 106.216C86.0007 106.95 85.4533 107.87 85.1685 108.883Z" fill="#FF8B7B"/>
<path d="M92.177 113.678C91.655 115.912 90.2978 119.942 86.957 120.408C85.0917 120.666 81.9876 120.116 81.7022 118.613C81.4168 117.109 82.5722 117.311 82.2799 116.079C81.9876 114.847 80.4633 110.511 82.1964 107.477C79.7882 107.678 81.4377 104.108 85.7599 103.301C84.4236 102.779 85.0639 99.1245 91.7316 100.865C94.8496 101.665 97.1673 102.89 97.4457 104.567C100.285 105.764 101.037 108.778 99.2762 109.878C97.5153 110.977 94.968 109.739 94.968 109.739C94.968 109.739 96.172 116.114 92.177 113.678Z" fill="#3D3D3D"/>
<path d="M90.3607 113.337C90.2996 114.339 90.6065 115.329 91.2237 116.121C92.052 117.179 92.3303 117.186 92.6714 116.009C92.9846 114.952 93.7432 112.585 92.6366 111.959C91.53 111.332 90.4581 112.119 90.3607 113.337Z" fill="#FF8B7B"/>
<path d="M85.2242 167.29C85.2242 167.29 81.4588 203.231 79.1481 216.344C76.5729 230.709 59.4652 276.896 59.4652 276.896L51.3081 274.878C55.4841 258.87 61.6715 229.06 65.4369 217.646C68.2766 200.294 65.4369 178.482 69.6129 164.965L85.2242 167.29Z" fill="#3D3D3D"/>
<path d="M61.3651 274.224L59.8618 277.168L50.7024 274.865L51.461 272.081L61.3651 274.224Z" fill="#ACF75F"/>
<path opacity="0.2" d="M82.8993 181.307C83.1589 181.256 83.4262 181.256 83.6858 181.307C82.4817 192.04 80.7695 206.363 79.4193 214.583C78.2918 202.64 77.2478 182.421 82.8993 181.307Z" fill="#3D3D3D"/>
<path d="M93.8199 168.571C93.8199 168.571 95.72 206.976 95.9984 220.945C96.2837 235.478 92.8037 278.567 92.8037 278.567H85.0363C85.0363 278.567 82.1062 238.61 83.6861 219.122C81.8139 204.276 77.8884 166.226 77.8884 166.226L93.8199 168.571Z" fill="#3D3D3D"/>
<path d="M121.847 161.681C120.585 161.576 119.314 161.757 118.131 162.21L117.567 163.142C117.457 163.327 117.391 163.534 117.372 163.748C117.354 163.962 117.384 164.177 117.46 164.378C117.536 164.579 117.657 164.759 117.813 164.907C117.969 165.055 118.156 165.165 118.36 165.23L121.082 166.1L122.411 166.504C122.691 166.591 122.991 166.587 123.268 166.493C123.546 166.399 123.786 166.221 123.956 165.982L124.527 165.189C124.732 164.909 124.825 164.562 124.788 164.217C124.75 163.872 124.585 163.553 124.325 163.323L123.1 162.217C122.751 161.908 122.312 161.72 121.847 161.681Z" fill="#FF8B7B"/>
<path d="M94.1743 275.47L93.8611 278.692H84.4164L84.0544 275.818L94.1743 275.47Z" fill="#ACF75F"/>
</g>
<defs>
<clipPath id="clip0_45_4383">
<rect width="348" height="348" fill="white" transform="translate(0.5)"/>
</clipPath>
</defs>
</svg>
