<svg width="207" height="59" viewBox="0 0 207 59" fill="none" xmlns="http://www.w3.org/2000/svg">
<path d="M5.10978 11.142H20.9274C27.8761 11.142 30.8476 15.4393 30.8476 20.3765C30.8476 25.0395 28.1504 30.0682 20.9274 30.0682H11.3271C10.8242 30.0682 10.5499 30.2968 10.5499 30.8454V42H5.1555V29.7939C5.1555 26.3196 6.61839 24.9024 10.0013 24.9024H21.1102C24.1732 24.9024 25.4075 22.7995 25.4075 20.6508C25.4075 18.4108 24.0817 16.5364 21.1559 16.5364H5.10978V11.142ZM39.2675 17.8622H49.1878V22.5252H40.6847C38.5361 22.5252 37.576 23.5309 37.576 25.6338V42H32.7302V24.9024C32.7302 20.0565 34.5131 17.8622 39.2675 17.8622ZM60.9774 17.8622H66.0518C72.452 17.8622 76.5207 21.7937 76.5207 29.9311C76.5207 38.0685 72.452 42 66.0518 42H60.9774C54.5315 42 50.5085 38.0685 50.5085 29.9311C50.5085 21.7937 54.5315 17.8622 60.9774 17.8622ZM65.5947 22.5252H61.4346C57.2287 22.5252 55.4001 24.7195 55.4001 29.9311C55.4001 35.1427 57.2287 37.2913 61.4346 37.2913H65.5947C69.7548 37.2913 71.6291 35.1427 71.6291 29.9311C71.6291 24.7195 69.7548 22.5252 65.5947 22.5252ZM100.014 7.39333H104.905V31.6683C104.905 38.617 101.797 42 96.0366 42H89.3621C82.9162 42 78.8932 38.0685 78.8932 29.9311C78.8932 21.7937 82.9162 17.8622 89.3621 17.8622H100.014V7.39333ZM94.6194 37.2913C98.5052 37.2913 100.014 35.5541 100.014 31.4397V22.5252H89.8193C85.6591 22.5252 83.7848 24.7195 83.7848 29.9311C83.7848 35.1427 85.6591 37.2913 89.8193 37.2913H94.6194ZM109.4 17.8622H114.291V32.3083C114.291 35.1427 116.394 37.2913 120.234 37.2913H124.166C128.006 37.2913 130.063 35.1427 130.063 32.3083V17.8622H134.818V32.4912C134.818 38.0685 131.252 42 124.349 42H119.869C112.966 42 109.4 38.0685 109.4 32.4912V17.8622ZM148.676 17.8622H161.111V22.5252H149.133C144.928 22.5252 143.099 24.7195 143.099 29.9311C143.099 35.1427 144.928 37.2913 149.133 37.2913H161.111V42H148.676C142.23 42 138.207 38.0685 138.207 29.9311C138.207 21.7937 142.23 17.8622 148.676 17.8622ZM162.142 17.8622H165.434V12.1477H170.325V17.8622H177V22.5252H170.325V33.9541C170.325 36.6513 171.285 37.5656 173.571 37.5656H176.908V42H172.565C167.582 42 165.434 39.9885 165.434 33.6798V22.5252H162.142V17.8622ZM199.492 17.8622H204.658L190.12 51.6917H184.909L189.435 41.1314C186.692 41.1314 185.732 40.2628 184.909 38.1599L176.817 17.8622H181.937L189.206 35.8284C189.526 36.697 189.755 36.8341 190.669 36.8341H191.309L199.492 17.8622Z" fill="#3D3D3D"/>
<rect x="49.4641" y="18.1035" width="28.9837" height="24.1378" fill="white"/>
<path fill-rule="evenodd" clip-rule="evenodd" d="M59.1943 18.1035C54.9819 18.1035 51.5671 21.5183 51.5671 25.7307V34.6141C51.5671 38.8265 54.9819 42.2413 59.1943 42.2413H67.988C72.2004 42.2413 75.6152 38.8265 75.6152 34.6141V25.7307C75.6152 24.603 75.3705 23.5325 74.9313 22.5694C75.9658 21.9138 76.9501 21.361 77.8738 20.8502C78.9506 20.2548 78.4122 17.9339 76.5278 18.1134C76.2443 18.1404 74.884 18.8692 73.0919 20.0628C71.7403 18.8449 69.9507 18.1035 67.988 18.1035H59.1943ZM73.0919 20.0628C69.7216 22.3076 64.8244 26.1967 62.6913 30.1539C61.7762 28.6625 60.0365 26.4008 58.2674 25.5163C57.877 25.321 56.5627 26.0098 56.5627 27.3109C56.6841 27.9177 57.1518 28.4059 57.888 29.1742C58.7849 30.1103 60.0802 31.4623 61.6328 33.9511C61.6437 33.9686 61.6547 33.9818 61.6657 33.9908C61.92 34.6112 63.559 34.5017 64.0551 33.5921C67.965 27.6763 71.6945 24.6203 74.9313 22.5694C74.4942 21.6111 73.8646 20.7591 73.0919 20.0628Z" fill="#ACF75F"/>
<path d="M52.6292 26.316C52.6292 21.976 56.2334 18.5039 60.5705 18.6661L69.0568 18.9834C69.3517 18.9945 69.6469 18.979 69.939 18.9373V18.9373C73.2099 18.47 76.007 21.2867 75.5169 24.5542L75.0991 27.3392C75.0332 27.7787 75.0091 28.2235 75.0271 28.6676L75.2271 33.5902C75.4036 37.9364 71.9279 41.5562 67.5781 41.5562H60.2844C56.0565 41.5562 52.6292 38.1288 52.6292 33.9009V26.316Z" fill="#3D3D3D"/>
<path fill-rule="evenodd" clip-rule="evenodd" d="M59.6344 17.8179C55.418 17.8179 52 21.2359 52 25.4522V34.3657C52 38.582 55.418 42 59.6344 42H68.3656C72.582 42 76 38.582 76 34.3657V25.4522C76 24.3415 75.7628 23.2861 75.3363 22.3341C76.2323 21.7808 77.0886 21.3007 77.8985 20.8528C78.9763 20.2569 78.4374 17.9338 76.5513 18.1134C76.2886 18.1385 75.1022 18.7654 73.5044 19.8063C72.148 18.571 70.3448 17.8179 68.3656 17.8179H59.6344ZM73.5044 19.8063C70.1302 22.0043 64.9212 26.0479 62.7018 30.1653C61.7858 28.6725 60.0444 26.4087 58.2737 25.5233C57.8829 25.3278 56.5674 26.0173 56.5674 27.3196C56.6889 27.9269 57.1571 28.4156 57.8939 29.1847C58.7916 30.1217 60.0882 31.4749 61.6422 33.966C61.6532 33.9836 61.6641 33.9968 61.6751 34.0058C61.9297 34.6268 63.5703 34.5171 64.0669 33.6067C68.1356 27.4506 72.0091 24.3884 75.3363 22.3341C74.9037 21.3686 74.2764 20.5093 73.5044 19.8063Z" fill="#ACF75F"/>
</svg>
